<svg xmlns="http://www.w3.org/2000/svg" viewBox="0 0 51 51"><path d="M1.5 1h6a0.5 0.5 0 0 1 0.5 0.5v6a0.5 0.5 0 0 1 -0.5 0.5h-6a0.5 0.5 0 0 1 -0.5 -0.5v-6a0.5 0.5 0 0 1 0.5 -0.5zM2 2.5v4a0.5 0.5 0 0 0 0.5 0.5h4a0.5 0.5 0 0 0 0.5 -0.5v-4a0.5 0.5 0 0 0 -0.5 -0.5h-4a0.5 0.5 0 0 0 -0.5 0.5zM43.5 1h6a0.5 0.5 0 0 1 0.5 0.5v6a0.5 0.5 0 0 1 -0.5 0.5h-6a0.5 0.5 0 0 1 -0.5 -0.5v-6a0.5 0.5 0 0 1 0.5 -0.5zM44 2.5v4a0.5 0.5 0 0 0 0.5 0.5h4a0.5 0.5 0 0 0 0.5 -0.5v-4a0.5 0.5 0 0 0 -0.5 -0.5h-4a0.5 0.5 0 0 0 -0.5 0.5zM1.5 43h6a0.5 0.5 0 0 1 0.5 0.5v6a0.5 0.5 0 0 1 -0.5 0.5h-6a0.5 0.5 0 0 1 -0.5 -0.5v-6a0.5 0.5 0 0 1 0.5 -0.5zM2 44.5v4a0.5 0.5 0 0 0 0.5 0.5h4a0.5 0.5 0 0 0 0.5 -0.5v-4a0.5 0.5 0 0 0 -0.5 -0.5h-4a0.5 0.5 0 0 0 -0.5 0.5z" fill="#032c36"></path><path d="M3.5 3h2a0.5 0.5 0 0 1 0.5 0.5v2a0.5 0.5 0 0 1 -0.5 0.5h-2a0.5 0.5 0 0 1 -0.5 -0.5v-2a0.5 0.5 0 0 1 0.5 -0.5zM45.5 3h2a0.5 0.5 0 0 1 0.5 0.5v2a0.5 0.5 0 0 1 -0.5 0.5h-2a0.5 0.5 0 0 1 -0.5 -0.5v-2a0.5 0.5 0 0 1 0.5 -0.5zM3.5 45h2a0.5 0.5 0 0 1 0.5 0.5v2a0.5 0.5 0 0 1 -0.5 0.5h-2a0.5 0.5 0 0 1 -0.5 -0.5v-2a0.5 0.5 0 0 1 0.5 -0.5z" fill="#032c36"></path><path d="M24.5 1a0.5 0.5 0 0 1 0.5 0.5a0.5 0.5 0 0 1 -0.5 0.5a0.5 0.5 0 0 1 -0.5 -0.5a0.5 0.5 0 0 1 0.5 -0.5zM36.5 1a0.5 0.5 0 0 1 0.5 0.5a0.5 0.5 0 0 1 -0.5 0.5a0.5 0.5 0 0 1 -0.5 -0.5a0.5 0.5 0 0 1 0.5 -0.5zM38.5 1a0.5 0.5 0 0 1 0.5 0.5a0.5 0.5 0 0 1 -0.5 0.5a0.5 0.5 0 0 1 -0.5 -0.5a0.5 0.5 0 0 1 0.5 -0.5zM23.5 2a0.5 0.5 0 0 1 0.5 0.5a0.5 0.5 0 0 1 -0.5 0.5a0.5 0.5 0 0 1 -0.5 -0.5a0.5 0.5 0 0 1 0.5 -0.5zM32.5 2a0.5 0.5 0 0 1 0.5 0.5a0.5 0.5 0 0 1 -0.5 0.5a0.5 0.5 0 0 1 -0.5 -0.5a0.5 0.5 0 0 1 0.5 -0.5zM24.5 3a0.5 0.5 0 0 1 0.5 0.5a0.5 0.5 0 0 1 -0.5 0.5a0.5 0.5 0 0 1 -0.5 -0.5a0.5 0.5 0 0 1 0.5 -0.5zM28.5 4a0.5 0.5 0 0 1 0.5 0.5a0.5 0.5 0 0 1 -0.5 0.5a0.5 0.5 0 0 1 -0.5 -0.5a0.5 0.5 0 0 1 0.5 -0.5zM34.5 6a0.5 0.5 0 0 1 0.5 0.5a0.5 0.5 0 0 1 -0.5 0.5a0.5 0.5 0 0 1 -0.5 -0.5a0.5 0.5 0 0 1 0.5 -0.5zM15.5 7a0.5 0.5 0 0 1 0.5 0.5a0.5 0.5 0 0 1 -0.5 0.5a0.5 0.5 0 0 1 -0.5 -0.5a0.5 0.5 0 0 1 0.5 -0.5zM25.5 7a0.5 0.5 0 0 1 0.5 0.5a0.5 0.5 0 0 1 -0.5 0.5a0.5 0.5 0 0 1 -0.5 -0.5a0.5 0.5 0 0 1 0.5 -0.5zM37.5 7a0.5 0.5 0 0 1 0.5 0.5a0.5 0.5 0 0 1 -0.5 0.5a0.5 0.5 0 0 1 -0.5 -0.5a0.5 0.5 0 0 1 0.5 -0.5zM12.5 8a0.5 0.5 0 0 1 0.5 0.5a0.5 0.5 0 0 1 -0.5 0.5a0.5 0.5 0 0 1 -0.5 -0.5a0.5 0.5 0 0 1 0.5 -0.5zM38.5 8a0.5 0.5 0 0 1 0.5 0.5a0.5 0.5 0 0 1 -0.5 0.5a0.5 0.5 0 0 1 -0.5 -0.5a0.5 0.5 0 0 1 0.5 -0.5zM45.5 9a0.5 0.5 0 0 1 0.5 0.5a0.5 0.5 0 0 1 -0.5 0.5a0.5 0.5 0 0 1 -0.5 -0.5a0.5 0.5 0 0 1 0.5 -0.5zM6.5 10a0.5 0.5 0 0 1 0.5 0.5a0.5 0.5 0 0 1 -0.5 0.5a0.5 0.5 0 0 1 -0.5 -0.5a0.5 0.5 0 0 1 0.5 -0.5zM15.5 10a0.5 0.5 0 0 1 0.5 0.5a0.5 0.5 0 0 1 -0.5 0.5a0.5 0.5 0 0 1 -0.5 -0.5a0.5 0.5 0 0 1 0.5 -0.5zM7.5 11a0.5 0.5 0 0 1 0.5 0.5a0.5 0.5 0 0 1 -0.5 0.5a0.5 0.5 0 0 1 -0.5 -0.5a0.5 0.5 0 0 1 0.5 -0.5zM29.5 11a0.5 0.5 0 0 1 0.5 0.5a0.5 0.5 0 0 1 -0.5 0.5a0.5 0.5 0 0 1 -0.5 -0.5a0.5 0.5 0 0 1 0.5 -0.5zM35.5 11a0.5 0.5 0 0 1 0.5 0.5a0.5 0.5 0 0 1 -0.5 0.5a0.5 0.5 0 0 1 -0.5 -0.5a0.5 0.5 0 0 1 0.5 -0.5zM16.5 12a0.5 0.5 0 0 1 0.5 0.5a0.5 0.5 0 0 1 -0.5 0.5a0.5 0.5 0 0 1 -0.5 -0.5a0.5 0.5 0 0 1 0.5 -0.5zM4.5 13a0.5 0.5 0 0 1 0.5 0.5a0.5 0.5 0 0 1 -0.5 0.5a0.5 0.5 0 0 1 -0.5 -0.5a0.5 0.5 0 0 1 0.5 -0.5zM1.5 14a0.5 0.5 0 0 1 0.5 0.5a0.5 0.5 0 0 1 -0.5 0.5a0.5 0.5 0 0 1 -0.5 -0.5a0.5 0.5 0 0 1 0.5 -0.5zM27.5 15a0.5 0.5 0 0 1 0.5 0.5a0.5 0.5 0 0 1 -0.5 0.5a0.5 0.5 0 0 1 -0.5 -0.5a0.5 0.5 0 0 1 0.5 -0.5zM19.5 16a0.5 0.5 0 0 1 0.5 0.5a0.5 0.5 0 0 1 -0.5 0.5a0.5 0.5 0 0 1 -0.5 -0.5a0.5 0.5 0 0 1 0.5 -0.5zM26.5 16a0.5 0.5 0 0 1 0.5 0.5a0.5 0.5 0 0 1 -0.5 0.5a0.5 0.5 0 0 1 -0.5 -0.5a0.5 0.5 0 0 1 0.5 -0.5zM1.5 17a0.5 0.5 0 0 1 0.5 0.5a0.5 0.5 0 0 1 -0.5 0.5a0.5 0.5 0 0 1 -0.5 -0.5a0.5 0.5 0 0 1 0.5 -0.5zM6.5 18a0.5 0.5 0 0 1 0.5 0.5a0.5 0.5 0 0 1 -0.5 0.5a0.5 0.5 0 0 1 -0.5 -0.5a0.5 0.5 0 0 1 0.5 -0.5zM9.5 18a0.5 0.5 0 0 1 0.5 0.5a0.5 0.5 0 0 1 -0.5 0.5a0.5 0.5 0 0 1 -0.5 -0.5a0.5 0.5 0 0 1 0.5 -0.5zM23.5 18a0.5 0.5 0 0 1 0.5 0.5a0.5 0.5 0 0 1 -0.5 0.5a0.5 0.5 0 0 1 -0.5 -0.5a0.5 0.5 0 0 1 0.5 -0.5zM25.5 18a0.5 0.5 0 0 1 0.5 0.5a0.5 0.5 0 0 1 -0.5 0.5a0.5 0.5 0 0 1 -0.5 -0.5a0.5 0.5 0 0 1 0.5 -0.5zM22.5 19a0.5 0.5 0 0 1 0.5 0.5a0.5 0.5 0 0 1 -0.5 0.5a0.5 0.5 0 0 1 -0.5 -0.5a0.5 0.5 0 0 1 0.5 -0.5zM24.5 19a0.5 0.5 0 0 1 0.5 0.5a0.5 0.5 0 0 1 -0.5 0.5a0.5 0.5 0 0 1 -0.5 -0.5a0.5 0.5 0 0 1 0.5 -0.5zM30.5 20a0.5 0.5 0 0 1 0.5 0.5a0.5 0.5 0 0 1 -0.5 0.5a0.5 0.5 0 0 1 -0.5 -0.5a0.5 0.5 0 0 1 0.5 -0.5zM44.5 20a0.5 0.5 0 0 1 0.5 0.5a0.5 0.5 0 0 1 -0.5 0.5a0.5 0.5 0 0 1 -0.5 -0.5a0.5 0.5 0 0 1 0.5 -0.5zM48.5 21a0.5 0.5 0 0 1 0.5 0.5a0.5 0.5 0 0 1 -0.5 0.5a0.5 0.5 0 0 1 -0.5 -0.5a0.5 0.5 0 0 1 0.5 -0.5zM33.5 23a0.5 0.5 0 0 1 0.5 0.5a0.5 0.5 0 0 1 -0.5 0.5a0.5 0.5 0 0 1 -0.5 -0.5a0.5 0.5 0 0 1 0.5 -0.5zM7.5 25a0.5 0.5 0 0 1 0.5 0.5a0.5 0.5 0 0 1 -0.5 0.5a0.5 0.5 0 0 1 -0.5 -0.5a0.5 0.5 0 0 1 0.5 -0.5zM25.5 25a0.5 0.5 0 0 1 0.5 0.5a0.5 0.5 0 0 1 -0.5 0.5a0.5 0.5 0 0 1 -0.5 -0.5a0.5 0.5 0 0 1 0.5 -0.5zM43.5 25a0.5 0.5 0 0 1 0.5 0.5a0.5 0.5 0 0 1 -0.5 0.5a0.5 0.5 0 0 1 -0.5 -0.5a0.5 0.5 0 0 1 0.5 -0.5zM20.5 26a0.5 0.5 0 0 1 0.5 0.5a0.5 0.5 0 0 1 -0.5 0.5a0.5 0.5 0 0 1 -0.5 -0.5a0.5 0.5 0 0 1 0.5 -0.5zM18.5 27a0.5 0.5 0 0 1 0.5 0.5a0.5 0.5 0 0 1 -0.5 0.5a0.5 0.5 0 0 1 -0.5 -0.5a0.5 0.5 0 0 1 0.5 -0.5zM19.5 28a0.5 0.5 0 0 1 0.5 0.5a0.5 0.5 0 0 1 -0.5 0.5a0.5 0.5 0 0 1 -0.5 -0.5a0.5 0.5 0 0 1 0.5 -0.5zM28.5 29a0.5 0.5 0 0 1 0.5 0.5a0.5 0.5 0 0 1 -0.5 0.5a0.5 0.5 0 0 1 -0.5 -0.5a0.5 0.5 0 0 1 0.5 -0.5zM39.5 29a0.5 0.5 0 0 1 0.5 0.5a0.5 0.5 0 0 1 -0.5 0.5a0.5 0.5 0 0 1 -0.5 -0.5a0.5 0.5 0 0 1 0.5 -0.5zM3.5 30a0.5 0.5 0 0 1 0.5 0.5a0.5 0.5 0 0 1 -0.5 0.5a0.5 0.5 0 0 1 -0.5 -0.5a0.5 0.5 0 0 1 0.5 -0.5zM27.5 30a0.5 0.5 0 0 1 0.5 0.5a0.5 0.5 0 0 1 -0.5 0.5a0.5 0.5 0 0 1 -0.5 -0.5a0.5 0.5 0 0 1 0.5 -0.5zM29.5 30a0.5 0.5 0 0 1 0.5 0.5a0.5 0.5 0 0 1 -0.5 0.5a0.5 0.5 0 0 1 -0.5 -0.5a0.5 0.5 0 0 1 0.5 -0.5zM1.5 31a0.5 0.5 0 0 1 0.5 0.5a0.5 0.5 0 0 1 -0.5 0.5a0.5 0.5 0 0 1 -0.5 -0.5a0.5 0.5 0 0 1 0.5 -0.5zM30.5 31a0.5 0.5 0 0 1 0.5 0.5a0.5 0.5 0 0 1 -0.5 0.5a0.5 0.5 0 0 1 -0.5 -0.5a0.5 0.5 0 0 1 0.5 -0.5zM2.5 32a0.5 0.5 0 0 1 0.5 0.5a0.5 0.5 0 0 1 -0.5 0.5a0.5 0.5 0 0 1 -0.5 -0.5a0.5 0.5 0 0 1 0.5 -0.5zM1.5 33a0.5 0.5 0 0 1 0.5 0.5a0.5 0.5 0 0 1 -0.5 0.5a0.5 0.5 0 0 1 -0.5 -0.5a0.5 0.5 0 0 1 0.5 -0.5zM11.5 34a0.5 0.5 0 0 1 0.5 0.5a0.5 0.5 0 0 1 -0.5 0.5a0.5 0.5 0 0 1 -0.5 -0.5a0.5 0.5 0 0 1 0.5 -0.5zM40.5 34a0.5 0.5 0 0 1 0.5 0.5a0.5 0.5 0 0 1 -0.5 0.5a0.5 0.5 0 0 1 -0.5 -0.5a0.5 0.5 0 0 1 0.5 -0.5zM12.5 35a0.5 0.5 0 0 1 0.5 0.5a0.5 0.5 0 0 1 -0.5 0.5a0.5 0.5 0 0 1 -0.5 -0.5a0.5 0.5 0 0 1 0.5 -0.5zM5.5 38a0.5 0.5 0 0 1 0.5 0.5a0.5 0.5 0 0 1 -0.5 0.5a0.5 0.5 0 0 1 -0.5 -0.5a0.5 0.5 0 0 1 0.5 -0.5zM18.5 39a0.5 0.5 0 0 1 0.5 0.5a0.5 0.5 0 0 1 -0.5 0.5a0.5 0.5 0 0 1 -0.5 -0.5a0.5 0.5 0 0 1 0.5 -0.5zM30.5 42a0.5 0.5 0 0 1 0.5 0.5a0.5 0.5 0 0 1 -0.5 0.5a0.5 0.5 0 0 1 -0.5 -0.5a0.5 0.5 0 0 1 0.5 -0.5zM25.5 43a0.5 0.5 0 0 1 0.5 0.5a0.5 0.5 0 0 1 -0.5 0.5a0.5 0.5 0 0 1 -0.5 -0.5a0.5 0.5 0 0 1 0.5 -0.5zM43.5 43a0.5 0.5 0 0 1 0.5 0.5a0.5 0.5 0 0 1 -0.5 0.5a0.5 0.5 0 0 1 -0.5 -0.5a0.5 0.5 0 0 1 0.5 -0.5zM20.5 45a0.5 0.5 0 0 1 0.5 0.5a0.5 0.5 0 0 1 -0.5 0.5a0.5 0.5 0 0 1 -0.5 -0.5a0.5 0.5 0 0 1 0.5 -0.5zM39.5 45a0.5 0.5 0 0 1 0.5 0.5a0.5 0.5 0 0 1 -0.5 0.5a0.5 0.5 0 0 1 -0.5 -0.5a0.5 0.5 0 0 1 0.5 -0.5zM19.5 46a0.5 0.5 0 0 1 0.5 0.5a0.5 0.5 0 0 1 -0.5 0.5a0.5 0.5 0 0 1 -0.5 -0.5a0.5 0.5 0 0 1 0.5 -0.5zM49.5 46a0.5 0.5 0 0 1 0.5 0.5a0.5 0.5 0 0 1 -0.5 0.5a0.5 0.5 0 0 1 -0.5 -0.5a0.5 0.5 0 0 1 0.5 -0.5zM23.5 48a0.5 0.5 0 0 1 0.5 0.5a0.5 0.5 0 0 1 -0.5 0.5a0.5 0.5 0 0 1 -0.5 -0.5a0.5 0.5 0 0 1 0.5 -0.5zM24.5 49a0.5 0.5 0 0 1 0.5 0.5a0.5 0.5 0 0 1 -0.5 0.5a0.5 0.5 0 0 1 -0.5 -0.5a0.5 0.5 0 0 1 0.5 -0.5z" fill="#032c36"></path><path d="M12.5 1a0.5 0.5 0 0 1 0.5 0.5a0.5 0.5 0 0 0 0.5 0.5h1a0.5 0.5 0 0 0 0.5 -0.5a0.5 0.5 0 0 1 0.5 -0.5h4a0.5 0.5 0 0 1 0.5 0.5a0.5 0.5 0 0 1 -0.5 0.5h-3a0.5 0.5 0 0 0 -0.5 0.5a0.5 0.5 0 0 1 -0.5 0.5a0.5 0.5 0 0 0 -0.5 0.5a0.5 0.5 0 0 0 0.5 0.5a0.5 0.5 0 0 1 0.5 0.5v1a0.5 0.5 0 0 1 -0.5 0.5h-1a0.5 0.5 0 0 1 -0.5 -0.5a0.5 0.5 0 0 0 -0.5 -0.5a0.5 0.5 0 0 0 -0.5 0.5a0.5 0.5 0 0 1 -0.5 0.5a0.5 0.5 0 0 0 -0.5 0.5v1a0.5 0.5 0 0 1 -0.5 0.5a0.5 0.5 0 0 1 -0.5 -0.5v-1a0.5 0.5 0 0 0 -0.5 -0.5h-1a0.5 0.5 0 0 1 -0.5 -0.5a0.5 0.5 0 0 1 0.5 -0.5h2a0.5 0.5 0 0 0 0.5 -0.5a0.5 0.5 0 0 0 -0.5 -0.5h-1a0.5 0.5 0 0 1 -0.5 -0.5a0.5 0.5 0 0 1 0.5 -0.5h1a0.5 0.5 0 0 0 0.5 -0.5v-1a0.5 0.5 0 0 1 0.5 -0.5zM27.5 1h3a0.5 0.5 0 0 1 0.5 0.5a0.5 0.5 0 0 1 -0.5 0.5a0.5 0.5 0 0 0 -0.5 0.5a0.5 0.5 0 0 0 0.5 0.5a0.5 0.5 0 0 1 0.5 0.5a0.5 0.5 0 0 1 -0.5 0.5h-1a0.5 0.5 0 0 1 -0.5 -0.5v-1a0.5 0.5 0 0 0 -0.5 -0.5h-1a0.5 0.5 0 0 1 -0.5 -0.5a0.5 0.5 0 0 1 0.5 -0.5zM41.5 1a0.5 0.5 0 0 1 0.5 0.5v2a0.5 0.5 0 0 1 -0.5 0.5a0.5 0.5 0 0 0 -0.5 0.5a0.5 0.5 0 0 1 -0.5 0.5a0.5 0.5 0 0 1 -0.5 -0.5v-1a0.5 0.5 0 0 0 -0.5 -0.5a0.5 0.5 0 0 1 -0.5 -0.5a0.5 0.5 0 0 1 0.5 -0.5h1a0.5 0.5 0 0 0 0.5 -0.5a0.5 0.5 0 0 1 0.5 -0.5zM21.5 2a0.5 0.5 0 0 1 0.5 0.5v1a0.5 0.5 0 0 0 0.5 0.5a0.5 0.5 0 0 1 0.5 0.5a0.5 0.5 0 0 1 -0.5 0.5h-1a0.5 0.5 0 0 1 -0.5 -0.5v-2a0.5 0.5 0 0 1 0.5 -0.5zM35.5 2a0.5 0.5 0 0 1 0.5 0.5v1a0.5 0.5 0 0 0 0.5 0.5a0.5 0.5 0 0 0 0.5 -0.5v-1a0.5 0.5 0 0 1 0.5 -0.5a0.5 0.5 0 0 1 0.5 0.5a0.5 0.5 0 0 0 0.5 0.5a0.5 0.5 0 0 1 0.5 0.5v2a0.5 0.5 0 0 1 -0.5 0.5a0.5 0.5 0 0 1 -0.5 -0.5a0.5 0.5 0 0 0 -0.5 -0.5a0.5 0.5 0 0 0 -0.5 0.5a0.5 0.5 0 0 1 -0.5 0.5a0.5 0.5 0 0 1 -0.5 -0.5a0.5 0.5 0 0 0 -0.5 -0.5h-2a0.5 0.5 0 0 1 -0.5 -0.5a0.5 0.5 0 0 1 0.5 -0.5h1a0.5 0.5 0 0 0 0.5 -0.5v-1a0.5 0.5 0 0 1 0.5 -0.5zM16.5 3h2a0.5 0.5 0 0 1 0.5 0.5a0.5 0.5 0 0 0 0.5 0.5a0.5 0.5 0 0 1 0.5 0.5a0.5 0.5 0 0 1 -0.5 0.5h-1a0.5 0.5 0 0 1 -0.5 -0.5a0.5 0.5 0 0 0 -0.5 -0.5h-1a0.5 0.5 0 0 1 -0.5 -0.5a0.5 0.5 0 0 1 0.5 -0.5zM17.5 5a0.5 0.5 0 0 1 0.5 0.5a0.5 0.5 0 0 0 0.5 0.5a0.5 0.5 0 0 1 0.5 0.5a0.5 0.5 0 0 1 -0.5 0.5a0.5 0.5 0 0 0 -0.5 0.5a0.5 0.5 0 0 0 0.5 0.5a0.5 0.5 0 0 0 0.5 -0.5a0.5 0.5 0 0 1 0.5 -0.5a0.5 0.5 0 0 1 0.5 0.5v1a0.5 0.5 0 0 1 -0.5 0.5a0.5 0.5 0 0 0 -0.5 0.5a0.5 0.5 0 0 1 -0.5 0.5a0.5 0.5 0 0 0 -0.5 0.5a0.5 0.5 0 0 0 0.5 0.5h3a0.5 0.5 0 0 1 0.5 0.5a0.5 0.5 0 0 1 -0.5 0.5h-1a0.5 0.5 0 0 0 -0.5 0.5a0.5 0.5 0 0 0 0.5 0.5a0.5 0.5 0 0 1 0.5 0.5a0.5 0.5 0 0 0 0.5 0.5a0.5 0.5 0 0 1 0.5 0.5a0.5 0.5 0 0 1 -0.5 0.5h-1a0.5 0.5 0 0 1 -0.5 -0.5a0.5 0.5 0 0 0 -0.5 -0.5a0.5 0.5 0 0 0 -0.5 0.5v1a0.5 0.5 0 0 1 -0.5 0.5h-1a0.5 0.5 0 0 1 -0.5 -0.5v-1a0.5 0.5 0 0 1 0.5 -0.5a0.5 0.5 0 0 0 0.5 -0.5a0.5 0.5 0 0 1 0.5 -0.5a0.5 0.5 0 0 0 0.5 -0.5a0.5 0.5 0 0 0 -0.5 -0.5h-1a0.5 0.5 0 0 1 -0.5 -0.5v-1a0.5 0.5 0 0 0 -0.5 -0.5a0.5 0.5 0 0 1 -0.5 -0.5a0.5 0.5 0 0 1 0.5 -0.5a0.5 0.5 0 0 0 0.5 -0.5v-1a0.5 0.5 0 0 0 -0.5 -0.5a0.5 0.5 0 0 1 -0.5 -0.5a0.5 0.5 0 0 1 0.5 -0.5a0.5 0.5 0 0 0 0.5 -0.5a0.5 0.5 0 0 1 0.5 -0.5zM20.5 5a0.5 0.5 0 0 1 0.5 0.5a0.5 0.5 0 0 0 0.5 0.5h1a0.5 0.5 0 0 0 0.5 -0.5a0.5 0.5 0 0 1 0.5 -0.5h4a0.5 0.5 0 0 1 0.5 0.5v2a0.5 0.5 0 0 0 0.5 0.5a0.5 0.5 0 0 0 0.5 -0.5a0.5 0.5 0 0 1 0.5 -0.5a0.5 0.5 0 0 1 0.5 0.5a0.5 0.5 0 0 0 0.5 0.5a0.5 0.5 0 0 0 0.5 -0.5a0.5 0.5 0 0 1 0.5 -0.5a0.5 0.5 0 0 1 0.5 0.5a0.5 0.5 0 0 0 0.5 0.5a0.5 0.5 0 0 0 0.5 -0.5a0.5 0.5 0 0 1 0.5 -0.5a0.5 0.5 0 0 1 0.5 0.5a0.5 0.5 0 0 0 0.5 0.5a0.5 0.5 0 0 0 0.5 -0.5a0.5 0.5 0 0 1 0.5 -0.5a0.5 0.5 0 0 1 0.5 0.5a0.5 0.5 0 0 0 0.5 0.5a0.5 0.5 0 0 1 0.5 0.5a0.5 0.5 0 0 0 0.5 0.5a0.5 0.5 0 0 1 0.5 0.5a0.5 0.5 0 0 1 -0.5 0.5h-2a0.5 0.5 0 0 1 -0.5 -0.5a0.5 0.5 0 0 0 -0.5 -0.5a0.5 0.5 0 0 0 -0.5 0.5v1a0.5 0.5 0 0 1 -0.5 0.5a0.5 0.5 0 0 0 -0.5 0.5a0.5 0.5 0 0 0 0.5 0.5h1a0.5 0.5 0 0 1 0.5 0.5v2a0.5 0.5 0 0 1 -0.5 0.5a0.5 0.5 0 0 1 -0.5 -0.5a0.5 0.5 0 0 0 -0.5 -0.5a0.5 0.5 0 0 1 -0.5 -0.5a0.5 0.5 0 0 0 -0.5 -0.5a0.5 0.5 0 0 0 -0.5 0.5a0.5 0.5 0 0 1 -0.5 0.5h-1a0.5 0.5 0 0 1 -0.5 -0.5v-1a0.5 0.5 0 0 1 0.5 -0.5h1a0.5 0.5 0 0 0 0.5 -0.5v-1a0.5 0.5 0 0 1 0.5 -0.5a0.5 0.5 0 0 0 0.5 -0.5a0.5 0.5 0 0 0 -0.5 -0.5h-2a0.5 0.5 0 0 0 -0.5 0.5a0.5 0.5 0 0 1 -0.5 0.5h-1a0.5 0.5 0 0 0 -0.5 0.5v1a0.5 0.5 0 0 1 -0.5 0.5a0.5 0.5 0 0 0 -0.5 0.5a0.5 0.5 0 0 0 0.5 0.5a0.5 0.5 0 0 0 0.5 -0.5a0.5 0.5 0 0 1 0.5 -0.5a0.5 0.5 0 0 1 0.5 0.5v1a0.5 0.5 0 0 0 0.5 0.5a0.5 0.5 0 0 1 0.5 0.5v1a0.5 0.5 0 0 0 0.5 0.5a0.5 0.5 0 0 1 0.5 0.5a0.5 0.5 0 0 1 -0.5 0.5h-1a0.5 0.5 0 0 1 -0.5 -0.5v-1a0.5 0.5 0 0 0 -0.5 -0.5a0.5 0.5 0 0 1 -0.5 -0.5a0.5 0.5 0 0 0 -0.5 -0.5h-2a0.5 0.5 0 0 1 -0.5 -0.5a0.5 0.5 0 0 1 0.5 -0.5a0.5 0.5 0 0 0 0.5 -0.5a0.5 0.5 0 0 0 -0.5 -0.5a0.5 0.5 0 0 1 -0.5 -0.5a0.5 0.5 0 0 1 0.5 -0.5a0.5 0.5 0 0 0 0.5 -0.5a0.5 0.5 0 0 0 -0.5 -0.5a0.5 0.5 0 0 0 -0.5 0.5a0.5 0.5 0 0 1 -0.5 0.5a0.5 0.5 0 0 1 -0.5 -0.5a0.5 0.5 0 0 0 -0.5 -0.5h-3a0.5 0.5 0 0 1 -0.5 -0.5a0.5 0.5 0 0 1 0.5 -0.5h1a0.5 0.5 0 0 0 0.5 -0.5a0.5 0.5 0 0 1 0.5 -0.5a0.5 0.5 0 0 0 0.5 -0.5a0.5 0.5 0 0 0 -0.5 -0.5a0.5 0.5 0 0 0 -0.5 0.5a0.5 0.5 0 0 1 -0.5 0.5a0.5 0.5 0 0 1 -0.5 -0.5a0.5 0.5 0 0 0 -0.5 -0.5a0.5 0.5 0 0 1 -0.5 -0.5v-1a0.5 0.5 0 0 1 0.5 -0.5zM31.5 5h1a0.5 0.5 0 0 1 0.5 0.5v1a0.5 0.5 0 0 1 -0.5 0.5a0.5 0.5 0 0 1 -0.5 -0.5a0.5 0.5 0 0 0 -0.5 -0.5a0.5 0.5 0 0 1 -0.5 -0.5a0.5 0.5 0 0 1 0.5 -0.5zM13.5 6a0.5 0.5 0 0 1 0.5 0.5v1a0.5 0.5 0 0 1 -0.5 0.5a0.5 0.5 0 0 1 -0.5 -0.5v-1a0.5 0.5 0 0 1 0.5 -0.5zM24 6.5v2a0.5 0.5 0 0 0 0.5 0.5h2a0.5 0.5 0 0 0 0.5 -0.5v-2a0.5 0.5 0 0 0 -0.5 -0.5h-2a0.5 0.5 0 0 0 -0.5 0.5zM39.5 6a0.5 0.5 0 0 1 0.5 0.5v1a0.5 0.5 0 0 1 -0.5 0.5a0.5 0.5 0 0 1 -0.5 -0.5v-1a0.5 0.5 0 0 1 0.5 -0.5zM9.5 7a0.5 0.5 0 0 1 0.5 0.5v2a0.5 0.5 0 0 1 -0.5 0.5h-2a0.5 0.5 0 0 1 -0.5 -0.5a0.5 0.5 0 0 1 0.5 -0.5h1a0.5 0.5 0 0 0 0.5 -0.5v-1a0.5 0.5 0 0 1 0.5 -0.5zM41.5 7a0.5 0.5 0 0 1 0.5 0.5v1a0.5 0.5 0 0 1 -0.5 0.5h-1a0.5 0.5 0 0 1 -0.5 -0.5a0.5 0.5 0 0 1 0.5 -0.5a0.5 0.5 0 0 0 0.5 -0.5a0.5 0.5 0 0 1 0.5 -0.5zM3.5 9h1a0.5 0.5 0 0 1 0.5 0.5v1a0.5 0.5 0 0 1 -0.5 0.5a0.5 0.5 0 0 1 -0.5 -0.5a0.5 0.5 0 0 0 -0.5 -0.5a0.5 0.5 0 0 1 -0.5 -0.5a0.5 0.5 0 0 1 0.5 -0.5zM11.5 9a0.5 0.5 0 0 1 0.5 0.5v1a0.5 0.5 0 0 1 -0.5 0.5a0.5 0.5 0 0 1 -0.5 -0.5v-1a0.5 0.5 0 0 1 0.5 -0.5zM13.5 9a0.5 0.5 0 0 1 0.5 0.5v2a0.5 0.5 0 0 1 -0.5 0.5h-1a0.5 0.5 0 0 1 -0.5 -0.5a0.5 0.5 0 0 1 0.5 -0.5a0.5 0.5 0 0 0 0.5 -0.5v-1a0.5 0.5 0 0 1 0.5 -0.5zM42.5 9h1a0.5 0.5 0 0 1 0.5 0.5a0.5 0.5 0 0 0 0.5 0.5a0.5 0.5 0 0 1 0.5 0.5v1a0.5 0.5 0 0 0 0.5 0.5a0.5 0.5 0 0 0 0.5 -0.5v-1a0.5 0.5 0 0 1 0.5 -0.5a0.5 0.5 0 0 1 0.5 0.5v1a0.5 0.5 0 0 0 0.5 0.5a0.5 0.5 0 0 1 0.5 0.5v1a0.5 0.5 0 0 0 0.5 0.5a0.5 0.5 0 0 0 0.5 -0.5a0.5 0.5 0 0 1 0.5 -0.5a0.5 0.5 0 0 1 0.5 0.5v1a0.5 0.5 0 0 1 -0.5 0.5a0.5 0.5 0 0 0 -0.5 0.5a0.5 0.5 0 0 1 -0.5 0.5a0.5 0.5 0 0 1 -0.5 -0.5a0.5 0.5 0 0 0 -0.5 -0.5h-2a0.5 0.5 0 0 1 -0.5 -0.5a0.5 0.5 0 0 1 0.5 -0.5h1a0.5 0.5 0 0 0 0.5 -0.5a0.5 0.5 0 0 0 -0.5 -0.5h-1a0.5 0.5 0 0 0 -0.5 0.5a0.5 0.5 0 0 1 -0.5 0.5a0.5 0.5 0 0 1 -0.5 -0.5a0.5 0.5 0 0 0 -0.5 -0.5a0.5 0.5 0 0 0 -0.5 0.5a0.5 0.5 0 0 1 -0.5 0.5h-2a0.5 0.5 0 0 1 -0.5 -0.5a0.5 0.5 0 0 1 0.5 -0.5h1a0.5 0.5 0 0 0 0.5 -0.5a0.5 0.5 0 0 1 0.5 -0.5a0.5 0.5 0 0 0 0.5 -0.5v-1a0.5 0.5 0 0 0 -0.5 -0.5a0.5 0.5 0 0 1 -0.5 -0.5a0.5 0.5 0 0 1 0.5 -0.5zM1.5 10h1a0.5 0.5 0 0 1 0.5 0.5a0.5 0.5 0 0 0 0.5 0.5a0.5 0.5 0 0 1 0.5 0.5a0.5 0.5 0 0 1 -0.5 0.5h-1a0.5 0.5 0 0 1 -0.5 -0.5a0.5 0.5 0 0 0 -0.5 -0.5a0.5 0.5 0 0 1 -0.5 -0.5a0.5 0.5 0 0 1 0.5 -0.5zM40.5 10a0.5 0.5 0 0 1 0.5 0.5a0.5 0.5 0 0 0 0.5 0.5a0.5 0.5 0 0 1 0.5 0.5a0.5 0.5 0 0 1 -0.5 0.5h-1a0.5 0.5 0 0 1 -0.5 -0.5v-1a0.5 0.5 0 0 1 0.5 -0.5zM48.5 10a0.5 0.5 0 0 1 0.5 0.5v1a0.5 0.5 0 0 1 -0.5 0.5a0.5 0.5 0 0 1 -0.5 -0.5v-1a0.5 0.5 0 0 1 0.5 -0.5zM9.5 11h1a0.5 0.5 0 0 1 0.5 0.5a0.5 0.5 0 0 1 -0.5 0.5a0.5 0.5 0 0 0 -0.5 0.5a0.5 0.5 0 0 1 -0.5 0.5a0.5 0.5 0 0 1 -0.5 -0.5v-1a0.5 0.5 0 0 1 0.5 -0.5zM23.5 11a0.5 0.5 0 0 1 0.5 0.5v3a0.5 0.5 0 0 1 -0.5 0.5a0.5 0.5 0 0 1 -0.5 -0.5a0.5 0.5 0 0 0 -0.5 -0.5a0.5 0.5 0 0 1 -0.5 -0.5v-1a0.5 0.5 0 0 1 0.5 -0.5a0.5 0.5 0 0 0 0.5 -0.5a0.5 0.5 0 0 1 0.5 -0.5zM37.5 11h1a0.5 0.5 0 0 1 0.5 0.5a0.5 0.5 0 0 1 -0.5 0.5a0.5 0.5 0 0 0 -0.5 0.5a0.5 0.5 0 0 0 0.5 0.5a0.5 0.5 0 0 1 0.5 0.5a0.5 0.5 0 0 0 0.5 0.5a0.5 0.5 0 0 1 0.5 0.5v1a0.5 0.5 0 0 0 0.5 0.5h2a0.5 0.5 0 0 0 0.5 -0.5a0.5 0.5 0 0 1 0.5 -0.5a0.5 0.5 0 0 1 0.5 0.5v1a0.5 0.5 0 0 1 -0.5 0.5a0.5 0.5 0 0 0 -0.5 0.5v1a0.5 0.5 0 0 1 -0.5 0.5h-1a0.5 0.5 0 0 0 -0.5 0.5a0.5 0.5 0 0 0 0.5 0.5h1a0.5 0.5 0 0 1 0.5 0.5a0.5 0.5 0 0 1 -0.5 0.5h-1a0.5 0.5 0 0 0 -0.5 0.5a0.5 0.5 0 0 1 -0.5 0.5h-1a0.5 0.5 0 0 1 -0.5 -0.5a0.5 0.5 0 0 1 0.5 -0.5a0.5 0.5 0 0 0 0.5 -0.5a0.5 0.5 0 0 0 -0.5 -0.5a0.5 0.5 0 0 1 -0.5 -0.5a0.5 0.5 0 0 1 0.5 -0.5a0.5 0.5 0 0 0 0.5 -0.5a0.5 0.5 0 0 1 0.5 -0.5a0.5 0.5 0 0 0 0.5 -0.5a0.5 0.5 0 0 0 -0.5 -0.5a0.5 0.5 0 0 0 -0.5 0.5a0.5 0.5 0 0 1 -0.5 0.5h-1a0.5 0.5 0 0 1 -0.5 -0.5a0.5 0.5 0 0 1 0.5 -0.5a0.5 0.5 0 0 0 0.5 -0.5a0.5 0.5 0 0 0 -0.5 -0.5h-2a0.5 0.5 0 0 1 -0.5 -0.5a0.5 0.5 0 0 1 0.5 -0.5h1a0.5 0.5 0 0 0 0.5 -0.5a0.5 0.5 0 0 0 -0.5 -0.5h-1a0.5 0.5 0 0 1 -0.5 -0.5a0.5 0.5 0 0 1 0.5 -0.5a0.5 0.5 0 0 0 0.5 -0.5v-1a0.5 0.5 0 0 1 0.5 -0.5zM6.5 12a0.5 0.5 0 0 1 0.5 0.5a0.5 0.5 0 0 0 0.5 0.5a0.5 0.5 0 0 1 0.5 0.5a0.5 0.5 0 0 1 -0.5 0.5a0.5 0.5 0 0 0 -0.5 0.5a0.5 0.5 0 0 1 -0.5 0.5h-1a0.5 0.5 0 0 1 -0.5 -0.5a0.5 0.5 0 0 1 0.5 -0.5a0.5 0.5 0 0 0 0.5 -0.5v-1a0.5 0.5 0 0 1 0.5 -0.5zM14.5 12a0.5 0.5 0 0 1 0.5 0.5v3a0.5 0.5 0 0 1 -0.5 0.5a0.5 0.5 0 0 1 -0.5 -0.5a0.5 0.5 0 0 0 -0.5 -0.5a0.5 0.5 0 0 1 -0.5 -0.5v-1a0.5 0.5 0 0 1 0.5 -0.5a0.5 0.5 0 0 0 0.5 -0.5a0.5 0.5 0 0 1 0.5 -0.5zM3.5 14a0.5 0.5 0 0 1 0.5 0.5a0.5 0.5 0 0 0 0.5 0.5a0.5 0.5 0 0 1 0.5 0.5a0.5 0.5 0 0 0 0.5 0.5h1a0.5 0.5 0 0 1 0.5 0.5a0.5 0.5 0 0 1 -0.5 0.5a0.5 0.5 0 0 0 -0.5 0.5a0.5 0.5 0 0 1 -0.5 0.5h-1a0.5 0.5 0 0 1 -0.5 -0.5v-1a0.5 0.5 0 0 0 -0.5 -0.5a0.5 0.5 0 0 0 -0.5 0.5a0.5 0.5 0 0 1 -0.5 0.5a0.5 0.5 0 0 1 -0.5 -0.5v-1a0.5 0.5 0 0 1 0.5 -0.5a0.5 0.5 0 0 0 0.5 -0.5a0.5 0.5 0 0 1 0.5 -0.5zM9.5 14a0.5 0.5 0 0 1 0.5 0.5a0.5 0.5 0 0 0 0.5 0.5a0.5 0.5 0 0 1 0.5 0.5a0.5 0.5 0 0 0 0.5 0.5a0.5 0.5 0 0 0 0.5 -0.5a0.5 0.5 0 0 1 0.5 -0.5a0.5 0.5 0 0 1 0.5 0.5v1a0.5 0.5 0 0 1 -0.5 0.5h-1a0.5 0.5 0 0 0 -0.5 0.5a0.5 0.5 0 0 1 -0.5 0.5a0.5 0.5 0 0 1 -0.5 -0.5a0.5 0.5 0 0 0 -0.5 -0.5a0.5 0.5 0 0 1 -0.5 -0.5a0.5 0.5 0 0 0 -0.5 -0.5h-1a0.5 0.5 0 0 1 -0.5 -0.5a0.5 0.5 0 0 1 0.5 -0.5h1a0.5 0.5 0 0 0 0.5 -0.5a0.5 0.5 0 0 1 0.5 -0.5zM32.5 14a0.5 0.5 0 0 1 0.5 0.5v1a0.5 0.5 0 0 1 -0.5 0.5h-1a0.5 0.5 0 0 1 -0.5 -0.5a0.5 0.5 0 0 1 0.5 -0.5a0.5 0.5 0 0 0 0.5 -0.5a0.5 0.5 0 0 1 0.5 -0.5zM22.5 15a0.5 0.5 0 0 1 0.5 0.5a0.5 0.5 0 0 0 0.5 0.5a0.5 0.5 0 0 0 0.5 -0.5a0.5 0.5 0 0 1 0.5 -0.5h1a0.5 0.5 0 0 1 0.5 0.5a0.5 0.5 0 0 1 -0.5 0.5a0.5 0.5 0 0 0 -0.5 0.5a0.5 0.5 0 0 1 -0.5 0.5h-2a0.5 0.5 0 0 1 -0.5 -0.5v-1a0.5 0.5 0 0 1 0.5 -0.5zM15.5 16a0.5 0.5 0 0 1 0.5 0.5a0.5 0.5 0 0 0 0.5 0.5h1a0.5 0.5 0 0 1 0.5 0.5a0.5 0.5 0 0 0 0.5 0.5h1a0.5 0.5 0 0 0 0.5 -0.5a0.5 0.5 0 0 1 0.5 -0.5h1a0.5 0.5 0 0 1 0.5 0.5v1a0.5 0.5 0 0 1 -0.5 0.5a0.5 0.5 0 0 0 -0.5 0.5a0.5 0.5 0 0 1 -0.5 0.5a0.5 0.5 0 0 1 -0.5 -0.5a0.5 0.5 0 0 0 -0.5 -0.5a0.5 0.5 0 0 0 -0.5 0.5v1a0.5 0.5 0 0 1 -0.5 0.5a0.5 0.5 0 0 1 -0.5 -0.5a0.5 0.5 0 0 0 -0.5 -0.5h-1a0.5 0.5 0 0 1 -0.5 -0.5v-1a0.5 0.5 0 0 0 -0.5 -0.5a0.5 0.5 0 0 1 -0.5 -0.5v-1a0.5 0.5 0 0 1 0.5 -0.5zM34.5 16a0.5 0.5 0 0 1 0.5 0.5v1a0.5 0.5 0 0 1 -0.5 0.5a0.5 0.5 0 0 1 -0.5 -0.5v-1a0.5 0.5 0 0 1 0.5 -0.5zM45.5 16a0.5 0.5 0 0 1 0.5 0.5a0.5 0.5 0 0 0 0.5 0.5h1a0.5 0.5 0 0 1 0.5 0.5a0.5 0.5 0 0 1 -0.5 0.5h-1a0.5 0.5 0 0 0 -0.5 0.5a0.5 0.5 0 0 1 -0.5 0.5h-1a0.5 0.5 0 0 1 -0.5 -0.5v-1a0.5 0.5 0 0 1 0.5 -0.5a0.5 0.5 0 0 0 0.5 -0.5a0.5 0.5 0 0 1 0.5 -0.5zM7.5 17h1a0.5 0.5 0 0 1 0.5 0.5a0.5 0.5 0 0 1 -0.5 0.5h-1a0.5 0.5 0 0 1 -0.5 -0.5a0.5 0.5 0 0 1 0.5 -0.5zM13.5 17a0.5 0.5 0 0 1 0.5 0.5v1a0.5 0.5 0 0 1 -0.5 0.5a0.5 0.5 0 0 1 -0.5 -0.5v-1a0.5 0.5 0 0 1 0.5 -0.5zM2.5 18a0.5 0.5 0 0 1 0.5 0.5a0.5 0.5 0 0 0 0.5 0.5h2a0.5 0.5 0 0 1 0.5 0.5a0.5 0.5 0 0 0 0.5 0.5a0.5 0.5 0 0 1 0.5 0.5a0.5 0.5 0 0 0 0.5 0.5a0.5 0.5 0 0 1 0.5 0.5a0.5 0.5 0 0 1 -0.5 0.5h-1a0.5 0.5 0 0 1 -0.5 -0.5a0.5 0.5 0 0 0 -0.5 -0.5a0.5 0.5 0 0 1 -0.5 -0.5a0.5 0.5 0 0 0 -0.5 -0.5h-1a0.5 0.5 0 0 0 -0.5 0.5a0.5 0.5 0 0 1 -0.5 0.5a0.5 0.5 0 0 1 -0.5 -0.5v-2a0.5 0.5 0 0 1 0.5 -0.5zM33.5 18a0.5 0.5 0 0 1 0.5 0.5v1a0.5 0.5 0 0 0 0.5 0.5a0.5 0.5 0 0 1 0.5 0.5a0.5 0.5 0 0 0 0.5 0.5a0.5 0.5 0 0 1 0.5 0.5a0.5 0.5 0 0 1 -0.5 0.5h-1a0.5 0.5 0 0 1 -0.5 -0.5a0.5 0.5 0 0 0 -0.5 -0.5a0.5 0.5 0 0 1 -0.5 -0.5a0.5 0.5 0 0 0 -0.5 -0.5a0.5 0.5 0 0 1 -0.5 -0.5a0.5 0.5 0 0 1 0.5 -0.5a0.5 0.5 0 0 0 0.5 -0.5a0.5 0.5 0 0 1 0.5 -0.5zM35.5 18h2a0.5 0.5 0 0 1 0.5 0.5a0.5 0.5 0 0 1 -0.5 0.5a0.5 0.5 0 0 0 -0.5 0.5a0.5 0.5 0 0 1 -0.5 0.5a0.5 0.5 0 0 1 -0.5 -0.5a0.5 0.5 0 0 0 -0.5 -0.5a0.5 0.5 0 0 1 -0.5 -0.5a0.5 0.5 0 0 1 0.5 -0.5zM49.5 18a0.5 0.5 0 0 1 0.5 0.5v1a0.5 0.5 0 0 1 -0.5 0.5h-1a0.5 0.5 0 0 1 -0.5 -0.5a0.5 0.5 0 0 1 0.5 -0.5a0.5 0.5 0 0 0 0.5 -0.5a0.5 0.5 0 0 1 0.5 -0.5zM7.5 19h1a0.5 0.5 0 0 1 0.5 0.5a0.5 0.5 0 0 1 -0.5 0.5h-1a0.5 0.5 0 0 1 -0.5 -0.5a0.5 0.5 0 0 1 0.5 -0.5zM26.5 19h2a0.5 0.5 0 0 1 0.5 0.5v1a0.5 0.5 0 0 1 -0.5 0.5a0.5 0.5 0 0 1 -0.5 -0.5a0.5 0.5 0 0 0 -0.5 -0.5h-1a0.5 0.5 0 0 1 -0.5 -0.5a0.5 0.5 0 0 1 0.5 -0.5zM46.5 19a0.5 0.5 0 0 1 0.5 0.5v2a0.5 0.5 0 0 1 -0.5 0.5a0.5 0.5 0 0 1 -0.5 -0.5v-2a0.5 0.5 0 0 1 0.5 -0.5zM14.5 20h1a0.5 0.5 0 0 1 0.5 0.5a0.5 0.5 0 0 1 -0.5 0.5h-1a0.5 0.5 0 0 1 -0.5 -0.5a0.5 0.5 0 0 1 0.5 -0.5zM21.5 20a0.5 0.5 0 0 1 0.5 0.5v1a0.5 0.5 0 0 1 -0.5 0.5a0.5 0.5 0 0 1 -0.5 -0.5v-1a0.5 0.5 0 0 1 0.5 -0.5zM23.5 20a0.5 0.5 0 0 1 0.5 0.5a0.5 0.5 0 0 0 0.5 0.5a0.5 0.5 0 0 1 0.5 0.5a0.5 0.5 0 0 1 -0.5 0.5a0.5 0.5 0 0 0 -0.5 0.5a0.5 0.5 0 0 0 0.5 0.5h1a0.5 0.5 0 0 0 0.5 -0.5a0.5 0.5 0 0 1 0.5 -0.5h2a0.5 0.5 0 0 0 0.5 -0.5a0.5 0.5 0 0 1 0.5 -0.5a0.5 0.5 0 0 1 0.5 0.5a0.5 0.5 0 0 0 0.5 0.5a0.5 0.5 0 0 0 0.5 -0.5a0.5 0.5 0 0 1 0.5 -0.5h1a0.5 0.5 0 0 1 0.5 0.5a0.5 0.5 0 0 1 -0.5 0.5a0.5 0.5 0 0 0 -0.5 0.5v1a0.5 0.5 0 0 1 -0.5 0.5h-1a0.5 0.5 0 0 1 -0.5 -0.5a0.5 0.5 0 0 0 -0.5 -0.5h-1a0.5 0.5 0 0 0 -0.5 0.5a0.5 0.5 0 0 0 0.5 0.5h1a0.5 0.5 0 0 1 0.5 0.5a0.5 0.5 0 0 1 -0.5 0.5h-1a0.5 0.5 0 0 0 -0.5 0.5a0.5 0.5 0 0 0 0.5 0.5a0.5 0.5 0 0 1 0.5 0.5a0.5 0.5 0 0 1 -0.5 0.5a0.5 0.5 0 0 0 -0.5 0.5v1a0.5 0.5 0 0 1 -0.5 0.5a0.5 0.5 0 0 1 -0.5 -0.5a0.5 0.5 0 0 0 -0.5 -0.5h-1a0.5 0.5 0 0 0 -0.5 0.5a0.5 0.5 0 0 1 -0.5 0.5a0.5 0.5 0 0 1 -0.5 -0.5a0.5 0.5 0 0 0 -0.5 -0.5a0.5 0.5 0 0 0 -0.5 0.5a0.5 0.5 0 0 0 0.5 0.5a0.5 0.5 0 0 1 0.5 0.5a0.5 0.5 0 0 1 -0.5 0.5h-1a0.5 0.5 0 0 1 -0.5 -0.5a0.5 0.5 0 0 0 -0.5 -0.5a0.5 0.5 0 0 1 -0.5 -0.5a0.5 0.5 0 0 1 0.5 -0.5a0.5 0.5 0 0 0 0.5 -0.5a0.5 0.5 0 0 1 0.5 -0.5a0.5 0.5 0 0 0 0.5 -0.5a0.5 0.5 0 0 0 -0.5 -0.5h-1a0.5 0.5 0 0 1 -0.5 -0.5a0.5 0.5 0 0 0 -0.5 -0.5a0.5 0.5 0 0 1 -0.5 -0.5a0.5 0.5 0 0 0 -0.5 -0.5a0.5 0.5 0 0 1 -0.5 -0.5a0.5 0.5 0 0 1 0.5 -0.5h1a0.5 0.5 0 0 1 0.5 0.5a0.5 0.5 0 0 0 0.5 0.5a0.5 0.5 0 0 0 0.5 -0.5a0.5 0.5 0 0 1 0.5 -0.5a0.5 0.5 0 0 0 0.5 -0.5v-2a0.5 0.5 0 0 1 0.5 -0.5zM37.5 20h1a0.5 0.5 0 0 1 0.5 0.5a0.5 0.5 0 0 1 -0.5 0.5h-1a0.5 0.5 0 0 1 -0.5 -0.5a0.5 0.5 0 0 1 0.5 -0.5zM1.5 21a0.5 0.5 0 0 1 0.5 0.5v2a0.5 0.5 0 0 1 -0.5 0.5a0.5 0.5 0 0 1 -0.5 -0.5v-2a0.5 0.5 0 0 1 0.5 -0.5zM9.5 21h3a0.5 0.5 0 0 1 0.5 0.5a0.5 0.5 0 0 1 -0.5 0.5h-1a0.5 0.5 0 0 0 -0.5 0.5a0.5 0.5 0 0 0 0.5 0.5a0.5 0.5 0 0 1 0.5 0.5v1a0.5 0.5 0 0 1 -0.5 0.5a0.5 0.5 0 0 1 -0.5 -0.5a0.5 0.5 0 0 0 -0.5 -0.5a0.5 0.5 0 0 0 -0.5 0.5a0.5 0.5 0 0 0 0.5 0.5a0.5 0.5 0 0 1 0.5 0.5a0.5 0.5 0 0 0 0.5 0.5a0.5 0.5 0 0 1 0.5 0.5a0.5 0.5 0 0 1 -0.5 0.5h-1a0.5 0.5 0 0 0 -0.5 0.5a0.5 0.5 0 0 1 -0.5 0.5h-4a0.5 0.5 0 0 0 -0.5 0.5v1a0.5 0.5 0 0 1 -0.5 0.5a0.5 0.5 0 0 1 -0.5 -0.5a0.5 0.5 0 0 0 -0.5 -0.5h-1a0.5 0.5 0 0 0 -0.5 0.5a0.5 0.5 0 0 1 -0.5 0.5a0.5 0.5 0 0 1 -0.5 -0.5v-1a0.5 0.5 0 0 1 0.5 -0.5h2a0.5 0.5 0 0 0 0.5 -0.5a0.5 0.5 0 0 1 0.5 -0.5a0.5 0.5 0 0 0 0.5 -0.5a0.5 0.5 0 0 0 -0.5 -0.5a0.5 0.5 0 0 1 -0.5 -0.5a0.5 0.5 0 0 1 0.5 -0.5a0.5 0.5 0 0 0 0.5 -0.5v-1a0.5 0.5 0 0 1 0.5 -0.5h3a0.5 0.5 0 0 0 0.5 -0.5v-1a0.5 0.5 0 0 1 0.5 -0.5zM16.5 21h1a0.5 0.5 0 0 1 0.5 0.5a0.5 0.5 0 0 0 0.5 0.5a0.5 0.5 0 0 1 0.5 0.5a0.5 0.5 0 0 1 -0.5 0.5h-3a0.5 0.5 0 0 0 -0.5 0.5a0.5 0.5 0 0 1 -0.5 0.5a0.5 0.5 0 0 1 -0.5 -0.5a0.5 0.5 0 0 0 -0.5 -0.5a0.5 0.5 0 0 1 -0.5 -0.5a0.5 0.5 0 0 1 0.5 -0.5h2a0.5 0.5 0 0 0 0.5 -0.5a0.5 0.5 0 0 1 0.5 -0.5zM3.5 22h1a0.5 0.5 0 0 1 0.5 0.5a0.5 0.5 0 0 1 -0.5 0.5a0.5 0.5 0 0 0 -0.5 0.5v1a0.5 0.5 0 0 1 -0.5 0.5h-1a0.5 0.5 0 0 1 -0.5 -0.5a0.5 0.5 0 0 1 0.5 -0.5a0.5 0.5 0 0 0 0.5 -0.5v-1a0.5 0.5 0 0 1 0.5 -0.5zM36.5 22a0.5 0.5 0 0 1 0.5 0.5v1a0.5 0.5 0 0 1 -0.5 0.5a0.5 0.5 0 0 0 -0.5 0.5a0.5 0.5 0 0 1 -0.5 0.5a0.5 0.5 0 0 0 -0.5 0.5v1a0.5 0.5 0 0 1 -0.5 0.5a0.5 0.5 0 0 1 -0.5 -0.5a0.5 0.5 0 0 0 -0.5 -0.5h-1a0.5 0.5 0 0 0 -0.5 0.5v2a0.5 0.5 0 0 0 0.5 0.5a0.5 0.5 0 0 0 0.5 -0.5v-1a0.5 0.5 0 0 1 0.5 -0.5a0.5 0.5 0 0 1 0.5 0.5v2a0.5 0.5 0 0 1 -0.5 0.5a0.5 0.5 0 0 0 -0.5 0.5v1a0.5 0.5 0 0 0 0.5 0.5a0.5 0.5 0 0 1 0.5 0.5a0.5 0.5 0 0 1 -0.5 0.5a0.5 0.5 0 0 0 -0.5 0.5v1a0.5 0.5 0 0 1 -0.5 0.5a0.5 0.5 0 0 0 -0.5 0.5a0.5 0.5 0 0 1 -0.5 0.5h-1a0.5 0.5 0 0 0 -0.5 0.5a0.5 0.5 0 0 1 -0.5 0.5h-1a0.5 0.5 0 0 0 -0.5 0.5v2a0.5 0.5 0 0 1 -0.5 0.5h-2a0.5 0.5 0 0 0 -0.5 0.5a0.5 0.5 0 0 0 0.5 0.5h2a0.5 0.5 0 0 0 0.5 -0.5a0.5 0.5 0 0 1 0.5 -0.5h2a0.5 0.5 0 0 1 0.5 0.5a0.5 0.5 0 0 1 -0.5 0.5h-1a0.5 0.5 0 0 0 -0.5 0.5v1a0.5 0.5 0 0 1 -0.5 0.5a0.5 0.5 0 0 0 -0.5 0.5a0.5 0.5 0 0 0 0.5 0.5h1a0.5 0.5 0 0 1 0.5 0.5a0.5 0.5 0 0 0 0.5 0.5a0.5 0.5 0 0 1 0.5 0.5a0.5 0.5 0 0 1 -0.5 0.5a0.5 0.5 0 0 0 -0.5 0.5v1a0.5 0.5 0 0 0 0.5 0.5a0.5 0.5 0 0 1 0.5 0.5a0.5 0.5 0 0 0 0.5 0.5h1a0.5 0.5 0 0 1 0.5 0.5a0.5 0.5 0 0 1 -0.5 0.5h-3a0.5 0.5 0 0 1 -0.5 -0.5v-4a0.5 0.5 0 0 0 -0.5 -0.5a0.5 0.5 0 0 0 -0.5 0.5a0.5 0.5 0 0 1 -0.5 0.5a0.5 0.5 0 0 0 -0.5 0.5a0.5 0.5 0 0 1 -0.5 0.5h-3a0.5 0.5 0 0 1 -0.5 -0.5a0.5 0.5 0 0 0 -0.5 -0.5a0.5 0.5 0 0 1 -0.5 -0.5v-1a0.5 0.5 0 0 0 -0.5 -0.5a0.5 0.5 0 0 1 -0.5 -0.5v-1a0.5 0.5 0 0 1 0.5 -0.5a0.5 0.5 0 0 1 0.5 0.5a0.5 0.5 0 0 0 0.5 0.5a0.5 0.5 0 0 0 0.5 -0.5v-1a0.5 0.5 0 0 0 -0.5 -0.5a0.5 0.5 0 0 1 -0.5 -0.5v-1a0.5 0.5 0 0 0 -0.5 -0.5a0.5 0.5 0 0 0 -0.5 0.5a0.5 0.5 0 0 1 -0.5 0.5a0.5 0.5 0 0 1 -0.5 -0.5v-1a0.5 0.5 0 0 0 -0.5 -0.5a0.5 0.5 0 0 1 -0.5 -0.5a0.5 0.5 0 0 0 -0.5 -0.5a0.5 0.5 0 0 1 -0.5 -0.5a0.5 0.5 0 0 1 0.5 -0.5a0.5 0.5 0 0 0 0.5 -0.5a0.5 0.5 0 0 1 0.5 -0.5a0.5 0.5 0 0 0 0.5 -0.5a0.5 0.5 0 0 0 -0.5 -0.5a0.5 0.5 0 0 1 -0.5 -0.5v-2a0.5 0.5 0 0 0 -0.5 -0.5a0.5 0.5 0 0 1 -0.5 -0.5a0.5 0.5 0 0 1 0.5 -0.5h1a0.5 0.5 0 0 1 0.5 0.5a0.5 0.5 0 0 0 0.5 0.5h1a0.5 0.5 0 0 1 0.5 0.5a0.5 0.5 0 0 0 0.5 0.5a0.5 0.5 0 0 0 0.5 -0.5a0.5 0.5 0 0 1 0.5 -0.5h1a0.5 0.5 0 0 0 0.5 -0.5a0.5 0.5 0 0 1 0.5 -0.5a0.5 0.5 0 0 1 0.5 0.5v1a0.5 0.5 0 0 1 -0.5 0.5h-1a0.5 0.5 0 0 0 -0.5 0.5v1a0.5 0.5 0 0 1 -0.5 0.5a0.5 0.5 0 0 1 -0.5 -0.5a0.5 0.5 0 0 0 -0.5 -0.5a0.5 0.5 0 0 0 -0.5 0.5v1a0.5 0.5 0 0 1 -0.5 0.5a0.5 0.5 0 0 0 -0.5 0.5v2a0.5 0.5 0 0 0 0.5 0.5a0.5 0.5 0 0 0 0.5 -0.5v-2a0.5 0.5 0 0 1 0.5 -0.5a0.5 0.5 0 0 1 0.5 0.5v3a0.5 0.5 0 0 0 0.5 0.5a0.5 0.5 0 0 0 0.5 -0.5a0.5 0.5 0 0 1 0.5 -0.5a0.5 0.5 0 0 1 0.5 0.5a0.5 0.5 0 0 0 0.5 0.5h1a0.5 0.5 0 0 0 0.5 -0.5v-2a0.5 0.5 0 0 1 0.5 -0.5h1a0.5 0.5 0 0 0 0.5 -0.5a0.5 0.5 0 0 1 0.5 -0.5a0.5 0.5 0 0 0 0.5 -0.5a0.5 0.5 0 0 0 -0.5 -0.5h-1a0.5 0.5 0 0 0 -0.5 0.5a0.5 0.5 0 0 1 -0.5 0.5a0.5 0.5 0 0 0 -0.5 0.5a0.5 0.5 0 0 1 -0.5 0.5a0.5 0.5 0 0 0 -0.5 0.5v1a0.5 0.5 0 0 1 -0.5 0.5a0.5 0.5 0 0 1 -0.5 -0.5a0.5 0.5 0 0 0 -0.5 -0.5a0.5 0.5 0 0 1 -0.5 -0.5a0.5 0.5 0 0 1 0.5 -0.5a0.5 0.5 0 0 0 0.5 -0.5v-1a0.5 0.5 0 0 1 0.5 -0.5a0.5 0.5 0 0 0 0.5 -0.5v-1a0.5 0.5 0 0 1 0.5 -0.5a0.5 0.5 0 0 1 0.5 0.5a0.5 0.5 0 0 0 0.5 0.5a0.5 0.5 0 0 0 0.5 -0.5a0.5 0.5 0 0 1 0.5 -0.5h1a0.5 0.5 0 0 1 0.5 0.5a0.5 0.5 0 0 0 0.5 0.5h1a0.5 0.5 0 0 0 0.5 -0.5v-1a0.5 0.5 0 0 0 -0.5 -0.5a0.5 0.5 0 0 1 -0.5 -0.5v-3a0.5 0.5 0 0 0 -0.5 -0.5a0.5 0.5 0 0 1 -0.5 -0.5v-1a0.5 0.5 0 0 1 0.5 -0.5h1a0.5 0.5 0 0 0 0.5 -0.5a0.5 0.5 0 0 1 0.5 -0.5a0.5 0.5 0 0 1 0.5 0.5a0.5 0.5 0 0 0 0.5 0.5a0.5 0.5 0 0 0 0.5 -0.5a0.5 0.5 0 0 1 0.5 -0.5a0.5 0.5 0 0 0 0.5 -0.5a0.5 0.5 0 0 1 0.5 -0.5a0.5 0.5 0 0 0 0.5 -0.5a0.5 0.5 0 0 1 0.5 -0.5zM42.5 22h1a0.5 0.5 0 0 1 0.5 0.5a0.5 0.5 0 0 0 0.5 0.5h2a0.5 0.5 0 0 1 0.5 0.5a0.5 0.5 0 0 0 0.5 0.5h2a0.5 0.5 0 0 1 0.5 0.5a0.5 0.5 0 0 1 -0.5 0.5a0.5 0.5 0 0 0 -0.5 0.5a0.5 0.5 0 0 0 0.5 0.5a0.5 0.5 0 0 1 0.5 0.5a0.5 0.5 0 0 1 -0.5 0.5a0.5 0.5 0 0 0 -0.5 0.5a0.5 0.5 0 0 0 0.5 0.5a0.5 0.5 0 0 1 0.5 0.5a0.5 0.5 0 0 1 -0.5 0.5a0.5 0.5 0 0 0 -0.5 0.5a0.5 0.5 0 0 1 -0.5 0.5a0.5 0.5 0 0 0 -0.5 0.5a0.5 0.5 0 0 0 0.5 0.5a0.5 0.5 0 0 0 0.5 -0.5a0.5 0.5 0 0 1 0.5 -0.5a0.5 0.5 0 0 1 0.5 0.5v2a0.5 0.5 0 0 1 -0.5 0.5a0.5 0.5 0 0 0 -0.5 0.5v2a0.5 0.5 0 0 1 -0.5 0.5a0.5 0.5 0 0 0 -0.5 0.5v1a0.5 0.5 0 0 1 -0.5 0.5a0.5 0.5 0 0 0 -0.5 0.5a0.5 0.5 0 0 1 -0.5 0.5h-1a0.5 0.5 0 0 1 -0.5 -0.5v-1a0.5 0.5 0 0 0 -0.5 -0.5a0.5 0.5 0 0 0 -0.5 0.5a0.5 0.5 0 0 1 -0.5 0.5a0.5 0.5 0 0 1 -0.5 -0.5v-1a0.5 0.5 0 0 1 0.5 -0.5a0.5 0.5 0 0 0 0.5 -0.5v-1a0.5 0.5 0 0 0 -0.5 -0.5h-1a0.5 0.5 0 0 1 -0.5 -0.5a0.5 0.5 0 0 0 -0.5 -0.5h-2a0.5 0.5 0 0 1 -0.5 -0.5v-1a0.5 0.5 0 0 1 0.5 -0.5h1a0.5 0.5 0 0 1 0.5 0.5a0.5 0.5 0 0 0 0.5 0.5a0.5 0.5 0 0 0 0.5 -0.5a0.5 0.5 0 0 0 -0.5 -0.5a0.5 0.5 0 0 1 -0.5 -0.5a0.5 0.5 0 0 1 0.5 -0.5a0.5 0.5 0 0 0 0.5 -0.5v-1a0.5 0.5 0 0 0 -0.5 -0.5a0.5 0.5 0 0 1 -0.5 -0.5v-4a0.5 0.5 0 0 1 0.5 -0.5a0.5 0.5 0 0 0 0.5 -0.5a0.5 0.5 0 0 1 0.5 -0.5zM6 24.5v2a0.5 0.5 0 0 0 0.5 0.5h2a0.5 0.5 0 0 0 0.5 -0.5v-2a0.5 0.5 0 0 0 -0.5 -0.5h-2a0.5 0.5 0 0 0 -0.5 0.5zM13.5 24a0.5 0.5 0 0 1 0.5 0.5a0.5 0.5 0 0 0 0.5 0.5a0.5 0.5 0 0 0 0.5 -0.5a0.5 0.5 0 0 1 0.5 -0.5h1a0.5 0.5 0 0 1 0.5 0.5a0.5 0.5 0 0 1 -0.5 0.5a0.5 0.5 0 0 0 -0.5 0.5a0.5 0.5 0 0 1 -0.5 0.5a0.5 0.5 0 0 0 -0.5 0.5a0.5 0.5 0 0 0 0.5 0.5a0.5 0.5 0 0 1 0.5 0.5v2a0.5 0.5 0 0 0 0.5 0.5a0.5 0.5 0 0 1 0.5 0.5a0.5 0.5 0 0 1 -0.5 0.5h-1a0.5 0.5 0 0 1 -0.5 -0.5v-2a0.5 0.5 0 0 0 -0.5 -0.5a0.5 0.5 0 0 1 -0.5 -0.5a0.5 0.5 0 0 0 -0.5 -0.5a0.5 0.5 0 0 1 -0.5 -0.5a0.5 0.5 0 0 0 -0.5 -0.5a0.5 0.5 0 0 1 -0.5 -0.5a0.5 0.5 0 0 1 0.5 -0.5a0.5 0.5 0 0 0 0.5 -0.5a0.5 0.5 0 0 1 0.5 -0.5zM24 24.5v2a0.5 0.5 0 0 0 0.5 0.5h2a0.5 0.5 0 0 0 0.5 -0.5v-2a0.5 0.5 0 0 0 -0.5 -0.5h-2a0.5 0.5 0 0 0 -0.5 0.5zM37.5 24a0.5 0.5 0 0 1 0.5 0.5v1a0.5 0.5 0 0 0 0.5 0.5a0.5 0.5 0 0 0 0.5 -0.5v-1a0.5 0.5 0 0 1 0.5 -0.5a0.5 0.5 0 0 1 0.5 0.5v3a0.5 0.5 0 0 1 -0.5 0.5a0.5 0.5 0 0 0 -0.5 0.5a0.5 0.5 0 0 1 -0.5 0.5a0.5 0.5 0 0 1 -0.5 -0.5a0.5 0.5 0 0 0 -0.5 -0.5a0.5 0.5 0 0 0 -0.5 0.5a0.5 0.5 0 0 1 -0.5 0.5a0.5 0.5 0 0 1 -0.5 -0.5v-1a0.5 0.5 0 0 1 0.5 -0.5a0.5 0.5 0 0 0 0.5 -0.5v-2a0.5 0.5 0 0 1 0.5 -0.5zM42 24.5v2a0.5 0.5 0 0 0 0.5 0.5h2a0.5 0.5 0 0 0 0.5 -0.5v-2a0.5 0.5 0 0 0 -0.5 -0.5h-2a0.5 0.5 0 0 0 -0.5 0.5zM1.5 25a0.5 0.5 0 0 1 0.5 0.5v1a0.5 0.5 0 0 1 -0.5 0.5a0.5 0.5 0 0 1 -0.5 -0.5v-1a0.5 0.5 0 0 1 0.5 -0.5zM47 26.5a0.5 0.5 0 0 0 0.5 0.5a0.5 0.5 0 0 0 0.5 -0.5a0.5 0.5 0 0 0 -0.5 -0.5a0.5 0.5 0 0 0 -0.5 0.5zM29.5 27a0.5 0.5 0 0 1 0.5 0.5v1a0.5 0.5 0 0 1 -0.5 0.5a0.5 0.5 0 0 1 -0.5 -0.5v-1a0.5 0.5 0 0 1 0.5 -0.5zM10.5 28h2a0.5 0.5 0 0 1 0.5 0.5a0.5 0.5 0 0 1 -0.5 0.5h-1a0.5 0.5 0 0 0 -0.5 0.5v1a0.5 0.5 0 0 0 0.5 0.5h1a0.5 0.5 0 0 0 0.5 -0.5a0.5 0.5 0 0 1 0.5 -0.5a0.5 0.5 0 0 1 0.5 0.5v1a0.5 0.5 0 0 1 -0.5 0.5a0.5 0.5 0 0 0 -0.5 0.5a0.5 0.5 0 0 0 0.5 0.5a0.5 0.5 0 0 1 0.5 0.5v1a0.5 0.5 0 0 1 -0.5 0.5a0.5 0.5 0 0 1 -0.5 -0.5a0.5 0.5 0 0 0 -0.5 -0.5a0.5 0.5 0 0 1 -0.5 -0.5v-1a0.5 0.5 0 0 0 -0.5 -0.5h-1a0.5 0.5 0 0 1 -0.5 -0.5a0.5 0.5 0 0 0 -0.5 -0.5a0.5 0.5 0 0 1 -0.5 -0.5a0.5 0.5 0 0 0 -0.5 -0.5h-1a0.5 0.5 0 0 0 -0.5 0.5a0.5 0.5 0 0 0 0.5 0.5h1a0.5 0.5 0 0 1 0.5 0.5v1a0.5 0.5 0 0 1 -0.5 0.5a0.5 0.5 0 0 1 -0.5 -0.5a0.5 0.5 0 0 0 -0.5 -0.5a0.5 0.5 0 0 0 -0.5 0.5a0.5 0.5 0 0 0 0.5 0.5a0.5 0.5 0 0 1 0.5 0.5a0.5 0.5 0 0 1 -0.5 0.5h-1a0.5 0.5 0 0 1 -0.5 -0.5v-1a0.5 0.5 0 0 0 -0.5 -0.5a0.5 0.5 0 0 1 -0.5 -0.5a0.5 0.5 0 0 1 0.5 -0.5a0.5 0.5 0 0 0 0.5 -0.5v-1a0.5 0.5 0 0 1 0.5 -0.5h3a0.5 0.5 0 0 0 0.5 -0.5a0.5 0.5 0 0 1 0.5 -0.5zM43 28.5v2a0.5 0.5 0 0 0 0.5 0.5h1a0.5 0.5 0 0 1 0.5 0.5a0.5 0.5 0 0 1 -0.5 0.5a0.5 0.5 0 0 0 -0.5 0.5a0.5 0.5 0 0 0 0.5 0.5a0.5 0.5 0 0 0 0.5 -0.5a0.5 0.5 0 0 1 0.5 -0.5a0.5 0.5 0 0 1 0.5 0.5a0.5 0.5 0 0 0 0.5 0.5a0.5 0.5 0 0 1 0.5 0.5v1a0.5 0.5 0 0 0 0.5 0.5a0.5 0.5 0 0 0 0.5 -0.5v-2a0.5 0.5 0 0 0 -0.5 -0.5h-1a0.5 0.5 0 0 1 -0.5 -0.5a0.5 0.5 0 0 1 0.5 -0.5a0.5 0.5 0 0 0 0.5 -0.5a0.5 0.5 0 0 0 -0.5 -0.5a0.5 0.5 0 0 1 -0.5 -0.5a0.5 0.5 0 0 1 0.5 -0.5h1a0.5 0.5 0 0 0 0.5 -0.5a0.5 0.5 0 0 0 -0.5 -0.5h-2a0.5 0.5 0 0 0 -0.5 0.5v1a0.5 0.5 0 0 1 -0.5 0.5a0.5 0.5 0 0 1 -0.5 -0.5v-1a0.5 0.5 0 0 0 -0.5 -0.5a0.5 0.5 0 0 0 -0.5 0.5zM35.5 30h2a0.5 0.5 0 0 1 0.5 0.5a0.5 0.5 0 0 1 -0.5 0.5a0.5 0.5 0 0 0 -0.5 0.5v1a0.5 0.5 0 0 1 -0.5 0.5a0.5 0.5 0 0 0 -0.5 0.5a0.5 0.5 0 0 1 -0.5 0.5h-1a0.5 0.5 0 0 1 -0.5 -0.5a0.5 0.5 0 0 1 0.5 -0.5a0.5 0.5 0 0 0 0.5 -0.5a0.5 0.5 0 0 0 -0.5 -0.5a0.5 0.5 0 0 1 -0.5 -0.5a0.5 0.5 0 0 1 0.5 -0.5a0.5 0.5 0 0 0 0.5 -0.5a0.5 0.5 0 0 1 0.5 -0.5zM16.5 32a0.5 0.5 0 0 1 0.5 0.5v1a0.5 0.5 0 0 1 -0.5 0.5a0.5 0.5 0 0 0 -0.5 0.5a0.5 0.5 0 0 1 -0.5 0.5a0.5 0.5 0 0 1 -0.5 -0.5v-1a0.5 0.5 0 0 1 0.5 -0.5a0.5 0.5 0 0 0 0.5 -0.5a0.5 0.5 0 0 1 0.5 -0.5zM3.5 34h2a0.5 0.5 0 0 1 0.5 0.5v1a0.5 0.5 0 0 1 -0.5 0.5a0.5 0.5 0 0 0 -0.5 0.5a0.5 0.5 0 0 1 -0.5 0.5a0.5 0.5 0 0 1 -0.5 -0.5a0.5 0.5 0 0 0 -0.5 -0.5a0.5 0.5 0 0 1 -0.5 -0.5v-1a0.5 0.5 0 0 1 0.5 -0.5zM8.5 34a0.5 0.5 0 0 1 0.5 0.5a0.5 0.5 0 0 0 0.5 0.5a0.5 0.5 0 0 1 0.5 0.5a0.5 0.5 0 0 1 -0.5 0.5h-2a0.5 0.5 0 0 1 -0.5 -0.5a0.5 0.5 0 0 1 0.5 -0.5a0.5 0.5 0 0 0 0.5 -0.5a0.5 0.5 0 0 1 0.5 -0.5zM45 34.5a0.5 0.5 0 0 0 0.5 0.5a0.5 0.5 0 0 0 0.5 -0.5a0.5 0.5 0 0 0 -0.5 -0.5a0.5 0.5 0 0 0 -0.5 0.5zM1.5 35a0.5 0.5 0 0 1 0.5 0.5a0.5 0.5 0 0 0 0.5 0.5a0.5 0.5 0 0 1 0.5 0.5a0.5 0.5 0 0 1 -0.5 0.5a0.5 0.5 0 0 0 -0.5 0.5a0.5 0.5 0 0 0 0.5 0.5a0.5 0.5 0 0 0 0.5 -0.5a0.5 0.5 0 0 1 0.5 -0.5a0.5 0.5 0 0 1 0.5 0.5v1a0.5 0.5 0 0 1 -0.5 0.5a0.5 0.5 0 0 0 -0.5 0.5a0.5 0.5 0 0 0 0.5 0.5h1a0.5 0.5 0 0 1 0.5 0.5a0.5 0.5 0 0 1 -0.5 0.5a0.5 0.5 0 0 0 -0.5 0.5a0.5 0.5 0 0 1 -0.5 0.5h-2a0.5 0.5 0 0 1 -0.5 -0.5a0.5 0.5 0 0 1 0.5 -0.5a0.5 0.5 0 0 0 0.5 -0.5v-1a0.5 0.5 0 0 0 -0.5 -0.5a0.5 0.5 0 0 1 -0.5 -0.5v-3a0.5 0.5 0 0 1 0.5 -0.5zM16.5 35h1a0.5 0.5 0 0 1 0.5 0.5a0.5 0.5 0 0 1 -0.5 0.5a0.5 0.5 0 0 0 -0.5 0.5a0.5 0.5 0 0 0 0.5 0.5a0.5 0.5 0 0 1 0.5 0.5v1a0.5 0.5 0 0 1 -0.5 0.5h-1a0.5 0.5 0 0 1 -0.5 -0.5v-3a0.5 0.5 0 0 1 0.5 -0.5zM33.5 35a0.5 0.5 0 0 1 0.5 0.5a0.5 0.5 0 0 0 0.5 0.5a0.5 0.5 0 0 1 0.5 0.5a0.5 0.5 0 0 1 -0.5 0.5h-1a0.5 0.5 0 0 1 -0.5 -0.5v-1a0.5 0.5 0 0 1 0.5 -0.5zM35.5 35h1a0.5 0.5 0 0 1 0.5 0.5a0.5 0.5 0 0 1 -0.5 0.5h-1a0.5 0.5 0 0 1 -0.5 -0.5a0.5 0.5 0 0 1 0.5 -0.5zM38.5 35a0.5 0.5 0 0 1 0.5 0.5a0.5 0.5 0 0 0 0.5 0.5h1a0.5 0.5 0 0 1 0.5 0.5a0.5 0.5 0 0 0 0.5 0.5a0.5 0.5 0 0 1 0.5 0.5a0.5 0.5 0 0 1 -0.5 0.5a0.5 0.5 0 0 0 -0.5 0.5a0.5 0.5 0 0 1 -0.5 0.5a0.5 0.5 0 0 0 -0.5 0.5a0.5 0.5 0 0 1 -0.5 0.5a0.5 0.5 0 0 1 -0.5 -0.5a0.5 0.5 0 0 0 -0.5 -0.5a0.5 0.5 0 0 1 -0.5 -0.5a0.5 0.5 0 0 1 0.5 -0.5h1a0.5 0.5 0 0 0 0.5 -0.5a0.5 0.5 0 0 0 -0.5 -0.5h-1a0.5 0.5 0 0 0 -0.5 0.5a0.5 0.5 0 0 1 -0.5 0.5a0.5 0.5 0 0 0 -0.5 0.5v1a0.5 0.5 0 0 1 -0.5 0.5a0.5 0.5 0 0 1 -0.5 -0.5v-2a0.5 0.5 0 0 1 0.5 -0.5a0.5 0.5 0 0 0 0.5 -0.5a0.5 0.5 0 0 1 0.5 -0.5a0.5 0.5 0 0 0 0.5 -0.5a0.5 0.5 0 0 1 0.5 -0.5zM11.5 36a0.5 0.5 0 0 1 0.5 0.5a0.5 0.5 0 0 0 0.5 0.5a0.5 0.5 0 0 1 0.5 0.5v1a0.5 0.5 0 0 1 -0.5 0.5a0.5 0.5 0 0 1 -0.5 -0.5a0.5 0.5 0 0 0 -0.5 -0.5a0.5 0.5 0 0 1 -0.5 -0.5v-1a0.5 0.5 0 0 1 0.5 -0.5zM13.5 36h1a0.5 0.5 0 0 1 0.5 0.5v2a0.5 0.5 0 0 1 -0.5 0.5a0.5 0.5 0 0 1 -0.5 -0.5v-1a0.5 0.5 0 0 0 -0.5 -0.5a0.5 0.5 0 0 1 -0.5 -0.5a0.5 0.5 0 0 1 0.5 -0.5zM49.5 36a0.5 0.5 0 0 1 0.5 0.5v2a0.5 0.5 0 0 1 -0.5 0.5a0.5 0.5 0 0 0 -0.5 0.5a0.5 0.5 0 0 1 -0.5 0.5h-1a0.5 0.5 0 0 1 -0.5 -0.5a0.5 0.5 0 0 1 0.5 -0.5a0.5 0.5 0 0 0 0.5 -0.5a0.5 0.5 0 0 1 0.5 -0.5a0.5 0.5 0 0 0 0.5 -0.5v-1a0.5 0.5 0 0 1 0.5 -0.5zM6.5 37h1a0.5 0.5 0 0 1 0.5 0.5a0.5 0.5 0 0 1 -0.5 0.5h-1a0.5 0.5 0 0 1 -0.5 -0.5a0.5 0.5 0 0 1 0.5 -0.5zM9.5 37a0.5 0.5 0 0 1 0.5 0.5a0.5 0.5 0 0 0 0.5 0.5a0.5 0.5 0 0 1 0.5 0.5a0.5 0.5 0 0 1 -0.5 0.5h-1a0.5 0.5 0 0 1 -0.5 -0.5v-1a0.5 0.5 0 0 1 0.5 -0.5zM32.5 37a0.5 0.5 0 0 1 0.5 0.5a0.5 0.5 0 0 0 0.5 0.5h1a0.5 0.5 0 0 1 0.5 0.5v1a0.5 0.5 0 0 1 -0.5 0.5a0.5 0.5 0 0 1 -0.5 -0.5a0.5 0.5 0 0 0 -0.5 -0.5h-1a0.5 0.5 0 0 1 -0.5 -0.5v-1a0.5 0.5 0 0 1 0.5 -0.5zM6.5 39h1a0.5 0.5 0 0 1 0.5 0.5a0.5 0.5 0 0 1 -0.5 0.5h-1a0.5 0.5 0 0 1 -0.5 -0.5a0.5 0.5 0 0 1 0.5 -0.5zM44.5 39a0.5 0.5 0 0 1 0.5 0.5v1a0.5 0.5 0 0 0 0.5 0.5a0.5 0.5 0 0 1 0.5 0.5a0.5 0.5 0 0 0 0.5 0.5a0.5 0.5 0 0 0 0.5 -0.5a0.5 0.5 0 0 1 0.5 -0.5a0.5 0.5 0 0 1 0.5 0.5v1a0.5 0.5 0 0 1 -0.5 0.5a0.5 0.5 0 0 0 -0.5 0.5v2a0.5 0.5 0 0 1 -0.5 0.5a0.5 0.5 0 0 0 -0.5 0.5v1a0.5 0.5 0 0 0 0.5 0.5h1a0.5 0.5 0 0 1 0.5 0.5a0.5 0.5 0 0 0 0.5 0.5h1a0.5 0.5 0 0 1 0.5 0.5a0.5 0.5 0 0 1 -0.5 0.5h-3a0.5 0.5 0 0 1 -0.5 -0.5a0.5 0.5 0 0 0 -0.5 -0.5a0.5 0.5 0 0 1 -0.5 -0.5a0.5 0.5 0 0 0 -0.5 -0.5h-1a0.5 0.5 0 0 0 -0.5 0.5a0.5 0.5 0 0 1 -0.5 0.5h-3a0.5 0.5 0 0 0 -0.5 0.5a0.5 0.5 0 0 1 -0.5 0.5h-2a0.5 0.5 0 0 1 -0.5 -0.5a0.5 0.5 0 0 1 0.5 -0.5a0.5 0.5 0 0 0 0.5 -0.5a0.5 0.5 0 0 1 0.5 -0.5h2a0.5 0.5 0 0 0 0.5 -0.5v-1a0.5 0.5 0 0 1 0.5 -0.5a0.5 0.5 0 0 0 0.5 -0.5v-2a0.5 0.5 0 0 0 -0.5 -0.5a0.5 0.5 0 0 1 -0.5 -0.5a0.5 0.5 0 0 1 0.5 -0.5a0.5 0.5 0 0 0 0.5 -0.5a0.5 0.5 0 0 1 0.5 -0.5a0.5 0.5 0 0 0 0.5 -0.5a0.5 0.5 0 0 1 0.5 -0.5a0.5 0.5 0 0 1 0.5 0.5a0.5 0.5 0 0 0 0.5 0.5a0.5 0.5 0 0 0 0.5 -0.5v-1a0.5 0.5 0 0 1 0.5 -0.5zM8.5 40h3a0.5 0.5 0 0 1 0.5 0.5a0.5 0.5 0 0 1 -0.5 0.5a0.5 0.5 0 0 0 -0.5 0.5a0.5 0.5 0 0 1 -0.5 0.5a0.5 0.5 0 0 0 -0.5 0.5v1a0.5 0.5 0 0 1 -0.5 0.5a0.5 0.5 0 0 1 -0.5 -0.5v-1a0.5 0.5 0 0 0 -0.5 -0.5h-1a0.5 0.5 0 0 1 -0.5 -0.5a0.5 0.5 0 0 1 0.5 -0.5a0.5 0.5 0 0 0 0.5 -0.5a0.5 0.5 0 0 1 0.5 -0.5zM13.5 40h4a0.5 0.5 0 0 1 0.5 0.5v2a0.5 0.5 0 0 1 -0.5 0.5a0.5 0.5 0 0 1 -0.5 -0.5a0.5 0.5 0 0 0 -0.5 -0.5a0.5 0.5 0 0 1 -0.5 -0.5a0.5 0.5 0 0 0 -0.5 -0.5a0.5 0.5 0 0 0 -0.5 0.5a0.5 0.5 0 0 1 -0.5 0.5a0.5 0.5 0 0 1 -0.5 -0.5a0.5 0.5 0 0 0 -0.5 -0.5a0.5 0.5 0 0 1 -0.5 -0.5a0.5 0.5 0 0 1 0.5 -0.5zM32.5 40h1a0.5 0.5 0 0 1 0.5 0.5v1a0.5 0.5 0 0 0 0.5 0.5a0.5 0.5 0 0 1 0.5 0.5v1a0.5 0.5 0 0 0 0.5 0.5a0.5 0.5 0 0 1 0.5 0.5a0.5 0.5 0 0 1 -0.5 0.5h-1a0.5 0.5 0 0 1 -0.5 -0.5a0.5 0.5 0 0 0 -0.5 -0.5a0.5 0.5 0 0 0 -0.5 0.5v1a0.5 0.5 0 0 0 0.5 0.5a0.5 0.5 0 0 1 0.5 0.5a0.5 0.5 0 0 1 -0.5 0.5a0.5 0.5 0 0 0 -0.5 0.5a0.5 0.5 0 0 1 -0.5 0.5h-1a0.5 0.5 0 0 1 -0.5 -0.5a0.5 0.5 0 0 1 0.5 -0.5a0.5 0.5 0 0 0 0.5 -0.5v-2a0.5 0.5 0 0 0 -0.5 -0.5a0.5 0.5 0 0 1 -0.5 -0.5a0.5 0.5 0 0 1 0.5 -0.5a0.5 0.5 0 0 0 0.5 -0.5a0.5 0.5 0 0 0 -0.5 -0.5a0.5 0.5 0 0 1 -0.5 -0.5a0.5 0.5 0 0 1 0.5 -0.5a0.5 0.5 0 0 0 0.5 -0.5a0.5 0.5 0 0 1 0.5 -0.5zM35.5 40a0.5 0.5 0 0 1 0.5 0.5a0.5 0.5 0 0 0 0.5 0.5a0.5 0.5 0 0 1 0.5 0.5a0.5 0.5 0 0 0 0.5 0.5a0.5 0.5 0 0 1 0.5 0.5a0.5 0.5 0 0 0 0.5 0.5h1a0.5 0.5 0 0 1 0.5 0.5a0.5 0.5 0 0 1 -0.5 0.5a0.5 0.5 0 0 0 -0.5 0.5a0.5 0.5 0 0 1 -0.5 0.5h-1a0.5 0.5 0 0 1 -0.5 -0.5a0.5 0.5 0 0 0 -0.5 -0.5a0.5 0.5 0 0 1 -0.5 -0.5v-1a0.5 0.5 0 0 0 -0.5 -0.5a0.5 0.5 0 0 1 -0.5 -0.5v-1a0.5 0.5 0 0 1 0.5 -0.5zM38.5 40a0.5 0.5 0 0 1 0.5 0.5a0.5 0.5 0 0 0 0.5 0.5a0.5 0.5 0 0 1 0.5 0.5a0.5 0.5 0 0 1 -0.5 0.5h-1a0.5 0.5 0 0 1 -0.5 -0.5v-1a0.5 0.5 0 0 1 0.5 -0.5zM19.5 41a0.5 0.5 0 0 1 0.5 0.5v1a0.5 0.5 0 0 1 -0.5 0.5a0.5 0.5 0 0 1 -0.5 -0.5v-1a0.5 0.5 0 0 1 0.5 -0.5zM11.5 42a0.5 0.5 0 0 1 0.5 0.5v2a0.5 0.5 0 0 1 -0.5 0.5a0.5 0.5 0 0 0 -0.5 0.5v1a0.5 0.5 0 0 1 -0.5 0.5a0.5 0.5 0 0 0 -0.5 0.5a0.5 0.5 0 0 1 -0.5 0.5a0.5 0.5 0 0 1 -0.5 -0.5v-1a0.5 0.5 0 0 1 0.5 -0.5a0.5 0.5 0 0 0 0.5 -0.5v-1a0.5 0.5 0 0 1 0.5 -0.5a0.5 0.5 0 0 0 0.5 -0.5v-1a0.5 0.5 0 0 1 0.5 -0.5zM13.5 42a0.5 0.5 0 0 1 0.5 0.5v1a0.5 0.5 0 0 1 -0.5 0.5a0.5 0.5 0 0 1 -0.5 -0.5v-1a0.5 0.5 0 0 1 0.5 -0.5zM24 42.5v2a0.5 0.5 0 0 0 0.5 0.5h2a0.5 0.5 0 0 0 0.5 -0.5v-2a0.5 0.5 0 0 0 -0.5 -0.5h-2a0.5 0.5 0 0 0 -0.5 0.5zM42 42.5v2a0.5 0.5 0 0 0 0.5 0.5h2a0.5 0.5 0 0 0 0.5 -0.5v-2a0.5 0.5 0 0 0 -0.5 -0.5h-2a0.5 0.5 0 0 0 -0.5 0.5zM49.5 42a0.5 0.5 0 0 1 0.5 0.5v2a0.5 0.5 0 0 1 -0.5 0.5a0.5 0.5 0 0 0 -0.5 0.5a0.5 0.5 0 0 1 -0.5 0.5a0.5 0.5 0 0 1 -0.5 -0.5v-2a0.5 0.5 0 0 1 0.5 -0.5a0.5 0.5 0 0 0 0.5 -0.5a0.5 0.5 0 0 1 0.5 -0.5zM15.5 43a0.5 0.5 0 0 1 0.5 0.5v1a0.5 0.5 0 0 1 -0.5 0.5h-1a0.5 0.5 0 0 1 -0.5 -0.5a0.5 0.5 0 0 1 0.5 -0.5a0.5 0.5 0 0 0 0.5 -0.5a0.5 0.5 0 0 1 0.5 -0.5zM17.5 45h1a0.5 0.5 0 0 1 0.5 0.5a0.5 0.5 0 0 1 -0.5 0.5a0.5 0.5 0 0 0 -0.5 0.5a0.5 0.5 0 0 0 0.5 0.5a0.5 0.5 0 0 1 0.5 0.5a0.5 0.5 0 0 0 0.5 0.5a0.5 0.5 0 0 1 0.5 0.5a0.5 0.5 0 0 1 -0.5 0.5a0.5 0.5 0 0 0 -0.5 0.5a0.5 0.5 0 0 1 -0.5 0.5h-3a0.5 0.5 0 0 1 -0.5 -0.5a0.5 0.5 0 0 1 0.5 -0.5a0.5 0.5 0 0 0 0.5 -0.5a0.5 0.5 0 0 0 -0.5 -0.5a0.5 0.5 0 0 1 -0.5 -0.5v-1a0.5 0.5 0 0 1 0.5 -0.5a0.5 0.5 0 0 1 0.5 0.5a0.5 0.5 0 0 0 0.5 0.5a0.5 0.5 0 0 0 0.5 -0.5v-1a0.5 0.5 0 0 1 0.5 -0.5zM36.5 45a0.5 0.5 0 0 1 0.5 0.5a0.5 0.5 0 0 0 0.5 0.5h1a0.5 0.5 0 0 1 0.5 0.5a0.5 0.5 0 0 1 -0.5 0.5h-2a0.5 0.5 0 0 1 -0.5 -0.5v-1a0.5 0.5 0 0 1 0.5 -0.5zM43 46.5a0.5 0.5 0 0 0 0.5 0.5a0.5 0.5 0 0 0 0.5 -0.5a0.5 0.5 0 0 0 -0.5 -0.5a0.5 0.5 0 0 0 -0.5 0.5zM13.5 47a0.5 0.5 0 0 1 0.5 0.5a0.5 0.5 0 0 0 0.5 0.5a0.5 0.5 0 0 1 0.5 0.5a0.5 0.5 0 0 1 -0.5 0.5a0.5 0.5 0 0 0 -0.5 0.5a0.5 0.5 0 0 1 -0.5 0.5h-2a0.5 0.5 0 0 1 -0.5 -0.5a0.5 0.5 0 0 0 -0.5 -0.5a0.5 0.5 0 0 1 -0.5 -0.5a0.5 0.5 0 0 1 0.5 -0.5h1a0.5 0.5 0 0 1 0.5 0.5a0.5 0.5 0 0 0 0.5 0.5a0.5 0.5 0 0 0 0.5 -0.5v-1a0.5 0.5 0 0 1 0.5 -0.5zM20.5 47h2a0.5 0.5 0 0 1 0.5 0.5a0.5 0.5 0 0 1 -0.5 0.5h-2a0.5 0.5 0 0 1 -0.5 -0.5a0.5 0.5 0 0 1 0.5 -0.5zM35.5 47a0.5 0.5 0 0 1 0.5 0.5v1a0.5 0.5 0 0 1 -0.5 0.5h-2a0.5 0.5 0 0 1 -0.5 -0.5a0.5 0.5 0 0 1 0.5 -0.5h1a0.5 0.5 0 0 0 0.5 -0.5a0.5 0.5 0 0 1 0.5 -0.5zM41 47.5a0.5 0.5 0 0 0 0.5 0.5a0.5 0.5 0 0 0 0.5 -0.5a0.5 0.5 0 0 0 -0.5 -0.5a0.5 0.5 0 0 0 -0.5 0.5zM26.5 48h1a0.5 0.5 0 0 1 0.5 0.5a0.5 0.5 0 0 1 -0.5 0.5a0.5 0.5 0 0 0 -0.5 0.5a0.5 0.5 0 0 1 -0.5 0.5a0.5 0.5 0 0 1 -0.5 -0.5v-1a0.5 0.5 0 0 1 0.5 -0.5zM21.5 49h1a0.5 0.5 0 0 1 0.5 0.5a0.5 0.5 0 0 1 -0.5 0.5h-1a0.5 0.5 0 0 1 -0.5 -0.5a0.5 0.5 0 0 1 0.5 -0.5z" fill="#032c36"></path></svg>