<svg xmlns="http://www.w3.org/2000/svg" xml:space="preserve" width="32" height="31.999" viewBox="5 -10 32 43.199"><switch style="fill:#032c36;fill-opacity:1" transform="translate(-3.098 -12.4) scale(.47999)"><g style="fill:#032c36;fill-opacity:1"><path d="M50 5C25.3 5 5.2 25.1 5 49.7c-.1 12 4.5 23.4 13 31.9 8.4 8.6 19.7 13.3 31.7 13.4h.3c24.7 0 44.8-20.1 45-44.7C95.1 25.5 75.1 5.2 50 5zm19 59.7c1.2 1.2 1.2 3.1 0 4.3-.6.6-1.4.9-2.1.9-.8 0-1.5-.3-2.1-.9L50 54.3 35.3 69c-.6.6-1.4.9-2.1.9-.7 0-1.6-.3-2.2-.9-1.2-1.2-1.2-3.1 0-4.3L45.7 50 31 35.2c-1.2-1.2-1.2-3.1 0-4.3 1.2-1.2 3.1-1.2 4.3 0L50 45.7 64.7 31c1.2-1.2 3.1-1.2 4.3 0 1.2 1.2 1.2 3.1 0 4.3L54.3 50 69 64.7z" style="fill:#032c36;fill-opacity:1"/></g></switch></svg>