<svg xmlns="http://www.w3.org/2000/svg" xml:space="preserve" width="32" height="31.999" viewBox="5 -10 32 43.199"><switch style="fill:#032c36;fill-opacity:1" transform="translate(-3.06 -12.602) scale(.47998)"><g style="fill:#032c36;fill-opacity:1"><path d="M50 5C25.3 5 5.2 25.1 5 49.7c-.1 12 4.5 23.4 13 31.9 8.4 8.6 19.7 13.3 31.7 13.4h.3c24.7 0 44.8-20.1 45-44.7C95.2 25.5 75.1 5.2 50 5zm7.2 47L34.9 74.6c-.6.6-1.3.9-2.1.9-.7 0-1.5-.3-2-.8-1.1-1.1-1.1-3 0-4.1L51.1 50 30.8 29.5c-1.1-1.1-1.1-3 0-4.1 1.1-1.1 3-1.1 4.1 0L57.2 48c1.2 1.1 1.2 2.9 0 4zm12.1 20.6c0 1.6-1.3 2.9-2.9 2.9-1.6 0-2.9-1.3-2.9-2.9V27.4c0-1.6 1.3-2.9 2.9-2.9 1.6 0 2.9 1.3 2.9 2.9v45.2z" style="fill:#032c36;fill-opacity:1"/></g></switch></svg>