<svg xmlns="http://www.w3.org/2000/svg" xml:space="preserve" width="32" height="32.001" viewBox="5 -10 32 43.201"><switch style="fill:#032c36;fill-opacity:1" transform="matrix(.48 0 0 .48 -3.099 -12.4)"><g style="fill:#032c36;fill-opacity:1"><path d="M81.6 18C73.1 9.5 61.7 4.9 49.7 5 25.1 5.2 5 25.3 5 50c.2 25.1 20.5 45.2 45.3 45C74.9 94.8 95 74.7 95 50v-.3c-.1-12-4.8-23.3-13.4-31.7zM74 52.1 55.3 70.8c-1.2 1.2-3.1 1.2-4.3 0-.6-.5-.9-1.3-.9-2.1 0-.7.3-1.5.9-2.1L64.5 53h-37c-1.6 0-3-1.4-3-3s1.3-3 3-3h37L50.9 33.4c-1.2-1.2-1.2-3.1 0-4.3 1.2-1.2 3.1-1.2 4.3 0L74 47.8c1.1 1.1 1.1 3.2 0 4.3z" style="fill:#032c36;fill-opacity:1"/></g></switch></svg>