<svg xmlns="http://www.w3.org/2000/svg" xml:space="preserve" width="16" height="15.999" viewBox="5 -10 16 21.599"><switch style="fill:#032c36;fill-opacity:1" transform="matrix(.24 0 0 .24 .984 -11.099)"><g style="fill:#032c36;fill-opacity:1"><g style="fill:#032c36;fill-opacity:1"><circle cx="50" cy="42.1" r="7.1" style="fill:#032c36;fill-opacity:1"/><path d="M50 5C25.3 5 5.2 25.1 5 49.7c-.1 12 4.5 23.4 13 31.9 8.4 8.6 19.7 13.3 31.7 13.4h.3c24.7 0 44.8-20.1 45-44.7C95.2 25.5 75.1 5.2 50 5zm1.9 72.5c-.5.5-1.1.7-1.8.7h-.2c-.6 0-1.3-.3-1.8-.7-.8-.6-19.9-16.4-19.9-34.8 0-11.8 9.5-21.1 21.7-21.1h.2c12.2 0 21.7 9.3 21.7 21.1 0 18.3-19.1 34.1-19.9 34.8z" style="fill:#032c36;fill-opacity:1"/></g></g></switch></svg>