<svg xmlns="http://www.w3.org/2000/svg" xml:space="preserve" width="32" height="31.999" viewBox="5 -10 32 43.199"><switch style="fill:#032c36;fill-opacity:1" transform="translate(-2.955 -12.4) scale(.47998)"><g style="fill:#032c36;fill-opacity:1"><g style="fill:#032c36;fill-opacity:1"><path d="M50 5C24.9 5.2 4.8 25.5 5 50.3 5.2 74.9 25.3 95 50 95h.3c12-.1 23.3-4.8 31.7-13.4 8.4-8.6 13.1-19.9 13-31.9C94.8 25.1 74.7 5 50 5zm16.6 70.2c-3.2 0-6-2-7.2-4.8H28c-1.6 0-2.9-1.3-2.9-2.9 0-1.6 1.3-2.9 2.9-2.9h31.4c1.1-2.9 3.9-4.9 7.2-4.9 4.3 0 7.8 3.5 7.8 7.8s-3.6 7.7-7.8 7.7zm5.3-22.3H50.2c-1.2 2.9-3.9 4.9-7.2 4.9-3.3 0-6.1-2-7.2-4.9H28c-1.6 0-2.9-1.3-2.9-2.9 0-1.6 1.3-2.9 2.9-2.9h7.8c1.2-2.9 3.9-4.9 7.2-4.9 3.3 0 6.1 2 7.2 4.9h21.7c1.6 0 2.9 1.3 2.9 2.9 0 1.6-1.3 2.9-2.9 2.9zm0-17.4h-5.3c-1.2 2.9-3.9 4.9-7.2 4.9-3.3 0-6.1-2-7.2-4.9H28c-1.6 0-2.9-1.3-2.9-2.9 0-1.6 1.3-2.9 2.9-2.9h24.1c1.2-2.9 3.9-4.9 7.2-4.9 3.3 0 6.1 2 7.2 4.9h5.3c1.6 0 2.9 1.3 2.9 2.9.1 1.6-1.2 2.9-2.8 2.9z" style="fill:#032c36;fill-opacity:1"/><circle cx="59.3" cy="32.6" r="3" style="fill:#032c36;fill-opacity:1"/><circle cx="42.9" cy="50" r="3" style="fill:#032c36;fill-opacity:1"/><circle cx="66.6" cy="67.4" r="3" style="fill:#032c36;fill-opacity:1"/></g></g></switch></svg>