<svg version="1.1" xmlns="http://www.w3.org/2000/svg" viewBox="0 0 51 51"><!-- Created with: https://fietkau.software/qr --><path d="M1.5 1h6a0.5 0.5 0 0 1 0.5 0.5v6a0.5 0.5 0 0 1 -0.5 0.5h-6a0.5 0.5 0 0 1 -0.5 -0.5v-6a0.5 0.5 0 0 1 0.5 -0.5zM2 2.5v4a0.5 0.5 0 0 0 0.5 0.5h4a0.5 0.5 0 0 0 0.5 -0.5v-4a0.5 0.5 0 0 0 -0.5 -0.5h-4a0.5 0.5 0 0 0 -0.5 0.5zM43.5 1h6a0.5 0.5 0 0 1 0.5 0.5v6a0.5 0.5 0 0 1 -0.5 0.5h-6a0.5 0.5 0 0 1 -0.5 -0.5v-6a0.5 0.5 0 0 1 0.5 -0.5zM44 2.5v4a0.5 0.5 0 0 0 0.5 0.5h4a0.5 0.5 0 0 0 0.5 -0.5v-4a0.5 0.5 0 0 0 -0.5 -0.5h-4a0.5 0.5 0 0 0 -0.5 0.5zM1.5 43h6a0.5 0.5 0 0 1 0.5 0.5v6a0.5 0.5 0 0 1 -0.5 0.5h-6a0.5 0.5 0 0 1 -0.5 -0.5v-6a0.5 0.5 0 0 1 0.5 -0.5zM2 44.5v4a0.5 0.5 0 0 0 0.5 0.5h4a0.5 0.5 0 0 0 0.5 -0.5v-4a0.5 0.5 0 0 0 -0.5 -0.5h-4a0.5 0.5 0 0 0 -0.5 0.5z" fill="#00ff00"></path><path d="M3.5 3h2a0.5 0.5 0 0 1 0.5 0.5v2a0.5 0.5 0 0 1 -0.5 0.5h-2a0.5 0.5 0 0 1 -0.5 -0.5v-2a0.5 0.5 0 0 1 0.5 -0.5zM45.5 3h2a0.5 0.5 0 0 1 0.5 0.5v2a0.5 0.5 0 0 1 -0.5 0.5h-2a0.5 0.5 0 0 1 -0.5 -0.5v-2a0.5 0.5 0 0 1 0.5 -0.5zM3.5 45h2a0.5 0.5 0 0 1 0.5 0.5v2a0.5 0.5 0 0 1 -0.5 0.5h-2a0.5 0.5 0 0 1 -0.5 -0.5v-2a0.5 0.5 0 0 1 0.5 -0.5z" fill="#00ff00"></path><path d="M18.5 1a0.5 0.5 0 0 1 0.5 0.5a0.5 0.5 0 0 1 -0.5 0.5a0.5 0.5 0 0 1 -0.5 -0.5a0.5 0.5 0 0 1 0.5 -0.5zM33.5 5a0.5 0.5 0 0 1 0.5 0.5a0.5 0.5 0 0 1 -0.5 0.5a0.5 0.5 0 0 1 -0.5 -0.5a0.5 0.5 0 0 1 0.5 -0.5zM12.5 6a0.5 0.5 0 0 1 0.5 0.5a0.5 0.5 0 0 1 -0.5 0.5a0.5 0.5 0 0 1 -0.5 -0.5a0.5 0.5 0 0 1 0.5 -0.5zM34.5 6a0.5 0.5 0 0 1 0.5 0.5a0.5 0.5 0 0 1 -0.5 0.5a0.5 0.5 0 0 1 -0.5 -0.5a0.5 0.5 0 0 1 0.5 -0.5zM11.5 7a0.5 0.5 0 0 1 0.5 0.5a0.5 0.5 0 0 1 -0.5 0.5a0.5 0.5 0 0 1 -0.5 -0.5a0.5 0.5 0 0 1 0.5 -0.5zM13.5 7a0.5 0.5 0 0 1 0.5 0.5a0.5 0.5 0 0 1 -0.5 0.5a0.5 0.5 0 0 1 -0.5 -0.5a0.5 0.5 0 0 1 0.5 -0.5zM17.5 7a0.5 0.5 0 0 1 0.5 0.5a0.5 0.5 0 0 1 -0.5 0.5a0.5 0.5 0 0 1 -0.5 -0.5a0.5 0.5 0 0 1 0.5 -0.5zM25.5 7a0.5 0.5 0 0 1 0.5 0.5a0.5 0.5 0 0 1 -0.5 0.5a0.5 0.5 0 0 1 -0.5 -0.5a0.5 0.5 0 0 1 0.5 -0.5zM41.5 7a0.5 0.5 0 0 1 0.5 0.5a0.5 0.5 0 0 1 -0.5 0.5a0.5 0.5 0 0 1 -0.5 -0.5a0.5 0.5 0 0 1 0.5 -0.5zM45.5 9a0.5 0.5 0 0 1 0.5 0.5a0.5 0.5 0 0 1 -0.5 0.5a0.5 0.5 0 0 1 -0.5 -0.5a0.5 0.5 0 0 1 0.5 -0.5zM47.5 9a0.5 0.5 0 0 1 0.5 0.5a0.5 0.5 0 0 1 -0.5 0.5a0.5 0.5 0 0 1 -0.5 -0.5a0.5 0.5 0 0 1 0.5 -0.5zM49.5 9a0.5 0.5 0 0 1 0.5 0.5a0.5 0.5 0 0 1 -0.5 0.5a0.5 0.5 0 0 1 -0.5 -0.5a0.5 0.5 0 0 1 0.5 -0.5zM5.5 10a0.5 0.5 0 0 1 0.5 0.5a0.5 0.5 0 0 1 -0.5 0.5a0.5 0.5 0 0 1 -0.5 -0.5a0.5 0.5 0 0 1 0.5 -0.5zM46.5 10a0.5 0.5 0 0 1 0.5 0.5a0.5 0.5 0 0 1 -0.5 0.5a0.5 0.5 0 0 1 -0.5 -0.5a0.5 0.5 0 0 1 0.5 -0.5zM48.5 10a0.5 0.5 0 0 1 0.5 0.5a0.5 0.5 0 0 1 -0.5 0.5a0.5 0.5 0 0 1 -0.5 -0.5a0.5 0.5 0 0 1 0.5 -0.5zM29.5 11a0.5 0.5 0 0 1 0.5 0.5a0.5 0.5 0 0 1 -0.5 0.5a0.5 0.5 0 0 1 -0.5 -0.5a0.5 0.5 0 0 1 0.5 -0.5zM47.5 11a0.5 0.5 0 0 1 0.5 0.5a0.5 0.5 0 0 1 -0.5 0.5a0.5 0.5 0 0 1 -0.5 -0.5a0.5 0.5 0 0 1 0.5 -0.5zM49.5 11a0.5 0.5 0 0 1 0.5 0.5a0.5 0.5 0 0 1 -0.5 0.5a0.5 0.5 0 0 1 -0.5 -0.5a0.5 0.5 0 0 1 0.5 -0.5zM20.5 12a0.5 0.5 0 0 1 0.5 0.5a0.5 0.5 0 0 1 -0.5 0.5a0.5 0.5 0 0 1 -0.5 -0.5a0.5 0.5 0 0 1 0.5 -0.5zM22.5 13a0.5 0.5 0 0 1 0.5 0.5a0.5 0.5 0 0 1 -0.5 0.5a0.5 0.5 0 0 1 -0.5 -0.5a0.5 0.5 0 0 1 0.5 -0.5zM40.5 13a0.5 0.5 0 0 1 0.5 0.5a0.5 0.5 0 0 1 -0.5 0.5a0.5 0.5 0 0 1 -0.5 -0.5a0.5 0.5 0 0 1 0.5 -0.5zM23.5 14a0.5 0.5 0 0 1 0.5 0.5a0.5 0.5 0 0 1 -0.5 0.5a0.5 0.5 0 0 1 -0.5 -0.5a0.5 0.5 0 0 1 0.5 -0.5zM12.5 15a0.5 0.5 0 0 1 0.5 0.5a0.5 0.5 0 0 1 -0.5 0.5a0.5 0.5 0 0 1 -0.5 -0.5a0.5 0.5 0 0 1 0.5 -0.5zM14.5 16a0.5 0.5 0 0 1 0.5 0.5a0.5 0.5 0 0 1 -0.5 0.5a0.5 0.5 0 0 1 -0.5 -0.5a0.5 0.5 0 0 1 0.5 -0.5zM36.5 16a0.5 0.5 0 0 1 0.5 0.5a0.5 0.5 0 0 1 -0.5 0.5a0.5 0.5 0 0 1 -0.5 -0.5a0.5 0.5 0 0 1 0.5 -0.5zM38.5 16a0.5 0.5 0 0 1 0.5 0.5a0.5 0.5 0 0 1 -0.5 0.5a0.5 0.5 0 0 1 -0.5 -0.5a0.5 0.5 0 0 1 0.5 -0.5zM18.5 17a0.5 0.5 0 0 1 0.5 0.5a0.5 0.5 0 0 1 -0.5 0.5a0.5 0.5 0 0 1 -0.5 -0.5a0.5 0.5 0 0 1 0.5 -0.5zM30.5 17a0.5 0.5 0 0 1 0.5 0.5a0.5 0.5 0 0 1 -0.5 0.5a0.5 0.5 0 0 1 -0.5 -0.5a0.5 0.5 0 0 1 0.5 -0.5zM32.5 17a0.5 0.5 0 0 1 0.5 0.5a0.5 0.5 0 0 1 -0.5 0.5a0.5 0.5 0 0 1 -0.5 -0.5a0.5 0.5 0 0 1 0.5 -0.5zM29.5 18a0.5 0.5 0 0 1 0.5 0.5a0.5 0.5 0 0 1 -0.5 0.5a0.5 0.5 0 0 1 -0.5 -0.5a0.5 0.5 0 0 1 0.5 -0.5zM31.5 18a0.5 0.5 0 0 1 0.5 0.5a0.5 0.5 0 0 1 -0.5 0.5a0.5 0.5 0 0 1 -0.5 -0.5a0.5 0.5 0 0 1 0.5 -0.5zM18.5 19a0.5 0.5 0 0 1 0.5 0.5a0.5 0.5 0 0 1 -0.5 0.5a0.5 0.5 0 0 1 -0.5 -0.5a0.5 0.5 0 0 1 0.5 -0.5zM28.5 19a0.5 0.5 0 0 1 0.5 0.5a0.5 0.5 0 0 1 -0.5 0.5a0.5 0.5 0 0 1 -0.5 -0.5a0.5 0.5 0 0 1 0.5 -0.5zM30.5 19a0.5 0.5 0 0 1 0.5 0.5a0.5 0.5 0 0 1 -0.5 0.5a0.5 0.5 0 0 1 -0.5 -0.5a0.5 0.5 0 0 1 0.5 -0.5zM32.5 19a0.5 0.5 0 0 1 0.5 0.5a0.5 0.5 0 0 1 -0.5 0.5a0.5 0.5 0 0 1 -0.5 -0.5a0.5 0.5 0 0 1 0.5 -0.5zM3.5 20a0.5 0.5 0 0 1 0.5 0.5a0.5 0.5 0 0 1 -0.5 0.5a0.5 0.5 0 0 1 -0.5 -0.5a0.5 0.5 0 0 1 0.5 -0.5zM8.5 20a0.5 0.5 0 0 1 0.5 0.5a0.5 0.5 0 0 1 -0.5 0.5a0.5 0.5 0 0 1 -0.5 -0.5a0.5 0.5 0 0 1 0.5 -0.5zM9.5 21a0.5 0.5 0 0 1 0.5 0.5a0.5 0.5 0 0 1 -0.5 0.5a0.5 0.5 0 0 1 -0.5 -0.5a0.5 0.5 0 0 1 0.5 -0.5zM19.5 21a0.5 0.5 0 0 1 0.5 0.5a0.5 0.5 0 0 1 -0.5 0.5a0.5 0.5 0 0 1 -0.5 -0.5a0.5 0.5 0 0 1 0.5 -0.5zM28.5 21a0.5 0.5 0 0 1 0.5 0.5a0.5 0.5 0 0 1 -0.5 0.5a0.5 0.5 0 0 1 -0.5 -0.5a0.5 0.5 0 0 1 0.5 -0.5zM10.5 22a0.5 0.5 0 0 1 0.5 0.5a0.5 0.5 0 0 1 -0.5 0.5a0.5 0.5 0 0 1 -0.5 -0.5a0.5 0.5 0 0 1 0.5 -0.5zM13.5 22a0.5 0.5 0 0 1 0.5 0.5a0.5 0.5 0 0 1 -0.5 0.5a0.5 0.5 0 0 1 -0.5 -0.5a0.5 0.5 0 0 1 0.5 -0.5zM14.5 23a0.5 0.5 0 0 1 0.5 0.5a0.5 0.5 0 0 1 -0.5 0.5a0.5 0.5 0 0 1 -0.5 -0.5a0.5 0.5 0 0 1 0.5 -0.5zM19.5 23a0.5 0.5 0 0 1 0.5 0.5a0.5 0.5 0 0 1 -0.5 0.5a0.5 0.5 0 0 1 -0.5 -0.5a0.5 0.5 0 0 1 0.5 -0.5zM29.5 23a0.5 0.5 0 0 1 0.5 0.5a0.5 0.5 0 0 1 -0.5 0.5a0.5 0.5 0 0 1 -0.5 -0.5a0.5 0.5 0 0 1 0.5 -0.5zM37.5 23a0.5 0.5 0 0 1 0.5 0.5a0.5 0.5 0 0 1 -0.5 0.5a0.5 0.5 0 0 1 -0.5 -0.5a0.5 0.5 0 0 1 0.5 -0.5zM7.5 25a0.5 0.5 0 0 1 0.5 0.5a0.5 0.5 0 0 1 -0.5 0.5a0.5 0.5 0 0 1 -0.5 -0.5a0.5 0.5 0 0 1 0.5 -0.5zM25.5 25a0.5 0.5 0 0 1 0.5 0.5a0.5 0.5 0 0 1 -0.5 0.5a0.5 0.5 0 0 1 -0.5 -0.5a0.5 0.5 0 0 1 0.5 -0.5zM43.5 25a0.5 0.5 0 0 1 0.5 0.5a0.5 0.5 0 0 1 -0.5 0.5a0.5 0.5 0 0 1 -0.5 -0.5a0.5 0.5 0 0 1 0.5 -0.5zM19.5 27a0.5 0.5 0 0 1 0.5 0.5a0.5 0.5 0 0 1 -0.5 0.5a0.5 0.5 0 0 1 -0.5 -0.5a0.5 0.5 0 0 1 0.5 -0.5zM31.5 27a0.5 0.5 0 0 1 0.5 0.5a0.5 0.5 0 0 1 -0.5 0.5a0.5 0.5 0 0 1 -0.5 -0.5a0.5 0.5 0 0 1 0.5 -0.5zM8.5 30a0.5 0.5 0 0 1 0.5 0.5a0.5 0.5 0 0 1 -0.5 0.5a0.5 0.5 0 0 1 -0.5 -0.5a0.5 0.5 0 0 1 0.5 -0.5zM38.5 30a0.5 0.5 0 0 1 0.5 0.5a0.5 0.5 0 0 1 -0.5 0.5a0.5 0.5 0 0 1 -0.5 -0.5a0.5 0.5 0 0 1 0.5 -0.5zM4.5 33a0.5 0.5 0 0 1 0.5 0.5a0.5 0.5 0 0 1 -0.5 0.5a0.5 0.5 0 0 1 -0.5 -0.5a0.5 0.5 0 0 1 0.5 -0.5zM36.5 33a0.5 0.5 0 0 1 0.5 0.5a0.5 0.5 0 0 1 -0.5 0.5a0.5 0.5 0 0 1 -0.5 -0.5a0.5 0.5 0 0 1 0.5 -0.5zM3.5 34a0.5 0.5 0 0 1 0.5 0.5a0.5 0.5 0 0 1 -0.5 0.5a0.5 0.5 0 0 1 -0.5 -0.5a0.5 0.5 0 0 1 0.5 -0.5zM18.5 36a0.5 0.5 0 0 1 0.5 0.5a0.5 0.5 0 0 1 -0.5 0.5a0.5 0.5 0 0 1 -0.5 -0.5a0.5 0.5 0 0 1 0.5 -0.5zM7.5 37a0.5 0.5 0 0 1 0.5 0.5a0.5 0.5 0 0 1 -0.5 0.5a0.5 0.5 0 0 1 -0.5 -0.5a0.5 0.5 0 0 1 0.5 -0.5zM25.5 37a0.5 0.5 0 0 1 0.5 0.5a0.5 0.5 0 0 1 -0.5 0.5a0.5 0.5 0 0 1 -0.5 -0.5a0.5 0.5 0 0 1 0.5 -0.5zM37.5 37a0.5 0.5 0 0 1 0.5 0.5a0.5 0.5 0 0 1 -0.5 0.5a0.5 0.5 0 0 1 -0.5 -0.5a0.5 0.5 0 0 1 0.5 -0.5zM36.5 38a0.5 0.5 0 0 1 0.5 0.5a0.5 0.5 0 0 1 -0.5 0.5a0.5 0.5 0 0 1 -0.5 -0.5a0.5 0.5 0 0 1 0.5 -0.5zM38.5 38a0.5 0.5 0 0 1 0.5 0.5a0.5 0.5 0 0 1 -0.5 0.5a0.5 0.5 0 0 1 -0.5 -0.5a0.5 0.5 0 0 1 0.5 -0.5zM19.5 39a0.5 0.5 0 0 1 0.5 0.5a0.5 0.5 0 0 1 -0.5 0.5a0.5 0.5 0 0 1 -0.5 -0.5a0.5 0.5 0 0 1 0.5 -0.5zM37.5 39a0.5 0.5 0 0 1 0.5 0.5a0.5 0.5 0 0 1 -0.5 0.5a0.5 0.5 0 0 1 -0.5 -0.5a0.5 0.5 0 0 1 0.5 -0.5zM8.5 40a0.5 0.5 0 0 1 0.5 0.5a0.5 0.5 0 0 1 -0.5 0.5a0.5 0.5 0 0 1 -0.5 -0.5a0.5 0.5 0 0 1 0.5 -0.5zM7.5 41a0.5 0.5 0 0 1 0.5 0.5a0.5 0.5 0 0 1 -0.5 0.5a0.5 0.5 0 0 1 -0.5 -0.5a0.5 0.5 0 0 1 0.5 -0.5zM13.5 41a0.5 0.5 0 0 1 0.5 0.5a0.5 0.5 0 0 1 -0.5 0.5a0.5 0.5 0 0 1 -0.5 -0.5a0.5 0.5 0 0 1 0.5 -0.5zM20.5 41a0.5 0.5 0 0 1 0.5 0.5a0.5 0.5 0 0 1 -0.5 0.5a0.5 0.5 0 0 1 -0.5 -0.5a0.5 0.5 0 0 1 0.5 -0.5zM25.5 43a0.5 0.5 0 0 1 0.5 0.5a0.5 0.5 0 0 1 -0.5 0.5a0.5 0.5 0 0 1 -0.5 -0.5a0.5 0.5 0 0 1 0.5 -0.5zM43.5 43a0.5 0.5 0 0 1 0.5 0.5a0.5 0.5 0 0 1 -0.5 0.5a0.5 0.5 0 0 1 -0.5 -0.5a0.5 0.5 0 0 1 0.5 -0.5zM49.5 43a0.5 0.5 0 0 1 0.5 0.5a0.5 0.5 0 0 1 -0.5 0.5a0.5 0.5 0 0 1 -0.5 -0.5a0.5 0.5 0 0 1 0.5 -0.5zM19.5 44a0.5 0.5 0 0 1 0.5 0.5a0.5 0.5 0 0 1 -0.5 0.5a0.5 0.5 0 0 1 -0.5 -0.5a0.5 0.5 0 0 1 0.5 -0.5zM12.5 45a0.5 0.5 0 0 1 0.5 0.5a0.5 0.5 0 0 1 -0.5 0.5a0.5 0.5 0 0 1 -0.5 -0.5a0.5 0.5 0 0 1 0.5 -0.5zM25.5 48a0.5 0.5 0 0 1 0.5 0.5a0.5 0.5 0 0 1 -0.5 0.5a0.5 0.5 0 0 1 -0.5 -0.5a0.5 0.5 0 0 1 0.5 -0.5zM32.5 48a0.5 0.5 0 0 1 0.5 0.5a0.5 0.5 0 0 1 -0.5 0.5a0.5 0.5 0 0 1 -0.5 -0.5a0.5 0.5 0 0 1 0.5 -0.5zM24.5 49a0.5 0.5 0 0 1 0.5 0.5a0.5 0.5 0 0 1 -0.5 0.5a0.5 0.5 0 0 1 -0.5 -0.5a0.5 0.5 0 0 1 0.5 -0.5zM33.5 49a0.5 0.5 0 0 1 0.5 0.5a0.5 0.5 0 0 1 -0.5 0.5a0.5 0.5 0 0 1 -0.5 -0.5a0.5 0.5 0 0 1 0.5 -0.5zM37.5 49a0.5 0.5 0 0 1 0.5 0.5a0.5 0.5 0 0 1 -0.5 0.5a0.5 0.5 0 0 1 -0.5 -0.5a0.5 0.5 0 0 1 0.5 -0.5z" fill="#00ff00"></path><path d="M9.5 1h2a0.5 0.5 0 0 1 0.5 0.5v1a0.5 0.5 0 0 1 -0.5 0.5a0.5 0.5 0 0 0 -0.5 0.5a0.5 0.5 0 0 1 -0.5 0.5h-1a0.5 0.5 0 0 1 -0.5 -0.5a0.5 0.5 0 0 1 0.5 -0.5a0.5 0.5 0 0 0 0.5 -0.5a0.5 0.5 0 0 0 -0.5 -0.5a0.5 0.5 0 0 1 -0.5 -0.5a0.5 0.5 0 0 1 0.5 -0.5zM20.5 1h3a0.5 0.5 0 0 1 0.5 0.5a0.5 0.5 0 0 0 0.5 0.5a0.5 0.5 0 0 1 0.5 0.5v1a0.5 0.5 0 0 1 -0.5 0.5h-2a0.5 0.5 0 0 1 -0.5 -0.5v-1a0.5 0.5 0 0 0 -0.5 -0.5h-1a0.5 0.5 0 0 1 -0.5 -0.5a0.5 0.5 0 0 1 0.5 -0.5zM25.5 1h1a0.5 0.5 0 0 1 0.5 0.5a0.5 0.5 0 0 0 0.5 0.5h1a0.5 0.5 0 0 1 0.5 0.5v1a0.5 0.5 0 0 1 -0.5 0.5a0.5 0.5 0 0 1 -0.5 -0.5a0.5 0.5 0 0 0 -0.5 -0.5a0.5 0.5 0 0 0 -0.5 0.5a0.5 0.5 0 0 1 -0.5 0.5a0.5 0.5 0 0 1 -0.5 -0.5v-1a0.5 0.5 0 0 0 -0.5 -0.5a0.5 0.5 0 0 1 -0.5 -0.5a0.5 0.5 0 0 1 0.5 -0.5zM29.5 1h2a0.5 0.5 0 0 1 0.5 0.5a0.5 0.5 0 0 1 -0.5 0.5a0.5 0.5 0 0 0 -0.5 0.5a0.5 0.5 0 0 1 -0.5 0.5a0.5 0.5 0 0 1 -0.5 -0.5a0.5 0.5 0 0 0 -0.5 -0.5a0.5 0.5 0 0 1 -0.5 -0.5a0.5 0.5 0 0 1 0.5 -0.5zM33.5 1a0.5 0.5 0 0 1 0.5 0.5a0.5 0.5 0 0 0 0.5 0.5a0.5 0.5 0 0 0 0.5 -0.5a0.5 0.5 0 0 1 0.5 -0.5a0.5 0.5 0 0 1 0.5 0.5a0.5 0.5 0 0 0 0.5 0.5a0.5 0.5 0 0 1 0.5 0.5a0.5 0.5 0 0 1 -0.5 0.5h-1a0.5 0.5 0 0 0 -0.5 0.5a0.5 0.5 0 0 1 -0.5 0.5a0.5 0.5 0 0 1 -0.5 -0.5a0.5 0.5 0 0 0 -0.5 -0.5h-1a0.5 0.5 0 0 1 -0.5 -0.5a0.5 0.5 0 0 1 0.5 -0.5a0.5 0.5 0 0 0 0.5 -0.5a0.5 0.5 0 0 1 0.5 -0.5zM41.5 1a0.5 0.5 0 0 1 0.5 0.5v2a0.5 0.5 0 0 1 -0.5 0.5a0.5 0.5 0 0 0 -0.5 0.5a0.5 0.5 0 0 1 -0.5 0.5a0.5 0.5 0 0 1 -0.5 -0.5v-1a0.5 0.5 0 0 0 -0.5 -0.5h-1a0.5 0.5 0 0 1 -0.5 -0.5a0.5 0.5 0 0 1 0.5 -0.5h2a0.5 0.5 0 0 0 0.5 -0.5a0.5 0.5 0 0 1 0.5 -0.5zM13.5 2a0.5 0.5 0 0 1 0.5 0.5a0.5 0.5 0 0 0 0.5 0.5h3a0.5 0.5 0 0 1 0.5 0.5v1a0.5 0.5 0 0 1 -0.5 0.5h-1a0.5 0.5 0 0 0 -0.5 0.5a0.5 0.5 0 0 0 0.5 0.5a0.5 0.5 0 0 1 0.5 0.5a0.5 0.5 0 0 1 -0.5 0.5a0.5 0.5 0 0 0 -0.5 0.5a0.5 0.5 0 0 1 -0.5 0.5a0.5 0.5 0 0 1 -0.5 -0.5v-1a0.5 0.5 0 0 0 -0.5 -0.5a0.5 0.5 0 0 1 -0.5 -0.5a0.5 0.5 0 0 1 0.5 -0.5a0.5 0.5 0 0 0 0.5 -0.5a0.5 0.5 0 0 0 -0.5 -0.5a0.5 0.5 0 0 0 -0.5 0.5a0.5 0.5 0 0 1 -0.5 0.5h-2a0.5 0.5 0 0 1 -0.5 -0.5a0.5 0.5 0 0 1 0.5 -0.5h1a0.5 0.5 0 0 0 0.5 -0.5v-1a0.5 0.5 0 0 1 0.5 -0.5zM19.5 2a0.5 0.5 0 0 1 0.5 0.5a0.5 0.5 0 0 0 0.5 0.5a0.5 0.5 0 0 1 0.5 0.5v1a0.5 0.5 0 0 1 -0.5 0.5a0.5 0.5 0 0 1 -0.5 -0.5a0.5 0.5 0 0 0 -0.5 -0.5a0.5 0.5 0 0 1 -0.5 -0.5v-1a0.5 0.5 0 0 1 0.5 -0.5zM31.5 3a0.5 0.5 0 0 1 0.5 0.5v2a0.5 0.5 0 0 0 0.5 0.5a0.5 0.5 0 0 1 0.5 0.5a0.5 0.5 0 0 1 -0.5 0.5a0.5 0.5 0 0 0 -0.5 0.5a0.5 0.5 0 0 1 -0.5 0.5a0.5 0.5 0 0 1 -0.5 -0.5v-1a0.5 0.5 0 0 0 -0.5 -0.5a0.5 0.5 0 0 1 -0.5 -0.5a0.5 0.5 0 0 0 -0.5 -0.5a0.5 0.5 0 0 1 -0.5 -0.5a0.5 0.5 0 0 1 0.5 -0.5h1a0.5 0.5 0 0 0 0.5 -0.5a0.5 0.5 0 0 1 0.5 -0.5zM36.5 4h2a0.5 0.5 0 0 1 0.5 0.5v1a0.5 0.5 0 0 0 0.5 0.5a0.5 0.5 0 0 1 0.5 0.5v1a0.5 0.5 0 0 1 -0.5 0.5a0.5 0.5 0 0 1 -0.5 -0.5a0.5 0.5 0 0 0 -0.5 -0.5a0.5 0.5 0 0 0 -0.5 0.5v3a0.5 0.5 0 0 0 0.5 0.5a0.5 0.5 0 0 0 0.5 -0.5v-1a0.5 0.5 0 0 1 0.5 -0.5a0.5 0.5 0 0 0 0.5 -0.5a0.5 0.5 0 0 1 0.5 -0.5a0.5 0.5 0 0 1 0.5 0.5a0.5 0.5 0 0 0 0.5 0.5a0.5 0.5 0 0 1 0.5 0.5v1a0.5 0.5 0 0 0 0.5 0.5a0.5 0.5 0 0 1 0.5 0.5a0.5 0.5 0 0 1 -0.5 0.5a0.5 0.5 0 0 0 -0.5 0.5a0.5 0.5 0 0 1 -0.5 0.5a0.5 0.5 0 0 1 -0.5 -0.5v-2a0.5 0.5 0 0 0 -0.5 -0.5a0.5 0.5 0 0 0 -0.5 0.5v2a0.5 0.5 0 0 1 -0.5 0.5a0.5 0.5 0 0 1 -0.5 -0.5a0.5 0.5 0 0 0 -0.5 -0.5h-1a0.5 0.5 0 0 1 -0.5 -0.5a0.5 0.5 0 0 0 -0.5 -0.5a0.5 0.5 0 0 0 -0.5 0.5a0.5 0.5 0 0 1 -0.5 0.5h-1a0.5 0.5 0 0 0 -0.5 0.5a0.5 0.5 0 0 1 -0.5 0.5a0.5 0.5 0 0 1 -0.5 -0.5v-5a0.5 0.5 0 0 1 0.5 -0.5a0.5 0.5 0 0 1 0.5 0.5v3a0.5 0.5 0 0 0 0.5 0.5a0.5 0.5 0 0 0 0.5 -0.5a0.5 0.5 0 0 1 0.5 -0.5h1a0.5 0.5 0 0 0 0.5 -0.5a0.5 0.5 0 0 0 -0.5 -0.5h-1a0.5 0.5 0 0 1 -0.5 -0.5v-1a0.5 0.5 0 0 1 0.5 -0.5a0.5 0.5 0 0 1 0.5 0.5a0.5 0.5 0 0 0 0.5 0.5a0.5 0.5 0 0 0 0.5 -0.5v-2a0.5 0.5 0 0 0 -0.5 -0.5a0.5 0.5 0 0 1 -0.5 -0.5a0.5 0.5 0 0 1 0.5 -0.5zM9.5 5h1a0.5 0.5 0 0 1 0.5 0.5v1a0.5 0.5 0 0 1 -0.5 0.5a0.5 0.5 0 0 1 -0.5 -0.5a0.5 0.5 0 0 0 -0.5 -0.5a0.5 0.5 0 0 1 -0.5 -0.5a0.5 0.5 0 0 1 0.5 -0.5zM18.5 5h1a0.5 0.5 0 0 1 0.5 0.5a0.5 0.5 0 0 1 -0.5 0.5h-1a0.5 0.5 0 0 1 -0.5 -0.5a0.5 0.5 0 0 1 0.5 -0.5zM23.5 5h5a0.5 0.5 0 0 1 0.5 0.5v1a0.5 0.5 0 0 1 -0.5 0.5a0.5 0.5 0 0 0 -0.5 0.5a0.5 0.5 0 0 0 0.5 0.5a0.5 0.5 0 0 0 0.5 -0.5a0.5 0.5 0 0 1 0.5 -0.5a0.5 0.5 0 0 1 0.5 0.5a0.5 0.5 0 0 0 0.5 0.5a0.5 0.5 0 0 1 0.5 0.5v2a0.5 0.5 0 0 1 -0.5 0.5a0.5 0.5 0 0 1 -0.5 -0.5v-1a0.5 0.5 0 0 0 -0.5 -0.5h-1a0.5 0.5 0 0 0 -0.5 0.5a0.5 0.5 0 0 1 -0.5 0.5a0.5 0.5 0 0 0 -0.5 0.5v1a0.5 0.5 0 0 1 -0.5 0.5h-1a0.5 0.5 0 0 0 -0.5 0.5v1a0.5 0.5 0 0 1 -0.5 0.5a0.5 0.5 0 0 1 -0.5 -0.5a0.5 0.5 0 0 0 -0.5 -0.5a0.5 0.5 0 0 1 -0.5 -0.5a0.5 0.5 0 0 0 -0.5 -0.5a0.5 0.5 0 0 1 -0.5 -0.5a0.5 0.5 0 0 1 0.5 -0.5h1a0.5 0.5 0 0 0 0.5 -0.5a0.5 0.5 0 0 0 -0.5 -0.5h-2a0.5 0.5 0 0 1 -0.5 -0.5v-3a0.5 0.5 0 0 1 0.5 -0.5h1a0.5 0.5 0 0 0 0.5 -0.5a0.5 0.5 0 0 1 0.5 -0.5zM24 6.5v2a0.5 0.5 0 0 0 0.5 0.5h2a0.5 0.5 0 0 0 0.5 -0.5v-2a0.5 0.5 0 0 0 -0.5 -0.5h-2a0.5 0.5 0 0 0 -0.5 0.5zM9.5 7a0.5 0.5 0 0 1 0.5 0.5a0.5 0.5 0 0 0 0.5 0.5a0.5 0.5 0 0 1 0.5 0.5v2a0.5 0.5 0 0 0 0.5 0.5a0.5 0.5 0 0 1 0.5 0.5a0.5 0.5 0 0 0 0.5 0.5a0.5 0.5 0 0 1 0.5 0.5a0.5 0.5 0 0 1 -0.5 0.5h-2a0.5 0.5 0 0 1 -0.5 -0.5v-3a0.5 0.5 0 0 0 -0.5 -0.5a0.5 0.5 0 0 1 -0.5 -0.5v-1a0.5 0.5 0 0 1 0.5 -0.5zM19.5 7a0.5 0.5 0 0 1 0.5 0.5v4a0.5 0.5 0 0 1 -0.5 0.5a0.5 0.5 0 0 0 -0.5 0.5a0.5 0.5 0 0 1 -0.5 0.5h-1a0.5 0.5 0 0 0 -0.5 0.5a0.5 0.5 0 0 0 0.5 0.5a0.5 0.5 0 0 1 0.5 0.5a0.5 0.5 0 0 0 0.5 0.5a0.5 0.5 0 0 1 0.5 0.5a0.5 0.5 0 0 1 -0.5 0.5a0.5 0.5 0 0 0 -0.5 0.5a0.5 0.5 0 0 1 -0.5 0.5h-1a0.5 0.5 0 0 1 -0.5 -0.5v-2a0.5 0.5 0 0 0 -0.5 -0.5h-2a0.5 0.5 0 0 1 -0.5 -0.5a0.5 0.5 0 0 1 0.5 -0.5h1a0.5 0.5 0 0 0 0.5 -0.5a0.5 0.5 0 0 1 0.5 -0.5h1a0.5 0.5 0 0 0 0.5 -0.5a0.5 0.5 0 0 1 0.5 -0.5a0.5 0.5 0 0 0 0.5 -0.5v-2a0.5 0.5 0 0 1 0.5 -0.5a0.5 0.5 0 0 0 0.5 -0.5a0.5 0.5 0 0 1 0.5 -0.5zM22 7.5a0.5 0.5 0 0 0 0.5 0.5a0.5 0.5 0 0 0 0.5 -0.5a0.5 0.5 0 0 0 -0.5 -0.5a0.5 0.5 0 0 0 -0.5 0.5zM12.5 8a0.5 0.5 0 0 1 0.5 0.5a0.5 0.5 0 0 0 0.5 0.5a0.5 0.5 0 0 1 0.5 0.5a0.5 0.5 0 0 1 -0.5 0.5h-1a0.5 0.5 0 0 1 -0.5 -0.5v-1a0.5 0.5 0 0 1 0.5 -0.5zM16.5 8a0.5 0.5 0 0 1 0.5 0.5v2a0.5 0.5 0 0 1 -0.5 0.5h-1a0.5 0.5 0 0 1 -0.5 -0.5a0.5 0.5 0 0 1 0.5 -0.5a0.5 0.5 0 0 0 0.5 -0.5v-1a0.5 0.5 0 0 1 0.5 -0.5zM6.5 9h1a0.5 0.5 0 0 1 0.5 0.5a0.5 0.5 0 0 1 -0.5 0.5h-1a0.5 0.5 0 0 1 -0.5 -0.5a0.5 0.5 0 0 1 0.5 -0.5zM43.5 9a0.5 0.5 0 0 1 0.5 0.5a0.5 0.5 0 0 0 0.5 0.5a0.5 0.5 0 0 1 0.5 0.5a0.5 0.5 0 0 0 0.5 0.5a0.5 0.5 0 0 1 0.5 0.5a0.5 0.5 0 0 0 0.5 0.5a0.5 0.5 0 0 1 0.5 0.5v2a0.5 0.5 0 0 1 -0.5 0.5a0.5 0.5 0 0 1 -0.5 -0.5a0.5 0.5 0 0 0 -0.5 -0.5a0.5 0.5 0 0 1 -0.5 -0.5a0.5 0.5 0 0 0 -0.5 -0.5a0.5 0.5 0 0 0 -0.5 0.5v1a0.5 0.5 0 0 1 -0.5 0.5h-1a0.5 0.5 0 0 1 -0.5 -0.5a0.5 0.5 0 0 1 0.5 -0.5a0.5 0.5 0 0 0 0.5 -0.5v-1a0.5 0.5 0 0 1 0.5 -0.5a0.5 0.5 0 0 0 0.5 -0.5a0.5 0.5 0 0 0 -0.5 -0.5a0.5 0.5 0 0 1 -0.5 -0.5v-1a0.5 0.5 0 0 1 0.5 -0.5zM2.5 10a0.5 0.5 0 0 1 0.5 0.5a0.5 0.5 0 0 0 0.5 0.5a0.5 0.5 0 0 1 0.5 0.5v1a0.5 0.5 0 0 1 -0.5 0.5h-1a0.5 0.5 0 0 1 -0.5 -0.5v-2a0.5 0.5 0 0 1 0.5 -0.5zM25 10.5a0.5 0.5 0 0 0 0.5 0.5a0.5 0.5 0 0 0 0.5 -0.5a0.5 0.5 0 0 0 -0.5 -0.5a0.5 0.5 0 0 0 -0.5 0.5zM7.5 11h1a0.5 0.5 0 0 1 0.5 0.5a0.5 0.5 0 0 1 -0.5 0.5h-1a0.5 0.5 0 0 1 -0.5 -0.5a0.5 0.5 0 0 1 0.5 -0.5zM31.5 11a0.5 0.5 0 0 1 0.5 0.5v1a0.5 0.5 0 0 1 -0.5 0.5a0.5 0.5 0 0 1 -0.5 -0.5v-1a0.5 0.5 0 0 1 0.5 -0.5zM27.5 12h1a0.5 0.5 0 0 1 0.5 0.5a0.5 0.5 0 0 1 -0.5 0.5a0.5 0.5 0 0 0 -0.5 0.5a0.5 0.5 0 0 1 -0.5 0.5a0.5 0.5 0 0 1 -0.5 -0.5v-1a0.5 0.5 0 0 1 0.5 -0.5zM36.5 12a0.5 0.5 0 0 1 0.5 0.5a0.5 0.5 0 0 0 0.5 0.5a0.5 0.5 0 0 1 0.5 0.5a0.5 0.5 0 0 0 0.5 0.5a0.5 0.5 0 0 1 0.5 0.5a0.5 0.5 0 0 1 -0.5 0.5a0.5 0.5 0 0 0 -0.5 0.5a0.5 0.5 0 0 1 -0.5 0.5a0.5 0.5 0 0 1 -0.5 -0.5a0.5 0.5 0 0 0 -0.5 -0.5a0.5 0.5 0 0 1 -0.5 -0.5a0.5 0.5 0 0 0 -0.5 -0.5a0.5 0.5 0 0 0 -0.5 0.5v2a0.5 0.5 0 0 0 0.5 0.5a0.5 0.5 0 0 1 0.5 0.5v1a0.5 0.5 0 0 0 0.5 0.5a0.5 0.5 0 0 0 0.5 -0.5v-1a0.5 0.5 0 0 1 0.5 -0.5a0.5 0.5 0 0 1 0.5 0.5a0.5 0.5 0 0 0 0.5 0.5a0.5 0.5 0 0 0 0.5 -0.5a0.5 0.5 0 0 1 0.5 -0.5h1a0.5 0.5 0 0 1 0.5 0.5a0.5 0.5 0 0 1 -0.5 0.5a0.5 0.5 0 0 0 -0.5 0.5v2a0.5 0.5 0 0 0 0.5 0.5a0.5 0.5 0 0 1 0.5 0.5a0.5 0.5 0 0 0 0.5 0.5h1a0.5 0.5 0 0 0 0.5 -0.5v-1a0.5 0.5 0 0 0 -0.5 -0.5a0.5 0.5 0 0 0 -0.5 0.5a0.5 0.5 0 0 1 -0.5 0.5a0.5 0.5 0 0 1 -0.5 -0.5v-1a0.5 0.5 0 0 1 0.5 -0.5a0.5 0.5 0 0 0 0.5 -0.5v-1a0.5 0.5 0 0 1 0.5 -0.5h2a0.5 0.5 0 0 1 0.5 0.5a0.5 0.5 0 0 1 -0.5 0.5a0.5 0.5 0 0 0 -0.5 0.5a0.5 0.5 0 0 0 0.5 0.5a0.5 0.5 0 0 0 0.5 -0.5a0.5 0.5 0 0 1 0.5 -0.5a0.5 0.5 0 0 1 0.5 0.5a0.5 0.5 0 0 0 0.5 0.5a0.5 0.5 0 0 0 0.5 -0.5a0.5 0.5 0 0 1 0.5 -0.5a0.5 0.5 0 0 1 0.5 0.5v1a0.5 0.5 0 0 1 -0.5 0.5a0.5 0.5 0 0 0 -0.5 0.5a0.5 0.5 0 0 1 -0.5 0.5h-1a0.5 0.5 0 0 0 -0.5 0.5a0.5 0.5 0 0 1 -0.5 0.5a0.5 0.5 0 0 0 -0.5 0.5a0.5 0.5 0 0 0 0.5 0.5a0.5 0.5 0 0 0 0.5 -0.5a0.5 0.5 0 0 1 0.5 -0.5h1a0.5 0.5 0 0 0 0.5 -0.5a0.5 0.5 0 0 1 0.5 -0.5a0.5 0.5 0 0 0 0.5 -0.5a0.5 0.5 0 0 1 0.5 -0.5a0.5 0.5 0 0 0 0.5 -0.5a0.5 0.5 0 0 1 0.5 -0.5a0.5 0.5 0 0 1 0.5 0.5v2a0.5 0.5 0 0 1 -0.5 0.5h-1a0.5 0.5 0 0 0 -0.5 0.5a0.5 0.5 0 0 1 -0.5 0.5h-1a0.5 0.5 0 0 0 -0.5 0.5a0.5 0.5 0 0 0 0.5 0.5a0.5 0.5 0 0 1 0.5 0.5v1a0.5 0.5 0 0 1 -0.5 0.5a0.5 0.5 0 0 0 -0.5 0.5a0.5 0.5 0 0 0 0.5 0.5a0.5 0.5 0 0 0 0.5 -0.5a0.5 0.5 0 0 1 0.5 -0.5h1a0.5 0.5 0 0 1 0.5 0.5a0.5 0.5 0 0 1 -0.5 0.5a0.5 0.5 0 0 0 -0.5 0.5a0.5 0.5 0 0 0 0.5 0.5a0.5 0.5 0 0 0 0.5 -0.5a0.5 0.5 0 0 1 0.5 -0.5a0.5 0.5 0 0 1 0.5 0.5v1a0.5 0.5 0 0 1 -0.5 0.5h-1a0.5 0.5 0 0 0 -0.5 0.5a0.5 0.5 0 0 1 -0.5 0.5a0.5 0.5 0 0 1 -0.5 -0.5a0.5 0.5 0 0 0 -0.5 -0.5a0.5 0.5 0 0 0 -0.5 0.5a0.5 0.5 0 0 1 -0.5 0.5a0.5 0.5 0 0 1 -0.5 -0.5a0.5 0.5 0 0 0 -0.5 -0.5a0.5 0.5 0 0 1 -0.5 -0.5a0.5 0.5 0 0 0 -0.5 -0.5a0.5 0.5 0 0 0 -0.5 0.5a0.5 0.5 0 0 1 -0.5 0.5h-1a0.5 0.5 0 0 0 -0.5 0.5a0.5 0.5 0 0 1 -0.5 0.5h-1a0.5 0.5 0 0 1 -0.5 -0.5v-2a0.5 0.5 0 0 1 0.5 -0.5a0.5 0.5 0 0 1 0.5 0.5a0.5 0.5 0 0 0 0.5 0.5a0.5 0.5 0 0 0 0.5 -0.5v-1a0.5 0.5 0 0 0 -0.5 -0.5a0.5 0.5 0 0 1 -0.5 -0.5a0.5 0.5 0 0 0 -0.5 -0.5a0.5 0.5 0 0 0 -0.5 0.5v1a0.5 0.5 0 0 1 -0.5 0.5a0.5 0.5 0 0 1 -0.5 -0.5a0.5 0.5 0 0 0 -0.5 -0.5a0.5 0.5 0 0 0 -0.5 0.5v2a0.5 0.5 0 0 0 0.5 0.5a0.5 0.5 0 0 1 0.5 0.5a0.5 0.5 0 0 1 -0.5 0.5a0.5 0.5 0 0 0 -0.5 0.5a0.5 0.5 0 0 1 -0.5 0.5a0.5 0.5 0 0 1 -0.5 -0.5a0.5 0.5 0 0 0 -0.5 -0.5a0.5 0.5 0 0 0 -0.5 0.5a0.5 0.5 0 0 1 -0.5 0.5a0.5 0.5 0 0 1 -0.5 -0.5v-1a0.5 0.5 0 0 1 0.5 -0.5a0.5 0.5 0 0 0 0.5 -0.5a0.5 0.5 0 0 0 -0.5 -0.5a0.5 0.5 0 0 1 -0.5 -0.5v-1a0.5 0.5 0 0 1 0.5 -0.5a0.5 0.5 0 0 1 0.5 0.5a0.5 0.5 0 0 0 0.5 0.5a0.5 0.5 0 0 0 0.5 -0.5a0.5 0.5 0 0 0 -0.5 -0.5a0.5 0.5 0 0 1 -0.5 -0.5v-1a0.5 0.5 0 0 0 -0.5 -0.5a0.5 0.5 0 0 1 -0.5 -0.5a0.5 0.5 0 0 0 -0.5 -0.5a0.5 0.5 0 0 1 -0.5 -0.5v-1a0.5 0.5 0 0 1 0.5 -0.5a0.5 0.5 0 0 1 0.5 0.5a0.5 0.5 0 0 0 0.5 0.5h1a0.5 0.5 0 0 1 0.5 0.5v2a0.5 0.5 0 0 0 0.5 0.5h1a0.5 0.5 0 0 0 0.5 -0.5a0.5 0.5 0 0 1 0.5 -0.5a0.5 0.5 0 0 0 0.5 -0.5v-1a0.5 0.5 0 0 0 -0.5 -0.5h-2a0.5 0.5 0 0 1 -0.5 -0.5a0.5 0.5 0 0 1 0.5 -0.5h1a0.5 0.5 0 0 0 0.5 -0.5a0.5 0.5 0 0 0 -0.5 -0.5h-2a0.5 0.5 0 0 0 -0.5 0.5a0.5 0.5 0 0 1 -0.5 0.5a0.5 0.5 0 0 1 -0.5 -0.5v-1a0.5 0.5 0 0 0 -0.5 -0.5a0.5 0.5 0 0 1 -0.5 -0.5a0.5 0.5 0 0 1 0.5 -0.5a0.5 0.5 0 0 0 0.5 -0.5a0.5 0.5 0 0 0 -0.5 -0.5a0.5 0.5 0 0 1 -0.5 -0.5a0.5 0.5 0 0 1 0.5 -0.5a0.5 0.5 0 0 0 0.5 -0.5v-2a0.5 0.5 0 0 1 0.5 -0.5h1a0.5 0.5 0 0 0 0.5 -0.5a0.5 0.5 0 0 1 0.5 -0.5zM1.5 13a0.5 0.5 0 0 1 0.5 0.5a0.5 0.5 0 0 0 0.5 0.5h1a0.5 0.5 0 0 0 0.5 -0.5a0.5 0.5 0 0 1 0.5 -0.5h5a0.5 0.5 0 0 1 0.5 0.5a0.5 0.5 0 0 0 0.5 0.5h1a0.5 0.5 0 0 1 0.5 0.5a0.5 0.5 0 0 1 -0.5 0.5a0.5 0.5 0 0 0 -0.5 0.5v3a0.5 0.5 0 0 0 0.5 0.5a0.5 0.5 0 0 1 0.5 0.5a0.5 0.5 0 0 0 0.5 0.5a0.5 0.5 0 0 0 0.5 -0.5a0.5 0.5 0 0 1 0.5 -0.5a0.5 0.5 0 0 0 0.5 -0.5a0.5 0.5 0 0 1 0.5 -0.5a0.5 0.5 0 0 1 0.5 0.5a0.5 0.5 0 0 0 0.5 0.5a0.5 0.5 0 0 1 0.5 0.5a0.5 0.5 0 0 0 0.5 0.5a0.5 0.5 0 0 1 0.5 0.5a0.5 0.5 0 0 1 -0.5 0.5a0.5 0.5 0 0 0 -0.5 0.5a0.5 0.5 0 0 0 0.5 0.5a0.5 0.5 0 0 0 0.5 -0.5a0.5 0.5 0 0 1 0.5 -0.5a0.5 0.5 0 0 1 0.5 0.5a0.5 0.5 0 0 0 0.5 0.5a0.5 0.5 0 0 1 0.5 0.5a0.5 0.5 0 0 1 -0.5 0.5h-3a0.5 0.5 0 0 1 -0.5 -0.5v-2a0.5 0.5 0 0 0 -0.5 -0.5a0.5 0.5 0 0 0 -0.5 0.5a0.5 0.5 0 0 1 -0.5 0.5h-2a0.5 0.5 0 0 1 -0.5 -0.5a0.5 0.5 0 0 0 -0.5 -0.5h-1a0.5 0.5 0 0 1 -0.5 -0.5v-1a0.5 0.5 0 0 1 0.5 -0.5a0.5 0.5 0 0 0 0.5 -0.5v-1a0.5 0.5 0 0 0 -0.5 -0.5a0.5 0.5 0 0 0 -0.5 0.5v1a0.5 0.5 0 0 1 -0.5 0.5h-1a0.5 0.5 0 0 1 -0.5 -0.5a0.5 0.5 0 0 1 0.5 -0.5a0.5 0.5 0 0 0 0.5 -0.5a0.5 0.5 0 0 0 -0.5 -0.5h-2a0.5 0.5 0 0 0 -0.5 0.5a0.5 0.5 0 0 0 0.5 0.5a0.5 0.5 0 0 1 0.5 0.5a0.5 0.5 0 0 1 -0.5 0.5h-1a0.5 0.5 0 0 1 -0.5 -0.5a0.5 0.5 0 0 0 -0.5 -0.5a0.5 0.5 0 0 1 -0.5 -0.5a0.5 0.5 0 0 1 0.5 -0.5a0.5 0.5 0 0 0 0.5 -0.5a0.5 0.5 0 0 0 -0.5 -0.5a0.5 0.5 0 0 0 -0.5 0.5a0.5 0.5 0 0 1 -0.5 0.5a0.5 0.5 0 0 0 -0.5 0.5a0.5 0.5 0 0 1 -0.5 0.5a0.5 0.5 0 0 1 -0.5 -0.5v-3a0.5 0.5 0 0 1 0.5 -0.5zM48.5 13h1a0.5 0.5 0 0 1 0.5 0.5v4a0.5 0.5 0 0 1 -0.5 0.5a0.5 0.5 0 0 1 -0.5 -0.5a0.5 0.5 0 0 0 -0.5 -0.5h-1a0.5 0.5 0 0 0 -0.5 0.5a0.5 0.5 0 0 1 -0.5 0.5a0.5 0.5 0 0 1 -0.5 -0.5v-1a0.5 0.5 0 0 1 0.5 -0.5h1a0.5 0.5 0 0 0 0.5 -0.5a0.5 0.5 0 0 1 0.5 -0.5a0.5 0.5 0 0 0 0.5 -0.5a0.5 0.5 0 0 0 -0.5 -0.5a0.5 0.5 0 0 1 -0.5 -0.5a0.5 0.5 0 0 1 0.5 -0.5zM5 14.5a0.5 0.5 0 0 0 0.5 0.5h3a0.5 0.5 0 0 0 0.5 -0.5a0.5 0.5 0 0 0 -0.5 -0.5h-3a0.5 0.5 0 0 0 -0.5 0.5zM20.5 14a0.5 0.5 0 0 1 0.5 0.5a0.5 0.5 0 0 0 0.5 0.5a0.5 0.5 0 0 1 0.5 0.5v1a0.5 0.5 0 0 1 -0.5 0.5a0.5 0.5 0 0 1 -0.5 -0.5a0.5 0.5 0 0 0 -0.5 -0.5a0.5 0.5 0 0 1 -0.5 -0.5v-1a0.5 0.5 0 0 1 0.5 -0.5zM25.5 14a0.5 0.5 0 0 1 0.5 0.5v1a0.5 0.5 0 0 1 -0.5 0.5a0.5 0.5 0 0 1 -0.5 -0.5v-1a0.5 0.5 0 0 1 0.5 -0.5zM29.5 14h2a0.5 0.5 0 0 1 0.5 0.5v2a0.5 0.5 0 0 1 -0.5 0.5a0.5 0.5 0 0 1 -0.5 -0.5v-1a0.5 0.5 0 0 0 -0.5 -0.5a0.5 0.5 0 0 0 -0.5 0.5a0.5 0.5 0 0 1 -0.5 0.5a0.5 0.5 0 0 1 -0.5 -0.5v-1a0.5 0.5 0 0 1 0.5 -0.5zM39.5 15h2a0.5 0.5 0 0 1 0.5 0.5a0.5 0.5 0 0 1 -0.5 0.5h-2a0.5 0.5 0 0 1 -0.5 -0.5a0.5 0.5 0 0 1 0.5 -0.5zM23.5 16h1a0.5 0.5 0 0 1 0.5 0.5v1a0.5 0.5 0 0 0 0.5 0.5a0.5 0.5 0 0 1 0.5 0.5a0.5 0.5 0 0 1 -0.5 0.5h-1a0.5 0.5 0 0 0 -0.5 0.5v1a0.5 0.5 0 0 0 0.5 0.5h1a0.5 0.5 0 0 0 0.5 -0.5a0.5 0.5 0 0 1 0.5 -0.5a0.5 0.5 0 0 1 0.5 0.5v1a0.5 0.5 0 0 1 -0.5 0.5a0.5 0.5 0 0 0 -0.5 0.5a0.5 0.5 0 0 0 0.5 0.5h1a0.5 0.5 0 0 1 0.5 0.5v1a0.5 0.5 0 0 0 0.5 0.5h1a0.5 0.5 0 0 1 0.5 0.5v1a0.5 0.5 0 0 1 -0.5 0.5h-1a0.5 0.5 0 0 0 -0.5 0.5a0.5 0.5 0 0 1 -0.5 0.5a0.5 0.5 0 0 0 -0.5 0.5a0.5 0.5 0 0 1 -0.5 0.5a0.5 0.5 0 0 1 -0.5 -0.5a0.5 0.5 0 0 0 -0.5 -0.5a0.5 0.5 0 0 0 -0.5 0.5v1a0.5 0.5 0 0 0 0.5 0.5h1a0.5 0.5 0 0 0 0.5 -0.5a0.5 0.5 0 0 1 0.5 -0.5h1a0.5 0.5 0 0 1 0.5 0.5a0.5 0.5 0 0 1 -0.5 0.5a0.5 0.5 0 0 0 -0.5 0.5a0.5 0.5 0 0 1 -0.5 0.5h-3a0.5 0.5 0 0 1 -0.5 -0.5a0.5 0.5 0 0 0 -0.5 -0.5h-1a0.5 0.5 0 0 0 -0.5 0.5v1a0.5 0.5 0 0 1 -0.5 0.5a0.5 0.5 0 0 1 -0.5 -0.5a0.5 0.5 0 0 0 -0.5 -0.5a0.5 0.5 0 0 0 -0.5 0.5a0.5 0.5 0 0 1 -0.5 0.5a0.5 0.5 0 0 1 -0.5 -0.5v-1a0.5 0.5 0 0 1 0.5 -0.5h1a0.5 0.5 0 0 0 0.5 -0.5v-1a0.5 0.5 0 0 1 0.5 -0.5a0.5 0.5 0 0 0 0.5 -0.5a0.5 0.5 0 0 0 -0.5 -0.5a0.5 0.5 0 0 1 -0.5 -0.5a0.5 0.5 0 0 0 -0.5 -0.5h-1a0.5 0.5 0 0 1 -0.5 -0.5a0.5 0.5 0 0 1 0.5 -0.5h3a0.5 0.5 0 0 0 0.5 -0.5a0.5 0.5 0 0 0 -0.5 -0.5h-1a0.5 0.5 0 0 1 -0.5 -0.5a0.5 0.5 0 0 1 0.5 -0.5h1a0.5 0.5 0 0 0 0.5 -0.5v-1a0.5 0.5 0 0 0 -0.5 -0.5h-1a0.5 0.5 0 0 1 -0.5 -0.5v-2a0.5 0.5 0 0 1 0.5 -0.5a0.5 0.5 0 0 0 0.5 -0.5a0.5 0.5 0 0 1 0.5 -0.5a0.5 0.5 0 0 0 0.5 -0.5a0.5 0.5 0 0 1 0.5 -0.5zM27.5 16a0.5 0.5 0 0 1 0.5 0.5v1a0.5 0.5 0 0 1 -0.5 0.5h-1a0.5 0.5 0 0 1 -0.5 -0.5a0.5 0.5 0 0 1 0.5 -0.5a0.5 0.5 0 0 0 0.5 -0.5a0.5 0.5 0 0 1 0.5 -0.5zM12.5 17a0.5 0.5 0 0 1 0.5 0.5v1a0.5 0.5 0 0 1 -0.5 0.5a0.5 0.5 0 0 1 -0.5 -0.5v-1a0.5 0.5 0 0 1 0.5 -0.5zM1.5 18h2a0.5 0.5 0 0 1 0.5 0.5a0.5 0.5 0 0 1 -0.5 0.5a0.5 0.5 0 0 0 -0.5 0.5a0.5 0.5 0 0 1 -0.5 0.5h-1a0.5 0.5 0 0 1 -0.5 -0.5v-1a0.5 0.5 0 0 1 0.5 -0.5zM6.5 18a0.5 0.5 0 0 1 0.5 0.5a0.5 0.5 0 0 0 0.5 0.5a0.5 0.5 0 0 1 0.5 0.5a0.5 0.5 0 0 1 -0.5 0.5a0.5 0.5 0 0 0 -0.5 0.5a0.5 0.5 0 0 0 0.5 0.5a0.5 0.5 0 0 1 0.5 0.5a0.5 0.5 0 0 1 -0.5 0.5a0.5 0.5 0 0 0 -0.5 0.5a0.5 0.5 0 0 0 0.5 0.5a0.5 0.5 0 0 0 0.5 -0.5a0.5 0.5 0 0 1 0.5 -0.5a0.5 0.5 0 0 1 0.5 0.5a0.5 0.5 0 0 0 0.5 0.5a0.5 0.5 0 0 1 0.5 0.5v1a0.5 0.5 0 0 0 0.5 0.5a0.5 0.5 0 0 1 0.5 0.5a0.5 0.5 0 0 1 -0.5 0.5a0.5 0.5 0 0 0 -0.5 0.5v3a0.5 0.5 0 0 1 -0.5 0.5a0.5 0.5 0 0 1 -0.5 -0.5a0.5 0.5 0 0 0 -0.5 -0.5a0.5 0.5 0 0 1 -0.5 -0.5a0.5 0.5 0 0 0 -0.5 -0.5a0.5 0.5 0 0 0 -0.5 0.5a0.5 0.5 0 0 0 0.5 0.5a0.5 0.5 0 0 1 0.5 0.5a0.5 0.5 0 0 1 -0.5 0.5a0.5 0.5 0 0 0 -0.5 0.5a0.5 0.5 0 0 0 0.5 0.5a0.5 0.5 0 0 1 0.5 0.5a0.5 0.5 0 0 1 -0.5 0.5a0.5 0.5 0 0 0 -0.5 0.5a0.5 0.5 0 0 1 -0.5 0.5a0.5 0.5 0 0 1 -0.5 -0.5v-1a0.5 0.5 0 0 0 -0.5 -0.5h-1a0.5 0.5 0 0 1 -0.5 -0.5a0.5 0.5 0 0 1 0.5 -0.5h1a0.5 0.5 0 0 0 0.5 -0.5v-1a0.5 0.5 0 0 0 -0.5 -0.5h-1a0.5 0.5 0 0 0 -0.5 0.5v1a0.5 0.5 0 0 1 -0.5 0.5h-1a0.5 0.5 0 0 0 -0.5 0.5a0.5 0.5 0 0 1 -0.5 0.5a0.5 0.5 0 0 1 -0.5 -0.5v-3a0.5 0.5 0 0 1 0.5 -0.5a0.5 0.5 0 0 1 0.5 0.5a0.5 0.5 0 0 0 0.5 0.5a0.5 0.5 0 0 0 0.5 -0.5a0.5 0.5 0 0 1 0.5 -0.5a0.5 0.5 0 0 0 0.5 -0.5a0.5 0.5 0 0 1 0.5 -0.5a0.5 0.5 0 0 0 0.5 -0.5a0.5 0.5 0 0 0 -0.5 -0.5a0.5 0.5 0 0 1 -0.5 -0.5a0.5 0.5 0 0 1 0.5 -0.5a0.5 0.5 0 0 0 0.5 -0.5a0.5 0.5 0 0 1 0.5 -0.5a0.5 0.5 0 0 0 0.5 -0.5v-1a0.5 0.5 0 0 0 -0.5 -0.5a0.5 0.5 0 0 1 -0.5 -0.5v-1a0.5 0.5 0 0 1 0.5 -0.5a0.5 0.5 0 0 0 0.5 -0.5a0.5 0.5 0 0 1 0.5 -0.5zM16.5 18h1a0.5 0.5 0 0 1 0.5 0.5a0.5 0.5 0 0 1 -0.5 0.5h-1a0.5 0.5 0 0 1 -0.5 -0.5a0.5 0.5 0 0 1 0.5 -0.5zM22 19.5a0.5 0.5 0 0 0 0.5 0.5a0.5 0.5 0 0 0 0.5 -0.5a0.5 0.5 0 0 0 -0.5 -0.5a0.5 0.5 0 0 0 -0.5 0.5zM2.5 21a0.5 0.5 0 0 1 0.5 0.5v1a0.5 0.5 0 0 1 -0.5 0.5a0.5 0.5 0 0 0 -0.5 0.5a0.5 0.5 0 0 1 -0.5 0.5a0.5 0.5 0 0 1 -0.5 -0.5v-1a0.5 0.5 0 0 1 0.5 -0.5a0.5 0.5 0 0 0 0.5 -0.5a0.5 0.5 0 0 1 0.5 -0.5zM30.5 21h1a0.5 0.5 0 0 1 0.5 0.5a0.5 0.5 0 0 1 -0.5 0.5h-1a0.5 0.5 0 0 1 -0.5 -0.5a0.5 0.5 0 0 1 0.5 -0.5zM24 22.5a0.5 0.5 0 0 0 0.5 0.5a0.5 0.5 0 0 0 0.5 -0.5a0.5 0.5 0 0 0 -0.5 -0.5a0.5 0.5 0 0 0 -0.5 0.5zM11.5 23a0.5 0.5 0 0 1 0.5 0.5v1a0.5 0.5 0 0 1 -0.5 0.5a0.5 0.5 0 0 1 -0.5 -0.5v-1a0.5 0.5 0 0 1 0.5 -0.5zM32.5 23a0.5 0.5 0 0 1 0.5 0.5v1a0.5 0.5 0 0 0 0.5 0.5a0.5 0.5 0 0 1 0.5 0.5a0.5 0.5 0 0 1 -0.5 0.5a0.5 0.5 0 0 0 -0.5 0.5a0.5 0.5 0 0 1 -0.5 0.5a0.5 0.5 0 0 1 -0.5 -0.5v-1a0.5 0.5 0 0 0 -0.5 -0.5a0.5 0.5 0 0 1 -0.5 -0.5a0.5 0.5 0 0 1 0.5 -0.5a0.5 0.5 0 0 0 0.5 -0.5a0.5 0.5 0 0 1 0.5 -0.5zM48.5 23h1a0.5 0.5 0 0 1 0.5 0.5v1a0.5 0.5 0 0 1 -0.5 0.5a0.5 0.5 0 0 1 -0.5 -0.5a0.5 0.5 0 0 0 -0.5 -0.5a0.5 0.5 0 0 1 -0.5 -0.5a0.5 0.5 0 0 1 0.5 -0.5zM6 24.5v2a0.5 0.5 0 0 0 0.5 0.5h2a0.5 0.5 0 0 0 0.5 -0.5v-2a0.5 0.5 0 0 0 -0.5 -0.5h-2a0.5 0.5 0 0 0 -0.5 0.5zM16.5 24h2a0.5 0.5 0 0 1 0.5 0.5a0.5 0.5 0 0 1 -0.5 0.5a0.5 0.5 0 0 0 -0.5 0.5a0.5 0.5 0 0 1 -0.5 0.5a0.5 0.5 0 0 1 -0.5 -0.5a0.5 0.5 0 0 0 -0.5 -0.5a0.5 0.5 0 0 1 -0.5 -0.5a0.5 0.5 0 0 1 0.5 -0.5zM24 24.5v2a0.5 0.5 0 0 0 0.5 0.5h2a0.5 0.5 0 0 0 0.5 -0.5v-2a0.5 0.5 0 0 0 -0.5 -0.5h-2a0.5 0.5 0 0 0 -0.5 0.5zM42 24.5v2a0.5 0.5 0 0 0 0.5 0.5h2a0.5 0.5 0 0 0 0.5 -0.5v-2a0.5 0.5 0 0 0 -0.5 -0.5h-2a0.5 0.5 0 0 0 -0.5 0.5zM2.5 25h1a0.5 0.5 0 0 1 0.5 0.5a0.5 0.5 0 0 1 -0.5 0.5h-1a0.5 0.5 0 0 1 -0.5 -0.5a0.5 0.5 0 0 1 0.5 -0.5zM14.5 25a0.5 0.5 0 0 1 0.5 0.5v2a0.5 0.5 0 0 0 0.5 0.5a0.5 0.5 0 0 0 0.5 -0.5a0.5 0.5 0 0 1 0.5 -0.5a0.5 0.5 0 0 1 0.5 0.5a0.5 0.5 0 0 0 0.5 0.5a0.5 0.5 0 0 1 0.5 0.5a0.5 0.5 0 0 1 -0.5 0.5a0.5 0.5 0 0 0 -0.5 0.5a0.5 0.5 0 0 0 0.5 0.5a0.5 0.5 0 0 1 0.5 0.5v1a0.5 0.5 0 0 1 -0.5 0.5a0.5 0.5 0 0 1 -0.5 -0.5a0.5 0.5 0 0 0 -0.5 -0.5a0.5 0.5 0 0 1 -0.5 -0.5v-1a0.5 0.5 0 0 0 -0.5 -0.5h-1a0.5 0.5 0 0 1 -0.5 -0.5v-1a0.5 0.5 0 0 0 -0.5 -0.5a0.5 0.5 0 0 0 -0.5 0.5v1a0.5 0.5 0 0 1 -0.5 0.5a0.5 0.5 0 0 0 -0.5 0.5a0.5 0.5 0 0 0 0.5 0.5h1a0.5 0.5 0 0 1 0.5 0.5v1a0.5 0.5 0 0 0 0.5 0.5a0.5 0.5 0 0 0 0.5 -0.5a0.5 0.5 0 0 1 0.5 -0.5a0.5 0.5 0 0 1 0.5 0.5v1a0.5 0.5 0 0 0 0.5 0.5a0.5 0.5 0 0 1 0.5 0.5v1a0.5 0.5 0 0 0 0.5 0.5a0.5 0.5 0 0 1 0.5 0.5a0.5 0.5 0 0 1 -0.5 0.5a0.5 0.5 0 0 0 -0.5 0.5v1a0.5 0.5 0 0 0 0.5 0.5a0.5 0.5 0 0 1 0.5 0.5a0.5 0.5 0 0 1 -0.5 0.5a0.5 0.5 0 0 0 -0.5 0.5a0.5 0.5 0 0 1 -0.5 0.5a0.5 0.5 0 0 0 -0.5 0.5v1a0.5 0.5 0 0 1 -0.5 0.5a0.5 0.5 0 0 1 -0.5 -0.5a0.5 0.5 0 0 0 -0.5 -0.5a0.5 0.5 0 0 1 -0.5 -0.5a0.5 0.5 0 0 0 -0.5 -0.5a0.5 0.5 0 0 1 -0.5 -0.5a0.5 0.5 0 0 1 0.5 -0.5a0.5 0.5 0 0 0 0.5 -0.5a0.5 0.5 0 0 1 0.5 -0.5a0.5 0.5 0 0 1 0.5 0.5a0.5 0.5 0 0 0 0.5 0.5a0.5 0.5 0 0 0 0.5 -0.5a0.5 0.5 0 0 0 -0.5 -0.5a0.5 0.5 0 0 1 -0.5 -0.5a0.5 0.5 0 0 1 0.5 -0.5a0.5 0.5 0 0 0 0.5 -0.5v-1a0.5 0.5 0 0 0 -0.5 -0.5a0.5 0.5 0 0 0 -0.5 0.5a0.5 0.5 0 0 1 -0.5 0.5a0.5 0.5 0 0 0 -0.5 0.5v1a0.5 0.5 0 0 1 -0.5 0.5a0.5 0.5 0 0 1 -0.5 -0.5a0.5 0.5 0 0 0 -0.5 -0.5h-2a0.5 0.5 0 0 1 -0.5 -0.5a0.5 0.5 0 0 0 -0.5 -0.5h-2a0.5 0.5 0 0 0 -0.5 0.5a0.5 0.5 0 0 1 -0.5 0.5a0.5 0.5 0 0 1 -0.5 -0.5v-2a0.5 0.5 0 0 1 0.5 -0.5a0.5 0.5 0 0 1 0.5 0.5a0.5 0.5 0 0 0 0.5 0.5a0.5 0.5 0 0 0 0.5 -0.5a0.5 0.5 0 0 0 -0.5 -0.5a0.5 0.5 0 0 1 -0.5 -0.5a0.5 0.5 0 0 1 0.5 -0.5h1a0.5 0.5 0 0 1 0.5 0.5v1a0.5 0.5 0 0 0 0.5 0.5a0.5 0.5 0 0 0 0.5 -0.5a0.5 0.5 0 0 1 0.5 -0.5a0.5 0.5 0 0 1 0.5 0.5v1a0.5 0.5 0 0 0 0.5 0.5a0.5 0.5 0 0 0 0.5 -0.5v-1a0.5 0.5 0 0 0 -0.5 -0.5a0.5 0.5 0 0 1 -0.5 -0.5v-1a0.5 0.5 0 0 1 0.5 -0.5h1a0.5 0.5 0 0 0 0.5 -0.5a0.5 0.5 0 0 0 -0.5 -0.5h-2a0.5 0.5 0 0 1 -0.5 -0.5a0.5 0.5 0 0 1 0.5 -0.5a0.5 0.5 0 0 0 0.5 -0.5v-1a0.5 0.5 0 0 1 0.5 -0.5a0.5 0.5 0 0 0 0.5 -0.5a0.5 0.5 0 0 0 -0.5 -0.5a0.5 0.5 0 0 1 -0.5 -0.5a0.5 0.5 0 0 1 0.5 -0.5h2a0.5 0.5 0 0 0 0.5 -0.5a0.5 0.5 0 0 1 0.5 -0.5zM32.5 28h1a0.5 0.5 0 0 1 0.5 0.5a0.5 0.5 0 0 1 -0.5 0.5a0.5 0.5 0 0 0 -0.5 0.5a0.5 0.5 0 0 1 -0.5 0.5a0.5 0.5 0 0 0 -0.5 0.5a0.5 0.5 0 0 1 -0.5 0.5h-2a0.5 0.5 0 0 1 -0.5 -0.5a0.5 0.5 0 0 1 0.5 -0.5a0.5 0.5 0 0 0 0.5 -0.5a0.5 0.5 0 0 1 0.5 -0.5h1a0.5 0.5 0 0 0 0.5 -0.5a0.5 0.5 0 0 1 0.5 -0.5zM43.5 29a0.5 0.5 0 0 1 0.5 0.5a0.5 0.5 0 0 0 0.5 0.5a0.5 0.5 0 0 1 0.5 0.5a0.5 0.5 0 0 1 -0.5 0.5a0.5 0.5 0 0 0 -0.5 0.5a0.5 0.5 0 0 1 -0.5 0.5a0.5 0.5 0 0 1 -0.5 -0.5a0.5 0.5 0 0 0 -0.5 -0.5a0.5 0.5 0 0 1 -0.5 -0.5a0.5 0.5 0 0 1 0.5 -0.5a0.5 0.5 0 0 0 0.5 -0.5a0.5 0.5 0 0 1 0.5 -0.5zM3.5 31a0.5 0.5 0 0 1 0.5 0.5v1a0.5 0.5 0 0 1 -0.5 0.5a0.5 0.5 0 0 1 -0.5 -0.5v-1a0.5 0.5 0 0 1 0.5 -0.5zM9.5 31a0.5 0.5 0 0 1 0.5 0.5v1a0.5 0.5 0 0 1 -0.5 0.5a0.5 0.5 0 0 1 -0.5 -0.5v-1a0.5 0.5 0 0 1 0.5 -0.5zM23.5 31a0.5 0.5 0 0 1 0.5 0.5v1a0.5 0.5 0 0 0 0.5 0.5h1a0.5 0.5 0 0 1 0.5 0.5v1a0.5 0.5 0 0 1 -0.5 0.5a0.5 0.5 0 0 1 -0.5 -0.5a0.5 0.5 0 0 0 -0.5 -0.5a0.5 0.5 0 0 0 -0.5 0.5a0.5 0.5 0 0 0 0.5 0.5a0.5 0.5 0 0 1 0.5 0.5v1a0.5 0.5 0 0 1 -0.5 0.5a0.5 0.5 0 0 0 -0.5 0.5a0.5 0.5 0 0 0 0.5 0.5a0.5 0.5 0 0 1 0.5 0.5a0.5 0.5 0 0 0 0.5 0.5a0.5 0.5 0 0 0 0.5 -0.5a0.5 0.5 0 0 1 0.5 -0.5h2a0.5 0.5 0 0 0 0.5 -0.5a0.5 0.5 0 0 0 -0.5 -0.5h-2a0.5 0.5 0 0 1 -0.5 -0.5v-1a0.5 0.5 0 0 1 0.5 -0.5a0.5 0.5 0 0 1 0.5 0.5a0.5 0.5 0 0 0 0.5 0.5a0.5 0.5 0 0 0 0.5 -0.5a0.5 0.5 0 0 0 -0.5 -0.5a0.5 0.5 0 0 1 -0.5 -0.5v-1a0.5 0.5 0 0 0 -0.5 -0.5a0.5 0.5 0 0 1 -0.5 -0.5a0.5 0.5 0 0 1 0.5 -0.5h1a0.5 0.5 0 0 1 0.5 0.5v1a0.5 0.5 0 0 0 0.5 0.5a0.5 0.5 0 0 0 0.5 -0.5v-1a0.5 0.5 0 0 1 0.5 -0.5h1a0.5 0.5 0 0 1 0.5 0.5v1a0.5 0.5 0 0 1 -0.5 0.5a0.5 0.5 0 0 0 -0.5 0.5a0.5 0.5 0 0 0 0.5 0.5h3a0.5 0.5 0 0 1 0.5 0.5a0.5 0.5 0 0 0 0.5 0.5a0.5 0.5 0 0 1 0.5 0.5v1a0.5 0.5 0 0 1 -0.5 0.5h-1a0.5 0.5 0 0 1 -0.5 -0.5v-1a0.5 0.5 0 0 0 -0.5 -0.5a0.5 0.5 0 0 0 -0.5 0.5v1a0.5 0.5 0 0 1 -0.5 0.5a0.5 0.5 0 0 1 -0.5 -0.5a0.5 0.5 0 0 0 -0.5 -0.5a0.5 0.5 0 0 0 -0.5 0.5v1a0.5 0.5 0 0 1 -0.5 0.5a0.5 0.5 0 0 0 -0.5 0.5a0.5 0.5 0 0 1 -0.5 0.5a0.5 0.5 0 0 0 -0.5 0.5v1a0.5 0.5 0 0 0 0.5 0.5a0.5 0.5 0 0 1 0.5 0.5v1a0.5 0.5 0 0 1 -0.5 0.5a0.5 0.5 0 0 0 -0.5 0.5a0.5 0.5 0 0 0 0.5 0.5h1a0.5 0.5 0 0 0 0.5 -0.5a0.5 0.5 0 0 1 0.5 -0.5a0.5 0.5 0 0 1 0.5 0.5a0.5 0.5 0 0 0 0.5 0.5h1a0.5 0.5 0 0 1 0.5 0.5a0.5 0.5 0 0 1 -0.5 0.5h-2a0.5 0.5 0 0 0 -0.5 0.5a0.5 0.5 0 0 0 0.5 0.5a0.5 0.5 0 0 1 0.5 0.5v2a0.5 0.5 0 0 1 -0.5 0.5h-1a0.5 0.5 0 0 1 -0.5 -0.5v-2a0.5 0.5 0 0 0 -0.5 -0.5a0.5 0.5 0 0 1 -0.5 -0.5a0.5 0.5 0 0 0 -0.5 -0.5a0.5 0.5 0 0 0 -0.5 0.5a0.5 0.5 0 0 0 0.5 0.5a0.5 0.5 0 0 1 0.5 0.5v2a0.5 0.5 0 0 1 -0.5 0.5a0.5 0.5 0 0 1 -0.5 -0.5v-1a0.5 0.5 0 0 0 -0.5 -0.5a0.5 0.5 0 0 1 -0.5 -0.5a0.5 0.5 0 0 0 -0.5 -0.5h-2a0.5 0.5 0 0 1 -0.5 -0.5a0.5 0.5 0 0 0 -0.5 -0.5a0.5 0.5 0 0 1 -0.5 -0.5a0.5 0.5 0 0 1 0.5 -0.5a0.5 0.5 0 0 0 0.5 -0.5v-2a0.5 0.5 0 0 0 -0.5 -0.5a0.5 0.5 0 0 1 -0.5 -0.5a0.5 0.5 0 0 0 -0.5 -0.5a0.5 0.5 0 0 1 -0.5 -0.5a0.5 0.5 0 0 1 0.5 -0.5a0.5 0.5 0 0 0 0.5 -0.5a0.5 0.5 0 0 1 0.5 -0.5a0.5 0.5 0 0 0 0.5 -0.5v-1a0.5 0.5 0 0 0 -0.5 -0.5a0.5 0.5 0 0 0 -0.5 0.5v1a0.5 0.5 0 0 1 -0.5 0.5a0.5 0.5 0 0 1 -0.5 -0.5v-4a0.5 0.5 0 0 0 -0.5 -0.5a0.5 0.5 0 0 1 -0.5 -0.5a0.5 0.5 0 0 1 0.5 -0.5h1a0.5 0.5 0 0 0 0.5 -0.5a0.5 0.5 0 0 1 0.5 -0.5a0.5 0.5 0 0 0 0.5 -0.5a0.5 0.5 0 0 1 0.5 -0.5zM35.5 31a0.5 0.5 0 0 1 0.5 0.5v1a0.5 0.5 0 0 1 -0.5 0.5h-1a0.5 0.5 0 0 1 -0.5 -0.5a0.5 0.5 0 0 1 0.5 -0.5a0.5 0.5 0 0 0 0.5 -0.5a0.5 0.5 0 0 1 0.5 -0.5zM39.5 31h1a0.5 0.5 0 0 1 0.5 0.5v2a0.5 0.5 0 0 1 -0.5 0.5a0.5 0.5 0 0 1 -0.5 -0.5v-1a0.5 0.5 0 0 0 -0.5 -0.5a0.5 0.5 0 0 1 -0.5 -0.5a0.5 0.5 0 0 1 0.5 -0.5zM45.5 31h1a0.5 0.5 0 0 1 0.5 0.5v2a0.5 0.5 0 0 1 -0.5 0.5a0.5 0.5 0 0 1 -0.5 -0.5v-1a0.5 0.5 0 0 0 -0.5 -0.5a0.5 0.5 0 0 1 -0.5 -0.5a0.5 0.5 0 0 1 0.5 -0.5zM48.5 31h1a0.5 0.5 0 0 1 0.5 0.5v1a0.5 0.5 0 0 1 -0.5 0.5h-1a0.5 0.5 0 0 1 -0.5 -0.5v-1a0.5 0.5 0 0 1 0.5 -0.5zM18.5 32a0.5 0.5 0 0 1 0.5 0.5v1a0.5 0.5 0 0 0 0.5 0.5a0.5 0.5 0 0 1 0.5 0.5a0.5 0.5 0 0 1 -0.5 0.5h-1a0.5 0.5 0 0 1 -0.5 -0.5v-2a0.5 0.5 0 0 1 0.5 -0.5zM37.5 32h1a0.5 0.5 0 0 1 0.5 0.5v1a0.5 0.5 0 0 1 -0.5 0.5a0.5 0.5 0 0 1 -0.5 -0.5a0.5 0.5 0 0 0 -0.5 -0.5a0.5 0.5 0 0 1 -0.5 -0.5a0.5 0.5 0 0 1 0.5 -0.5zM13 33.5v1a0.5 0.5 0 0 0 0.5 0.5a0.5 0.5 0 0 0 0.5 -0.5v-1a0.5 0.5 0 0 0 -0.5 -0.5a0.5 0.5 0 0 0 -0.5 0.5zM32.5 33h1a0.5 0.5 0 0 1 0.5 0.5a0.5 0.5 0 0 1 -0.5 0.5h-1a0.5 0.5 0 0 1 -0.5 -0.5a0.5 0.5 0 0 1 0.5 -0.5zM42.5 33h1a0.5 0.5 0 0 1 0.5 0.5a0.5 0.5 0 0 0 0.5 0.5h1a0.5 0.5 0 0 1 0.5 0.5a0.5 0.5 0 0 1 -0.5 0.5h-1a0.5 0.5 0 0 0 -0.5 0.5a0.5 0.5 0 0 1 -0.5 0.5a0.5 0.5 0 0 1 -0.5 -0.5a0.5 0.5 0 0 0 -0.5 -0.5a0.5 0.5 0 0 1 -0.5 -0.5v-1a0.5 0.5 0 0 1 0.5 -0.5zM22 34.5a0.5 0.5 0 0 0 0.5 0.5a0.5 0.5 0 0 0 0.5 -0.5a0.5 0.5 0 0 0 -0.5 -0.5a0.5 0.5 0 0 0 -0.5 0.5zM35.5 34a0.5 0.5 0 0 1 0.5 0.5a0.5 0.5 0 0 0 0.5 0.5a0.5 0.5 0 0 1 0.5 0.5a0.5 0.5 0 0 1 -0.5 0.5h-1a0.5 0.5 0 0 1 -0.5 -0.5v-1a0.5 0.5 0 0 1 0.5 -0.5zM39.5 34a0.5 0.5 0 0 1 0.5 0.5a0.5 0.5 0 0 0 0.5 0.5a0.5 0.5 0 0 1 0.5 0.5a0.5 0.5 0 0 0 0.5 0.5h1a0.5 0.5 0 0 1 0.5 0.5a0.5 0.5 0 0 0 0.5 0.5a0.5 0.5 0 0 0 0.5 -0.5a0.5 0.5 0 0 1 0.5 -0.5h1a0.5 0.5 0 0 0 0.5 -0.5a0.5 0.5 0 0 1 0.5 -0.5h2a0.5 0.5 0 0 0 0.5 -0.5a0.5 0.5 0 0 1 0.5 -0.5a0.5 0.5 0 0 1 0.5 0.5v1a0.5 0.5 0 0 1 -0.5 0.5a0.5 0.5 0 0 0 -0.5 0.5v1a0.5 0.5 0 0 1 -0.5 0.5a0.5 0.5 0 0 1 -0.5 -0.5v-1a0.5 0.5 0 0 0 -0.5 -0.5a0.5 0.5 0 0 0 -0.5 0.5v1a0.5 0.5 0 0 0 0.5 0.5a0.5 0.5 0 0 1 0.5 0.5a0.5 0.5 0 0 0 0.5 0.5h1a0.5 0.5 0 0 1 0.5 0.5a0.5 0.5 0 0 1 -0.5 0.5h-1a0.5 0.5 0 0 0 -0.5 0.5v1a0.5 0.5 0 0 1 -0.5 0.5a0.5 0.5 0 0 1 -0.5 -0.5v-1a0.5 0.5 0 0 0 -0.5 -0.5a0.5 0.5 0 0 1 -0.5 -0.5v-2a0.5 0.5 0 0 0 -0.5 -0.5a0.5 0.5 0 0 0 -0.5 0.5a0.5 0.5 0 0 1 -0.5 0.5h-2a0.5 0.5 0 0 1 -0.5 -0.5a0.5 0.5 0 0 0 -0.5 -0.5a0.5 0.5 0 0 0 -0.5 0.5v1a0.5 0.5 0 0 0 0.5 0.5a0.5 0.5 0 0 1 0.5 0.5a0.5 0.5 0 0 0 0.5 0.5a0.5 0.5 0 0 1 0.5 0.5a0.5 0.5 0 0 0 0.5 0.5h2a0.5 0.5 0 0 1 0.5 0.5a0.5 0.5 0 0 0 0.5 0.5a0.5 0.5 0 0 1 0.5 0.5a0.5 0.5 0 0 0 0.5 0.5a0.5 0.5 0 0 1 0.5 0.5a0.5 0.5 0 0 1 -0.5 0.5a0.5 0.5 0 0 0 -0.5 0.5a0.5 0.5 0 0 1 -0.5 0.5a0.5 0.5 0 0 0 -0.5 0.5a0.5 0.5 0 0 1 -0.5 0.5a0.5 0.5 0 0 0 -0.5 0.5v1a0.5 0.5 0 0 0 0.5 0.5a0.5 0.5 0 0 0 0.5 -0.5v-1a0.5 0.5 0 0 1 0.5 -0.5a0.5 0.5 0 0 0 0.5 -0.5a0.5 0.5 0 0 1 0.5 -0.5h2a0.5 0.5 0 0 1 0.5 0.5v4a0.5 0.5 0 0 1 -0.5 0.5a0.5 0.5 0 0 1 -0.5 -0.5v-1a0.5 0.5 0 0 0 -0.5 -0.5a0.5 0.5 0 0 1 -0.5 -0.5a0.5 0.5 0 0 1 0.5 -0.5a0.5 0.5 0 0 0 0.5 -0.5a0.5 0.5 0 0 0 -0.5 -0.5a0.5 0.5 0 0 0 -0.5 0.5a0.5 0.5 0 0 1 -0.5 0.5a0.5 0.5 0 0 0 -0.5 0.5v2a0.5 0.5 0 0 1 -0.5 0.5h-3a0.5 0.5 0 0 1 -0.5 -0.5a0.5 0.5 0 0 0 -0.5 -0.5a0.5 0.5 0 0 0 -0.5 0.5a0.5 0.5 0 0 1 -0.5 0.5h-2a0.5 0.5 0 0 1 -0.5 -0.5v-2a0.5 0.5 0 0 0 -0.5 -0.5a0.5 0.5 0 0 0 -0.5 0.5a0.5 0.5 0 0 1 -0.5 0.5h-1a0.5 0.5 0 0 0 -0.5 0.5v1a0.5 0.5 0 0 1 -0.5 0.5a0.5 0.5 0 0 1 -0.5 -0.5v-1a0.5 0.5 0 0 0 -0.5 -0.5h-1a0.5 0.5 0 0 1 -0.5 -0.5a0.5 0.5 0 0 1 0.5 -0.5a0.5 0.5 0 0 0 0.5 -0.5v-1a0.5 0.5 0 0 0 -0.5 -0.5a0.5 0.5 0 0 1 -0.5 -0.5a0.5 0.5 0 0 0 -0.5 -0.5h-1a0.5 0.5 0 0 1 -0.5 -0.5a0.5 0.5 0 0 1 0.5 -0.5a0.5 0.5 0 0 0 0.5 -0.5a0.5 0.5 0 0 1 0.5 -0.5a0.5 0.5 0 0 1 0.5 0.5a0.5 0.5 0 0 0 0.5 0.5a0.5 0.5 0 0 1 0.5 0.5a0.5 0.5 0 0 0 0.5 0.5a0.5 0.5 0 0 0 0.5 -0.5a0.5 0.5 0 0 1 0.5 -0.5a0.5 0.5 0 0 1 0.5 0.5v1a0.5 0.5 0 0 0 0.5 0.5h1a0.5 0.5 0 0 0 0.5 -0.5a0.5 0.5 0 0 1 0.5 -0.5a0.5 0.5 0 0 0 0.5 -0.5a0.5 0.5 0 0 1 0.5 -0.5a0.5 0.5 0 0 1 0.5 0.5v1a0.5 0.5 0 0 0 0.5 0.5a0.5 0.5 0 0 0 0.5 -0.5v-1a0.5 0.5 0 0 0 -0.5 -0.5a0.5 0.5 0 0 1 -0.5 -0.5v-1a0.5 0.5 0 0 0 -0.5 -0.5a0.5 0.5 0 0 1 -0.5 -0.5v-1a0.5 0.5 0 0 1 0.5 -0.5a0.5 0.5 0 0 0 0.5 -0.5a0.5 0.5 0 0 0 -0.5 -0.5a0.5 0.5 0 0 1 -0.5 -0.5a0.5 0.5 0 0 1 0.5 -0.5a0.5 0.5 0 0 0 0.5 -0.5a0.5 0.5 0 0 0 -0.5 -0.5a0.5 0.5 0 0 1 -0.5 -0.5v-1a0.5 0.5 0 0 1 0.5 -0.5zM2.5 35a0.5 0.5 0 0 1 0.5 0.5a0.5 0.5 0 0 0 0.5 0.5a0.5 0.5 0 0 0 0.5 -0.5a0.5 0.5 0 0 1 0.5 -0.5a0.5 0.5 0 0 1 0.5 0.5v2a0.5 0.5 0 0 1 -0.5 0.5a0.5 0.5 0 0 0 -0.5 0.5a0.5 0.5 0 0 1 -0.5 0.5a0.5 0.5 0 0 0 -0.5 0.5a0.5 0.5 0 0 0 0.5 0.5h1a0.5 0.5 0 0 1 0.5 0.5a0.5 0.5 0 0 1 -0.5 0.5a0.5 0.5 0 0 0 -0.5 0.5a0.5 0.5 0 0 1 -0.5 0.5h-2a0.5 0.5 0 0 1 -0.5 -0.5a0.5 0.5 0 0 1 0.5 -0.5a0.5 0.5 0 0 0 0.5 -0.5v-2a0.5 0.5 0 0 1 0.5 -0.5a0.5 0.5 0 0 0 0.5 -0.5a0.5 0.5 0 0 0 -0.5 -0.5a0.5 0.5 0 0 0 -0.5 0.5a0.5 0.5 0 0 1 -0.5 0.5a0.5 0.5 0 0 1 -0.5 -0.5v-1a0.5 0.5 0 0 1 0.5 -0.5a0.5 0.5 0 0 0 0.5 -0.5a0.5 0.5 0 0 1 0.5 -0.5zM9.5 37a0.5 0.5 0 0 1 0.5 0.5a0.5 0.5 0 0 0 0.5 0.5h1a0.5 0.5 0 0 1 0.5 0.5v1a0.5 0.5 0 0 1 -0.5 0.5h-1a0.5 0.5 0 0 1 -0.5 -0.5a0.5 0.5 0 0 0 -0.5 -0.5a0.5 0.5 0 0 1 -0.5 -0.5v-1a0.5 0.5 0 0 1 0.5 -0.5zM6.5 39h1a0.5 0.5 0 0 1 0.5 0.5a0.5 0.5 0 0 1 -0.5 0.5h-1a0.5 0.5 0 0 1 -0.5 -0.5a0.5 0.5 0 0 1 0.5 -0.5zM30.5 39h2a0.5 0.5 0 0 1 0.5 0.5v1a0.5 0.5 0 0 1 -0.5 0.5a0.5 0.5 0 0 0 -0.5 0.5a0.5 0.5 0 0 1 -0.5 0.5h-2a0.5 0.5 0 0 1 -0.5 -0.5a0.5 0.5 0 0 1 0.5 -0.5h1a0.5 0.5 0 0 0 0.5 -0.5a0.5 0.5 0 0 0 -0.5 -0.5a0.5 0.5 0 0 1 -0.5 -0.5a0.5 0.5 0 0 1 0.5 -0.5zM35.5 39a0.5 0.5 0 0 1 0.5 0.5a0.5 0.5 0 0 0 0.5 0.5a0.5 0.5 0 0 1 0.5 0.5a0.5 0.5 0 0 1 -0.5 0.5h-1a0.5 0.5 0 0 1 -0.5 -0.5v-1a0.5 0.5 0 0 1 0.5 -0.5zM43.5 39h1a0.5 0.5 0 0 1 0.5 0.5a0.5 0.5 0 0 1 -0.5 0.5h-1a0.5 0.5 0 0 1 -0.5 -0.5a0.5 0.5 0 0 1 0.5 -0.5zM18.5 40a0.5 0.5 0 0 1 0.5 0.5v1a0.5 0.5 0 0 0 0.5 0.5a0.5 0.5 0 0 1 0.5 0.5a0.5 0.5 0 0 1 -0.5 0.5h-2a0.5 0.5 0 0 0 -0.5 0.5a0.5 0.5 0 0 1 -0.5 0.5a0.5 0.5 0 0 1 -0.5 -0.5v-1a0.5 0.5 0 0 1 0.5 -0.5a0.5 0.5 0 0 0 0.5 -0.5a0.5 0.5 0 0 1 0.5 -0.5a0.5 0.5 0 0 0 0.5 -0.5a0.5 0.5 0 0 1 0.5 -0.5zM23 40.5a0.5 0.5 0 0 0 0.5 0.5h1a0.5 0.5 0 0 0 0.5 -0.5a0.5 0.5 0 0 0 -0.5 -0.5h-1a0.5 0.5 0 0 0 -0.5 0.5zM26 40.5a0.5 0.5 0 0 0 0.5 0.5a0.5 0.5 0 0 0 0.5 -0.5a0.5 0.5 0 0 0 -0.5 -0.5a0.5 0.5 0 0 0 -0.5 0.5zM10.5 41a0.5 0.5 0 0 1 0.5 0.5a0.5 0.5 0 0 0 0.5 0.5h1a0.5 0.5 0 0 1 0.5 0.5a0.5 0.5 0 0 0 0.5 0.5h1a0.5 0.5 0 0 1 0.5 0.5a0.5 0.5 0 0 1 -0.5 0.5h-2a0.5 0.5 0 0 0 -0.5 0.5a0.5 0.5 0 0 1 -0.5 0.5a0.5 0.5 0 0 0 -0.5 0.5a0.5 0.5 0 0 0 0.5 0.5a0.5 0.5 0 0 1 0.5 0.5a0.5 0.5 0 0 0 0.5 0.5a0.5 0.5 0 0 1 0.5 0.5a0.5 0.5 0 0 1 -0.5 0.5a0.5 0.5 0 0 0 -0.5 0.5a0.5 0.5 0 0 1 -0.5 0.5h-1a0.5 0.5 0 0 1 -0.5 -0.5a0.5 0.5 0 0 1 0.5 -0.5a0.5 0.5 0 0 0 0.5 -0.5a0.5 0.5 0 0 0 -0.5 -0.5a0.5 0.5 0 0 1 -0.5 -0.5v-1a0.5 0.5 0 0 0 -0.5 -0.5a0.5 0.5 0 0 1 -0.5 -0.5a0.5 0.5 0 0 1 0.5 -0.5a0.5 0.5 0 0 0 0.5 -0.5a0.5 0.5 0 0 0 -0.5 -0.5a0.5 0.5 0 0 1 -0.5 -0.5a0.5 0.5 0 0 1 0.5 -0.5a0.5 0.5 0 0 0 0.5 -0.5a0.5 0.5 0 0 1 0.5 -0.5zM37.5 41h1a0.5 0.5 0 0 1 0.5 0.5a0.5 0.5 0 0 1 -0.5 0.5a0.5 0.5 0 0 0 -0.5 0.5a0.5 0.5 0 0 1 -0.5 0.5h-1a0.5 0.5 0 0 1 -0.5 -0.5a0.5 0.5 0 0 1 0.5 -0.5a0.5 0.5 0 0 0 0.5 -0.5a0.5 0.5 0 0 1 0.5 -0.5zM21.5 42a0.5 0.5 0 0 1 0.5 0.5v2a0.5 0.5 0 0 1 -0.5 0.5a0.5 0.5 0 0 1 -0.5 -0.5v-2a0.5 0.5 0 0 1 0.5 -0.5zM24 42.5v2a0.5 0.5 0 0 0 0.5 0.5h2a0.5 0.5 0 0 0 0.5 -0.5v-2a0.5 0.5 0 0 0 -0.5 -0.5h-2a0.5 0.5 0 0 0 -0.5 0.5zM42 42.5v2a0.5 0.5 0 0 0 0.5 0.5h2a0.5 0.5 0 0 0 0.5 -0.5v-2a0.5 0.5 0 0 0 -0.5 -0.5h-2a0.5 0.5 0 0 0 -0.5 0.5zM15.5 44a0.5 0.5 0 0 1 0.5 0.5v1a0.5 0.5 0 0 1 -0.5 0.5a0.5 0.5 0 0 1 -0.5 -0.5v-1a0.5 0.5 0 0 1 0.5 -0.5zM17.5 45a0.5 0.5 0 0 1 0.5 0.5v1a0.5 0.5 0 0 0 0.5 0.5h1a0.5 0.5 0 0 0 0.5 -0.5a0.5 0.5 0 0 1 0.5 -0.5h1a0.5 0.5 0 0 1 0.5 0.5a0.5 0.5 0 0 0 0.5 0.5a0.5 0.5 0 0 1 0.5 0.5a0.5 0.5 0 0 1 -0.5 0.5a0.5 0.5 0 0 0 -0.5 0.5v1a0.5 0.5 0 0 1 -0.5 0.5h-1a0.5 0.5 0 0 1 -0.5 -0.5v-1a0.5 0.5 0 0 0 -0.5 -0.5h-1a0.5 0.5 0 0 0 -0.5 0.5a0.5 0.5 0 0 1 -0.5 0.5h-2a0.5 0.5 0 0 0 -0.5 0.5a0.5 0.5 0 0 1 -0.5 0.5h-2a0.5 0.5 0 0 1 -0.5 -0.5a0.5 0.5 0 0 1 0.5 -0.5h1a0.5 0.5 0 0 0 0.5 -0.5a0.5 0.5 0 0 1 0.5 -0.5a0.5 0.5 0 0 0 0.5 -0.5a0.5 0.5 0 0 1 0.5 -0.5a0.5 0.5 0 0 1 0.5 0.5a0.5 0.5 0 0 0 0.5 0.5a0.5 0.5 0 0 0 0.5 -0.5a0.5 0.5 0 0 0 -0.5 -0.5a0.5 0.5 0 0 1 -0.5 -0.5a0.5 0.5 0 0 1 0.5 -0.5a0.5 0.5 0 0 0 0.5 -0.5a0.5 0.5 0 0 1 0.5 -0.5zM36 46.5a0.5 0.5 0 0 0 0.5 0.5a0.5 0.5 0 0 0 0.5 -0.5a0.5 0.5 0 0 0 -0.5 -0.5a0.5 0.5 0 0 0 -0.5 0.5zM40 46.5v1a0.5 0.5 0 0 0 0.5 0.5h1a0.5 0.5 0 0 0 0.5 -0.5a0.5 0.5 0 0 0 -0.5 -0.5a0.5 0.5 0 0 1 -0.5 -0.5a0.5 0.5 0 0 0 -0.5 -0.5a0.5 0.5 0 0 0 -0.5 0.5zM43 46.5v1a0.5 0.5 0 0 0 0.5 0.5a0.5 0.5 0 0 0 0.5 -0.5v-1a0.5 0.5 0 0 0 -0.5 -0.5a0.5 0.5 0 0 0 -0.5 0.5z" fill="#00ff00"></path></svg>