<svg xmlns="http://www.w3.org/2000/svg" xml:space="preserve" width="32" height="31.999" viewBox="5 -10 32 43.199"><switch style="fill:#032c36;fill-opacity:1" transform="translate(-3.098 -12.328) scale(.47998)"><g style="fill:#032c36;fill-opacity:1"><path d="M50 5C25.3 5 5.2 25.1 5 49.7c-.1 12 4.5 23.4 13 31.9 8.4 8.6 19.7 13.3 31.7 13.4h.3c24.7 0 44.8-20.1 45-44.7C95.2 25.5 75.1 5.2 50 5zm-9.2 25.8h28.8c1.6 0 2.9 1.3 2.9 2.9 0 1.6-1.3 2.9-2.9 2.9H40.8c-1.6 0-2.9-1.2-2.9-2.9 0-1.6 1.3-2.9 2.9-2.9zM28.2 69.2H28c-1.6 0-2.9-1.3-2.9-2.9 0-1.6 1.3-2.9 2.9-2.9h.2c1.6 0 2.9 1.2 2.9 2.9 0 1.6-1.3 2.9-2.9 2.9zm0-16.3H28c-1.6 0-2.9-1.3-2.9-2.9 0-1.6 1.3-2.9 2.9-2.9h.2c1.6 0 2.9 1.3 2.9 2.9 0 1.6-1.3 2.9-2.9 2.9zm0-16.3H28c-1.6 0-2.9-1.3-2.9-2.9 0-1.6 1.3-2.9 2.9-2.9h.2c1.6 0 2.9 1.3 2.9 2.9 0 1.6-1.3 2.9-2.9 2.9zM68 69.2H40.8c-1.6 0-2.9-1.3-2.9-2.9 0-1.6 1.3-2.9 2.9-2.9H68c1.6 0 2.9 1.2 2.9 2.9 0 1.6-1.3 2.9-2.9 2.9zm1.833-16.228L40.8 52.9a2.9 2.9 0 1 1 0-5.8l29.033.071a2.9 2.9 0 1 1 0 5.8z" style="fill:#032c36;fill-opacity:1"/></g></switch></svg>