<svg xmlns="http://www.w3.org/2000/svg" id="svg87" viewBox="0 0 42 42"><defs id="defs1"><path id="path42" d="M27 15.47c-.1.42-5 0-6.92-1.27a2.15 2.15 0 0 1-1-2.92 12.1 12.1 0 0 0 3.24.32S27.06 15 27 15.47"/><path id="path55" d="M35 11.76a45 45 0 0 1-4.53 1.83c-1 .21-4.5.35-4.5.35l-.57-2.59 6.2-2.08Z"/><style id="style1">.cls-1{fill:#d20f00}.cls-2{opacity:.15}.cls-3{opacity:.05}.cls-4{fill:#e2211b}.cls-11{opacity:.2}.cls-12{fill:#ef362c}.cls-13{opacity:.1}.cls-16{fill:#fff}</style></defs><path id="path1" d="M36.866 26.744s-1.23-1.83-1.06-2.16c.08-.15.71.32.71.32a6.6 6.6 0 0 1-.51-2.08 6.6 6.6 0 0 1 1.13-2.4 6.6 6.6 0 0 1 .94 2.48 6.7 6.7 0 0 1-.67 2s.66-.42.73-.26c.15.34-1.22 2.06-1.22 2.06z" class="cls-1"/><path id="path2" d="M36.866 26.444s-.88-1.21-.75-1.45.64.24.64.24a10.6 10.6 0 0 1-.49-2.2 4.9 4.9 0 0 1 .87-1.78 4.8 4.8 0 0 1 .67 1.86 12 12 0 0 1-.64 2.21s.63-.3.68-.19c.1.26-.94 1.36-.94 1.36z" class="cls-2"/><g id="g19" class="cls-1" transform="translate(.496 1.324)"><path id="path3" d="M17.16 10.81a1.68 1.68 0 0 1-.54 2.31c-.79.49-.4-.64-.89-1.43s-1.68-.93-.89-1.42a1.69 1.69 0 0 1 2.32.54"/><path id="path4" d="M19.28 9.82a1.68 1.68 0 0 1-.84 2.18c-.85.38-.31-.69-.69-1.53s-1.54-1.11-.7-1.47a1.69 1.69 0 0 1 2.23.82"/><path id="path5" d="M15.26 12a1.68 1.68 0 0 1-.09 2.37c-.68.63-.51-.55-1.14-1.23s-1.82-.61-1.14-1.24a1.68 1.68 0 0 1 2.37.1"/><path id="path6" d="M13.66 13.48a1.69 1.69 0 0 1 .21 2.37c-.6.71-.58-.48-1.29-1.08s-1.89-.37-1.29-1.08a1.69 1.69 0 0 1 2.37-.21"/><path id="path7" d="M12.32 15.23a1.68 1.68 0 0 1 .39 2.35c-.54.75-.61-.44-1.37-1s-1.9-.23-1.36-1a1.68 1.68 0 0 1 2.34-.35"/><path id="path8" d="M11.26 17.15a1.67 1.67 0 0 1 .74 2.26c-.42.82-.67-.35-1.49-.77s-1.92.06-1.5-.77a1.69 1.69 0 0 1 2.25-.72"/><path id="path9" d="M10.3 19.15a1.69 1.69 0 0 1 1.14 2.09c-.26.89-.72-.21-1.62-.47s-1.87.41-1.61-.48a1.69 1.69 0 0 1 2.09-1.14"/><path id="path10" d="M10 21.35a1.68 1.68 0 0 1 1.38 1.93c-.15.92-.74-.12-1.66-.27s-1.81.64-1.66-.28A1.69 1.69 0 0 1 10 21.35"/><path id="path11" d="M9.8 23.73a1.67 1.67 0 0 1 1.55 1.79c-.07.93-.75-.05-1.68-.12s-1.74.81-1.67-.12a1.67 1.67 0 0 1 1.8-1.55"/><path id="path12" d="M9.83 25.94a1.68 1.68 0 0 1 1.94 1.37c.16.92-.74.13-1.66.29s-1.5 1.2-1.65.28a1.68 1.68 0 0 1 1.37-1.94"/><path id="path13" d="M10.41 28.44a1.68 1.68 0 0 1 2.26.74c.42.83-.67.34-1.5.76s-1.08 1.58-1.5.75a1.67 1.67 0 0 1 .74-2.25"/><path id="path14" d="M12 30.85a1.67 1.67 0 0 1 2.31.54c.49.79-.64.4-1.43.89s-.93 1.67-1.42.88a1.67 1.67 0 0 1 .54-2.31"/><path id="path15" d="M14 32.89a1.68 1.68 0 0 1 2.37-.17c.7.61-.49.57-1.1 1.27s-.4 1.88-1.1 1.27a1.68 1.68 0 0 1-.17-2.37"/><path id="path16" d="M16.58 34.45a1.68 1.68 0 0 1 2.42-.17c.7.61-.5.57-1.1 1.27s-.4 1.88-1.1 1.27a1.68 1.68 0 0 1-.22-2.37"/><path id="path17" d="M18.88 35.77a1.35 1.35 0 0 1 1.77-.68c.68.31-.24.55-.55 1.23s.13 1.52-.54 1.22a1.34 1.34 0 0 1-.68-1.77"/><path id="path18" d="M21.3 36.48a.94.94 0 0 1 1.13-.7c.51.12-.09.41-.21.92s.29 1-.22.92a.94.94 0 0 1-.7-1.14"/><path id="path19" d="M23.22 36.47a.94.94 0 0 1 1-.88c.52 0 0 .42-.06.94s.45 1-.07.94a.94.94 0 0 1-.87-1"/></g><path id="path20" d="M26.496 12.694a10.3 10.3 0 0 1 2-2.07 14.67 14.67 0 0 0-18.32 14.21c0 8.1 6.56 13.49 14.67 13.49s13.17-6.82 12.15-14.45c-1 10-8.92 12.11-12.15 11.72-5.34-.64-9.92-4.82-9.3-10.76.57-5.44 4.33-9 9.3-9h.1a10.1 10.1 0 0 1 1.55-3.14" class="cls-4"/><path id="path21" d="M26.496 11.074c-9.53 0-14.68 6.13-14.68 13.42 0 8.84 6.52 12.77 13 12.77 8 0 12.72-8.69 12.15-13.39-1 10-8.92 12.11-12.15 11.72-5.34-.64-9.92-4.82-9.3-10.76.57-5.44 4.33-9 9.3-9h.1c.36-1.13.9-3.81 1.58-4.76" class="cls-1"/><path id="path22" d="M36.206 27.614c-2.35 6.3-8.14 6.9-11.36 6.63a9.17 9.17 0 0 1-8.42-9.41c0-5 4-9 8.42-9h.1a10.1 10.1 0 0 1 1.55-3.14 11.4 11.4 0 0 0-1.66-.12c-5.7 0-11.34 5.49-11.34 12.26a11.15 11.15 0 0 0 11.35 11.34c5.24 0 10.21-3.68 11.36-8.56" style="fill:#f1b08f"/><path id="path23" d="M36.206 27.614c-2.35 6.3-8.14 6.9-11.36 6.63a9.17 9.17 0 0 1-8.42-9.41c0-5 4-9 8.42-9h.1a10.3 10.3 0 0 1 .55-1.51c-4.06-.19-10.5 3.74-10.5 10.51a10 10 0 0 0 9.82 10.36c6.27 0 10.42-3.28 11.39-7.58" style="opacity:.15;fill:#a05c3f"/><g id="g37" style="fill:#a05c3f;opacity:.6" transform="translate(.496 1.324)"><path id="path24" d="M33.87 29.77a.4.4 0 0 0-.06-.15l-.17.19h.08a.27.27 0 0 0 .15-.04"/><path id="path25" d="M32.3 31.39a2.4 2.4 0 0 1-.27-.23l-.24.16a.6.6 0 0 0 .25.12.4.4 0 0 0 .26-.05"/><path id="path26" d="M29.88 32.78a.7.7 0 0 0 .39.13 4 4 0 0 1-.47-.57v-.05l-.26.09a.6.6 0 0 0 .06.11.8.8 0 0 0 .28.29"/><path id="path27" d="M27.24 33.41a1.2 1.2 0 0 0 .39.36 5 5 0 0 1-.35-.9h-.27a1.5 1.5 0 0 0 .23.54"/><path id="path28" d="M24.31 33.63a1.6 1.6 0 0 0 .25.54 6 6 0 0 1 0-1.12v-.11h-.26a.4.4 0 0 0 0 .11 2 2 0 0 0 .01.58"/><path id="path29" d="M21.3 33.17a1.65 1.65 0 0 0 .08.7 5 5 0 0 1 .35-1.29l.11-.22-.25-.09a1.3 1.3 0 0 0-.11.2 2.1 2.1 0 0 0-.18.7"/><path id="path30" d="M18.82 31.88a2.1 2.1 0 0 0 0 .82 5 5 0 0 1 .58-1.46l.13-.18-.2-.17a1.4 1.4 0 0 0-.15.21 2.4 2.4 0 0 0-.36.78"/><path id="path31" d="M16.73 29.89a2.3 2.3 0 0 0-.29.85 4.7 4.7 0 0 1 1-1.37l.22-.18-.1-.19a3 3 0 0 0-.26.19 2.7 2.7 0 0 0-.57.7"/><path id="path32" d="M15.18 27.42a2.4 2.4 0 0 0-.49.84 4.7 4.7 0 0 1 .64-.69 3.2 3.2 0 0 1 .76-.52l.41-.17c0-.08-.05-.16-.08-.24a3 3 0 0 0-.45.17 2.6 2.6 0 0 0-.79.61"/><path id="path33" d="M14.48 24.65a3 3 0 0 0-.84.57 6 6 0 0 1 1.85-.59 4 4 0 0 1 .5 0v-.26a4 4 0 0 0-.5 0 3.3 3.3 0 0 0-1.01.28"/><path id="path34" d="M14.57 21.79a3.1 3.1 0 0 0-1 .28 6.4 6.4 0 0 1 1.9 0 3 3 0 0 1 .51.12 2 2 0 0 1 0-.25 3 3 0 0 0-.5-.14 3.7 3.7 0 0 0-.91-.01"/><path id="path35" d="M15.35 19.19a2.8 2.8 0 0 0-1 .13 4.7 4.7 0 0 1 1.88.34 4 4 0 0 1 .42.21l.11-.24c-.15-.08-.29-.17-.45-.24a2.9 2.9 0 0 0-.96-.2"/><path id="path36" d="M16.78 17a2.9 2.9 0 0 0-1.09-.14 5.7 5.7 0 0 1 1 .34 4.3 4.3 0 0 1 .91.52 3 3 0 0 1 .25.21c.06-.07.11-.14.17-.2a3 3 0 0 0-.26-.22 3.2 3.2 0 0 0-.98-.51"/><path id="path37" d="M18.83 15.09a3.4 3.4 0 0 0-.53-.2l-.3-.07h-.26c-.03 0 .07.05.11.08l.13.06.24.12a5 5 0 0 1 .48.27 4 4 0 0 1 .83.66l.14.16.21-.15a1.5 1.5 0 0 0-.16-.19 3 3 0 0 0-.89-.74"/></g><g id="g72" transform="translate(.496 1.324)"><path id="path38" d="M21.31 11.86c-1.91-.28-2-.44-2-.44a4.8 4.8 0 0 0 .87-1.75c.12-.51 1.13-.51 1.43-.47.04 0 1.61 2.94-.3 2.66" class="cls-2"/><path id="path39" d="M21.49 11.86c-1.91-.28-2-.44-2-.44a4.5 4.5 0 0 0 .85-1.75c.23-1.15 1-1.15 1.28-1.1a1.88 1.88 0 0 1 1.5 1c.12.06.28 2.57-1.63 2.29" style="fill:#b70000"/><path id="path40" d="M27.68 15.69c-.11.43-4.72.89-5.92-.31s-1.33-3.87-1.33-3.87a12.6 12.6 0 0 0 3.24.32s4.12 3.44 4.01 3.86" class="cls-4"/><path id="path41" d="M26.8 15.62c-.11.43-5 0-6.93-1.26a2.17 2.17 0 0 1-1-2.93 12.6 12.6 0 0 0 3.24.33s4.8 3.43 4.69 3.86" class="cls-2"/><use class="cls-1" href="#path42"/><use id="path43" class="cls-3" href="#path42"/><path id="path44" d="M23.13 11.73c-2.23.39-2.88-.23-2.88-.23a4.8 4.8 0 0 0 1.15-2.39c.21-1.65 2.75-1.82 3.77-.41a2.29 2.29 0 0 1-2.04 3.03" class="cls-2"/><path id="path45" d="M23.25 11.93c-2.74-.21-2.82-.42-2.82-.42a6.5 6.5 0 0 0 1-2.57c.21-1.64 1.27-1.72 1.7-1.68a2.65 2.65 0 0 1 2.22 1.31c.15.03.65 3.57-2.1 3.36" style="fill:#c90900"/><path id="path46" d="M23.53 7.37c-.87-1-3.18-4.12-2.61-5.65s2.8-.35 2.2 1a1 1 0 0 1-1.39.63s.69 2.02 1.27 2.34.7-.48-.29-1.35c.57 0 2 1.27.74 1.92 0 .14.71.91.71.91" class="cls-4"/><path id="path47" d="M24.16 7.17s-.75-.77-.71-.91-.79.08.08 1.11z" class="cls-11"/><path id="path48" d="M25.54 7.06c-.41-.76-1.46-3-.9-3.86s1.8.17 1.25.9a.66.66 0 0 1-.95.2s.16 1.37.48 1.65.5-.2 0-.88c.37 0 1.1 1.06.22 1.29 0 .08.33.66.33.66" class="cls-1"/><path id="path49" d="M25.54 7.06a13 13 0 0 1-.6-1.29c0-.16.17-.45.3-.11a1 1 0 0 0 .18.29c.14.12.25.12.3 0s.27.13.23.2a.7.7 0 0 1-.32.17c0 .08.33.66.33.66" class="cls-11"/><path id="path50" d="M23.47 9.93a4.7 4.7 0 0 1-2.78-1c-1.18-1 2.34-.5 3.37-.13z" class="cls-2"/><path id="path51" d="M23.37 9.73a10 10 0 0 1-3.79-1.51c-1.18-1-.92-2.92-.58-3.05s3.93 3 5 3.38z" class="cls-12"/><path id="path52" d="M23.48 9.5a8.64 8.64 0 0 1-3.6-1.57c-.76-.68-.7-1.89-.48-2s2.74 1.87 4.43 2.85z" class="cls-1"/><path id="path53" d="M22 11.35a6.9 6.9 0 0 0 1.27-3.3q-.24.79-.57 1.68c-.2.58-.43 1.13-.7 1.62" class="cls-13"/><path id="path54" d="M35 11.76a45 45 0 0 1-4.53 1.83c-1 .21-4 .66-4 .66l-1.21-1.68.12-1.22 4.51-1.57 1.73-.51z" style="opacity:.1;fill:#fff;stroke:#b0b0b0;stroke-miterlimit:10;stroke-width:.07px"/><use class="cls-1" href="#path55"/><use id="path56" style="opacity:.3" href="#path55"/><path id="path57" d="M30.63 9.7s-4.88 2.1-4.91 2.19-.13.48 0 .48a7.22 7.22 0 0 0 5.16-1.86 1 1 0 0 1-.11.77s0 .05.05.06c.47 0 .81-.54.81-.54a5.14 5.14 0 0 1 2.61 1.27l.44-.19c-.82-1-4.05-2.18-4.05-2.18" class="cls-13"/><path id="path58" d="M34.3 12.82c.11-.15.33-.46.28-.66s-.38-.92-2.77-1.59c0 0-.35.58-.82.54 0 0-.06 0 0-.06a1 1 0 0 0 .1-.77 7.2 7.2 0 0 1-5.15 1.86c-.16 0-.5-.11-.47-.2s5.35-2.47 5.35-2.47 3.87 1.41 4.24 2.45a.79.79 0 0 1-.68 1 .064.064 0 0 1-.08-.1" class="cls-16"/><path id="path59" d="M34.3 12.82c.11-.15.33-.46.28-.66s-.38-.92-2.77-1.59c0 0-.35.58-.82.54 0 0-.06 0 0-.06a1 1 0 0 0 .1-.77 3 3 0 0 0-.19-.63c.28 0 3.31 1.12 4.22 2.36.09.39-.42.89-.74.9a.06.06 0 0 1-.08-.09" class="cls-13"/><path id="path60" d="M30.54 11.88h-.06a3.4 3.4 0 0 1-.36.94 6.7 6.7 0 0 1-3.67.6 9.5 9.5 0 0 0 4 .38c.72.29.47-1.7.09-1.92" class="cls-13"/><path id="path61" d="M33.53 14.08a1.2 1.2 0 0 1-.17.65 4 4 0 0 0-.59-.59 5.6 5.6 0 0 0-1.81-1s0-1-.34-1.24h-.06a3.7 3.7 0 0 1-.36.94 6.7 6.7 0 0 1-3.67.6 9.45 9.45 0 0 0 4 .38 4.58 4.58 0 0 1 2.75 1.78c.11.14.7-.77.28-1.53.01-.01-.03-.02-.03.01" class="cls-16"/><path id="path62" d="M33.53 14.08a1.2 1.2 0 0 1-.17.65 4 4 0 0 0-.59-.59 5.6 5.6 0 0 0-1.81-1s0-1-.34-1.24h-.06c.38.49-.4 1.47-.1 1.93a4.83 4.83 0 0 1 2.89 1.79c.11.14.65-.79.23-1.55-.01-.01-.05-.02-.05.01" class="cls-13"/><path id="path63" d="M30.86 9.65a7.07 7.07 0 0 1-4.95 2.2c-3.33.17-3.88-.5-3.88-.5a7.8 7.8 0 0 0 1.24-3.09c.26-2 1.16-2.94 4.72-.45a8.5 8.5 0 0 0 3.2.61c1.6.14-.33 1.23-.33 1.23" class="cls-1"/><path id="path64" d="M22 11.4s-1.19 3.36.93 4.53c3.1 1.05 8.76 1.15 10 .61.07-.01-9.35-4.81-10.93-5.14" class="cls-2"/><path id="path65" d="M33.56 15.45a6.4 6.4 0 0 0-3.15-2.17 6.8 6.8 0 0 1-3.45.16 1.33 1.33 0 0 1-1.05-1.59 17.4 17.4 0 0 1-3.88-.5 6.6 6.6 0 0 0 .26 3.74 2.45 2.45 0 0 0 1.27 1.21c3.11 1 8.54.78 9.77.24a.34.34 0 0 0 .2-.15 2.5 2.5 0 0 0 .03-.94" class="cls-4"/><path id="path66" d="M33.56 15.45a6.4 6.4 0 0 0-3.15-2.17 1.67 1.67 0 0 1-.36 1.23l3.38 2a.17.17 0 0 0 .09-.1 2.3 2.3 0 0 0 .04-.96" class="cls-12"/><path id="path67" d="M25.92 7.3A6.8 6.8 0 0 1 28 8.6c.19.18 1 .27 1.09.43s-.78.42-1 .31a4.6 4.6 0 0 0-3.88-1.77c-.16 0 .6-.83 1.66-.49.13.04.05.22.05.22" class="cls-11"/><path id="path68" d="M24.4 9.05a1.48 1.48 0 0 1 2.15-.13 1.8 1.8 0 0 1 .26.29 2 2 0 0 1 .17.35c-.11-.07-.2-.15-.3-.22l-.15-.1a.7.7 0 0 0-.14-.1.5.5 0 0 1-.15-.08L26.08 9l-.15-.05a1 1 0 0 0-.16 0 1.8 1.8 0 0 0-.66 0 4 4 0 0 0-.71.1" style="opacity:.8;fill:#1a1a1a"/><path id="path69" d="M30.05 14.51s-1.41 1.56-7.77.58a2.45 2.45 0 0 0 1.27 1.21c3.21 1.07 8.94.75 9.88.19a8.8 8.8 0 0 0-3.38-1.98" class="cls-1"/><path id="path70" d="m31.19 8.42-.54-.05a1.83 1.83 0 0 0 .21 1.28c.14-.07 1.88-1.1.33-1.23" class="cls-3"/><path id="path71" d="M30.86 9.65c3.2 1.07 4.22 2.36 4.22 2.36s1.51-.29 1.06-1.6c-.23-.67-1.26.31-4-2.77-.79-.83-1.75.93-1.28 2.01" class="cls-12"/><path id="path72" d="M32.22 9.17c.28-.22-.23-.7-.52-.45s-.57-.58-.21-.65c.62-.1 1.4 1 2.68 1.9.87.6 1.58.45 1.76.87s-.33.62-.34.44c-.06-.72-.58-.49-.59-.27s.5.38.16.52c-.12.05-.78-.7-1.62-1.21s-1.84-.65-1.93-.89c-.19-.43.39-.12.61-.26" class="cls-1"/></g><g id="g79" transform="translate(.496 1.324)"><path id="path73" d="M10.23 19.51a3.3 3.3 0 0 1 1.19-.57v-.14l-.93-.22s-.13.42-.26.93" class="cls-13"/><path id="path74" d="M1 15.84c.08.19.24.14.74.2a5.81 5.81 0 0 1 5 4c.23.19.33-.1.72-.45a4.72 4.72 0 0 1 3.92-.61 13.3 13.3 0 0 1 .95-2.31s-4.22-3.11-4.63-4.88c-.13-.57 0-2-1-1.82.45.22.61.49-.11 1.18C3.9 13.71.75 15.23 1 15.84" class="cls-1"/><path id="path75" d="M12.37 16.63s-.43-.3-1-.77C10.07 14.83 8 13 7.7 11.79c-.13-.57 0-2-1-1.82.45.22.61.49-.11 1.18.2 3.35 5.78 5.48 5.78 5.48" class="cls-4"/><path id="path76" d="m3.26 15.3 3.54-1.66a.09.09 0 0 1 .14.09L7 17.94a.11.11 0 0 1-.19.06 5.15 5.15 0 0 0-1.6-1.66 9.5 9.5 0 0 0-2-.85.1.1 0 0 1 .05-.19" class="cls-13"/><path id="path77" d="M6.8 13.64a.09.09 0 0 1 .14.09L7 17.94a.11.11 0 0 1-.19.06 5.15 5.15 0 0 0-1.6-1.66c1.71-1.45 1.59-2.7 1.59-2.7" class="cls-3"/><path id="path78" d="m8.25 18.32 1.27-1.5a.21.21 0 0 1 .29 0l1.54 1.06a.08.08 0 0 1 0 .15 5.7 5.7 0 0 0-1.48 0 11 11 0 0 0-1.47.49.125.125 0 0 1-.15-.2" class="cls-13"/><path id="path79" d="M9.52 16.82a.21.21 0 0 1 .29 0l1.54 1.06a.08.08 0 0 1 0 .15 5.7 5.7 0 0 0-1.48 0 1.19 1.19 0 0 0-.35-1.21" class="cls-3"/></g></svg>