<svg xmlns="http://www.w3.org/2000/svg" xml:space="preserve" width="16" height="16" viewBox="5 -10 16 21.6"><path d="M13-10C7.035-10 2.2-5.165 2.2.8c0 5.965 4.835 10.8 10.8 10.8 5.965 0 10.8-4.835 10.8-10.8C23.8-5.165 18.965-10 13-10zm-1.77 3.102c.431.021.755.408.755.839v5.23a.2.2 0 0 0 .148.19c.129.022.24-.04.26-.147 0-.065.324-1.379 1.227-1.163a.912.912 0 0 1 .303.127L16.25-.377a2.17 2.17 0 0 1 1.093 1.896v3.2c0 .603-.233 1.163-.663 1.594-.323.323-.5.754-.5 1.184 0 .258-.123.499-.36.606-1.14.538-2.414.54-3.856-.042a.68.68 0 0 1-.43-.627v-.367c0-.538-.26-1.031-.691-1.332a8.344 8.344 0 0 1-.797-.691 3.806 3.806 0 0 1-1.114-2.728V.158a.698.698 0 0 0-.07-.303l-.106-.19a.919.919 0 0 1 .303-1.184.805.805 0 0 1 .388-.106c.215 0 .385.103.515.254v2.798c0 .323-.153.63-.325.889-.064.107-.016.231.092.296a.2.2 0 0 0 .254-.064c.258-.366.387-.796.387-1.226V-6.08c0-.474.387-.84.86-.818z" style="fill:#032c36;fill-opacity:1;stroke:none"/></svg>