<svg xmlns="http://www.w3.org/2000/svg" viewBox="0 0 43 43"><path d="M1.5 1h6a0.5 0.5 0 0 1 0.5 0.5v6a0.5 0.5 0 0 1 -0.5 0.5h-6a0.5 0.5 0 0 1 -0.5 -0.5v-6a0.5 0.5 0 0 1 0.5 -0.5zM2 2.5v4a0.5 0.5 0 0 0 0.5 0.5h4a0.5 0.5 0 0 0 0.5 -0.5v-4a0.5 0.5 0 0 0 -0.5 -0.5h-4a0.5 0.5 0 0 0 -0.5 0.5zM35.5 1h6a0.5 0.5 0 0 1 0.5 0.5v6a0.5 0.5 0 0 1 -0.5 0.5h-6a0.5 0.5 0 0 1 -0.5 -0.5v-6a0.5 0.5 0 0 1 0.5 -0.5zM36 2.5v4a0.5 0.5 0 0 0 0.5 0.5h4a0.5 0.5 0 0 0 0.5 -0.5v-4a0.5 0.5 0 0 0 -0.5 -0.5h-4a0.5 0.5 0 0 0 -0.5 0.5zM1.5 35h6a0.5 0.5 0 0 1 0.5 0.5v6a0.5 0.5 0 0 1 -0.5 0.5h-6a0.5 0.5 0 0 1 -0.5 -0.5v-6a0.5 0.5 0 0 1 0.5 -0.5zM2 36.5v4a0.5 0.5 0 0 0 0.5 0.5h4a0.5 0.5 0 0 0 0.5 -0.5v-4a0.5 0.5 0 0 0 -0.5 -0.5h-4a0.5 0.5 0 0 0 -0.5 0.5z" fill="#00ff00"></path><path d="M3.5 3h2a0.5 0.5 0 0 1 0.5 0.5v2a0.5 0.5 0 0 1 -0.5 0.5h-2a0.5 0.5 0 0 1 -0.5 -0.5v-2a0.5 0.5 0 0 1 0.5 -0.5zM37.5 3h2a0.5 0.5 0 0 1 0.5 0.5v2a0.5 0.5 0 0 1 -0.5 0.5h-2a0.5 0.5 0 0 1 -0.5 -0.5v-2a0.5 0.5 0 0 1 0.5 -0.5zM3.5 37h2a0.5 0.5 0 0 1 0.5 0.5v2a0.5 0.5 0 0 1 -0.5 0.5h-2a0.5 0.5 0 0 1 -0.5 -0.5v-2a0.5 0.5 0 0 1 0.5 -0.5z" fill="#00ff00"></path><path d="M20.5 1a0.5 0.5 0 0 1 0.5 0.5a0.5 0.5 0 0 1 -0.5 0.5a0.5 0.5 0 0 1 -0.5 -0.5a0.5 0.5 0 0 1 0.5 -0.5zM30.5 1a0.5 0.5 0 0 1 0.5 0.5a0.5 0.5 0 0 1 -0.5 0.5a0.5 0.5 0 0 1 -0.5 -0.5a0.5 0.5 0 0 1 0.5 -0.5zM29.5 2a0.5 0.5 0 0 1 0.5 0.5a0.5 0.5 0 0 1 -0.5 0.5a0.5 0.5 0 0 1 -0.5 -0.5a0.5 0.5 0 0 1 0.5 -0.5zM31.5 2a0.5 0.5 0 0 1 0.5 0.5a0.5 0.5 0 0 1 -0.5 0.5a0.5 0.5 0 0 1 -0.5 -0.5a0.5 0.5 0 0 1 0.5 -0.5zM33.5 5a0.5 0.5 0 0 1 0.5 0.5a0.5 0.5 0 0 1 -0.5 0.5a0.5 0.5 0 0 1 -0.5 -0.5a0.5 0.5 0 0 1 0.5 -0.5zM21.5 7a0.5 0.5 0 0 1 0.5 0.5a0.5 0.5 0 0 1 -0.5 0.5a0.5 0.5 0 0 1 -0.5 -0.5a0.5 0.5 0 0 1 0.5 -0.5zM23.5 7a0.5 0.5 0 0 1 0.5 0.5a0.5 0.5 0 0 1 -0.5 0.5a0.5 0.5 0 0 1 -0.5 -0.5a0.5 0.5 0 0 1 0.5 -0.5zM27.5 7a0.5 0.5 0 0 1 0.5 0.5a0.5 0.5 0 0 1 -0.5 0.5a0.5 0.5 0 0 1 -0.5 -0.5a0.5 0.5 0 0 1 0.5 -0.5zM33.5 7a0.5 0.5 0 0 1 0.5 0.5a0.5 0.5 0 0 1 -0.5 0.5a0.5 0.5 0 0 1 -0.5 -0.5a0.5 0.5 0 0 1 0.5 -0.5zM3.5 9a0.5 0.5 0 0 1 0.5 0.5a0.5 0.5 0 0 1 -0.5 0.5a0.5 0.5 0 0 1 -0.5 -0.5a0.5 0.5 0 0 1 0.5 -0.5zM34.5 9a0.5 0.5 0 0 1 0.5 0.5a0.5 0.5 0 0 1 -0.5 0.5a0.5 0.5 0 0 1 -0.5 -0.5a0.5 0.5 0 0 1 0.5 -0.5zM25.5 10a0.5 0.5 0 0 1 0.5 0.5a0.5 0.5 0 0 1 -0.5 0.5a0.5 0.5 0 0 1 -0.5 -0.5a0.5 0.5 0 0 1 0.5 -0.5zM18.5 11a0.5 0.5 0 0 1 0.5 0.5a0.5 0.5 0 0 1 -0.5 0.5a0.5 0.5 0 0 1 -0.5 -0.5a0.5 0.5 0 0 1 0.5 -0.5zM20.5 11a0.5 0.5 0 0 1 0.5 0.5a0.5 0.5 0 0 1 -0.5 0.5a0.5 0.5 0 0 1 -0.5 -0.5a0.5 0.5 0 0 1 0.5 -0.5zM21.5 12a0.5 0.5 0 0 1 0.5 0.5a0.5 0.5 0 0 1 -0.5 0.5a0.5 0.5 0 0 1 -0.5 -0.5a0.5 0.5 0 0 1 0.5 -0.5zM7.5 13a0.5 0.5 0 0 1 0.5 0.5a0.5 0.5 0 0 1 -0.5 0.5a0.5 0.5 0 0 1 -0.5 -0.5a0.5 0.5 0 0 1 0.5 -0.5zM39.5 15a0.5 0.5 0 0 1 0.5 0.5a0.5 0.5 0 0 1 -0.5 0.5a0.5 0.5 0 0 1 -0.5 -0.5a0.5 0.5 0 0 1 0.5 -0.5zM11.5 16a0.5 0.5 0 0 1 0.5 0.5a0.5 0.5 0 0 1 -0.5 0.5a0.5 0.5 0 0 1 -0.5 -0.5a0.5 0.5 0 0 1 0.5 -0.5zM38.5 16a0.5 0.5 0 0 1 0.5 0.5a0.5 0.5 0 0 1 -0.5 0.5a0.5 0.5 0 0 1 -0.5 -0.5a0.5 0.5 0 0 1 0.5 -0.5zM9.5 17a0.5 0.5 0 0 1 0.5 0.5a0.5 0.5 0 0 1 -0.5 0.5a0.5 0.5 0 0 1 -0.5 -0.5a0.5 0.5 0 0 1 0.5 -0.5zM26.5 17a0.5 0.5 0 0 1 0.5 0.5a0.5 0.5 0 0 1 -0.5 0.5a0.5 0.5 0 0 1 -0.5 -0.5a0.5 0.5 0 0 1 0.5 -0.5zM8.5 18a0.5 0.5 0 0 1 0.5 0.5a0.5 0.5 0 0 1 -0.5 0.5a0.5 0.5 0 0 1 -0.5 -0.5a0.5 0.5 0 0 1 0.5 -0.5zM2.5 20a0.5 0.5 0 0 1 0.5 0.5a0.5 0.5 0 0 1 -0.5 0.5a0.5 0.5 0 0 1 -0.5 -0.5a0.5 0.5 0 0 1 0.5 -0.5zM23.5 20a0.5 0.5 0 0 1 0.5 0.5a0.5 0.5 0 0 1 -0.5 0.5a0.5 0.5 0 0 1 -0.5 -0.5a0.5 0.5 0 0 1 0.5 -0.5zM1.5 21a0.5 0.5 0 0 1 0.5 0.5a0.5 0.5 0 0 1 -0.5 0.5a0.5 0.5 0 0 1 -0.5 -0.5a0.5 0.5 0 0 1 0.5 -0.5zM7.5 21a0.5 0.5 0 0 1 0.5 0.5a0.5 0.5 0 0 1 -0.5 0.5a0.5 0.5 0 0 1 -0.5 -0.5a0.5 0.5 0 0 1 0.5 -0.5zM10.5 24a0.5 0.5 0 0 1 0.5 0.5a0.5 0.5 0 0 1 -0.5 0.5a0.5 0.5 0 0 1 -0.5 -0.5a0.5 0.5 0 0 1 0.5 -0.5zM25.5 24a0.5 0.5 0 0 1 0.5 0.5a0.5 0.5 0 0 1 -0.5 0.5a0.5 0.5 0 0 1 -0.5 -0.5a0.5 0.5 0 0 1 0.5 -0.5zM24.5 25a0.5 0.5 0 0 1 0.5 0.5a0.5 0.5 0 0 1 -0.5 0.5a0.5 0.5 0 0 1 -0.5 -0.5a0.5 0.5 0 0 1 0.5 -0.5zM23.5 28a0.5 0.5 0 0 1 0.5 0.5a0.5 0.5 0 0 1 -0.5 0.5a0.5 0.5 0 0 1 -0.5 -0.5a0.5 0.5 0 0 1 0.5 -0.5zM15.5 29a0.5 0.5 0 0 1 0.5 0.5a0.5 0.5 0 0 1 -0.5 0.5a0.5 0.5 0 0 1 -0.5 -0.5a0.5 0.5 0 0 1 0.5 -0.5zM13.5 30a0.5 0.5 0 0 1 0.5 0.5a0.5 0.5 0 0 1 -0.5 0.5a0.5 0.5 0 0 1 -0.5 -0.5a0.5 0.5 0 0 1 0.5 -0.5zM38.5 30a0.5 0.5 0 0 1 0.5 0.5a0.5 0.5 0 0 1 -0.5 0.5a0.5 0.5 0 0 1 -0.5 -0.5a0.5 0.5 0 0 1 0.5 -0.5zM26.5 31a0.5 0.5 0 0 1 0.5 0.5a0.5 0.5 0 0 1 -0.5 0.5a0.5 0.5 0 0 1 -0.5 -0.5a0.5 0.5 0 0 1 0.5 -0.5zM34.5 31a0.5 0.5 0 0 1 0.5 0.5a0.5 0.5 0 0 1 -0.5 0.5a0.5 0.5 0 0 1 -0.5 -0.5a0.5 0.5 0 0 1 0.5 -0.5zM37.5 31a0.5 0.5 0 0 1 0.5 0.5a0.5 0.5 0 0 1 -0.5 0.5a0.5 0.5 0 0 1 -0.5 -0.5a0.5 0.5 0 0 1 0.5 -0.5zM39.5 31a0.5 0.5 0 0 1 0.5 0.5a0.5 0.5 0 0 1 -0.5 0.5a0.5 0.5 0 0 1 -0.5 -0.5a0.5 0.5 0 0 1 0.5 -0.5zM9.5 32a0.5 0.5 0 0 1 0.5 0.5a0.5 0.5 0 0 1 -0.5 0.5a0.5 0.5 0 0 1 -0.5 -0.5a0.5 0.5 0 0 1 0.5 -0.5zM19.5 35a0.5 0.5 0 0 1 0.5 0.5a0.5 0.5 0 0 1 -0.5 0.5a0.5 0.5 0 0 1 -0.5 -0.5a0.5 0.5 0 0 1 0.5 -0.5zM35.5 35a0.5 0.5 0 0 1 0.5 0.5a0.5 0.5 0 0 1 -0.5 0.5a0.5 0.5 0 0 1 -0.5 -0.5a0.5 0.5 0 0 1 0.5 -0.5zM40.5 36a0.5 0.5 0 0 1 0.5 0.5a0.5 0.5 0 0 1 -0.5 0.5a0.5 0.5 0 0 1 -0.5 -0.5a0.5 0.5 0 0 1 0.5 -0.5zM13.5 37a0.5 0.5 0 0 1 0.5 0.5a0.5 0.5 0 0 1 -0.5 0.5a0.5 0.5 0 0 1 -0.5 -0.5a0.5 0.5 0 0 1 0.5 -0.5zM22.5 38a0.5 0.5 0 0 1 0.5 0.5a0.5 0.5 0 0 1 -0.5 0.5a0.5 0.5 0 0 1 -0.5 -0.5a0.5 0.5 0 0 1 0.5 -0.5zM37.5 41a0.5 0.5 0 0 1 0.5 0.5a0.5 0.5 0 0 1 -0.5 0.5a0.5 0.5 0 0 1 -0.5 -0.5a0.5 0.5 0 0 1 0.5 -0.5zM41.5 41a0.5 0.5 0 0 1 0.5 0.5a0.5 0.5 0 0 1 -0.5 0.5a0.5 0.5 0 0 1 -0.5 -0.5a0.5 0.5 0 0 1 0.5 -0.5z" fill="#00ff00"></path><path d="M11.5 1h1a0.5 0.5 0 0 1 0.5 0.5a0.5 0.5 0 0 1 -0.5 0.5a0.5 0.5 0 0 0 -0.5 0.5a0.5 0.5 0 0 0 0.5 0.5a0.5 0.5 0 0 0 0.5 -0.5a0.5 0.5 0 0 1 0.5 -0.5a0.5 0.5 0 0 1 0.5 0.5a0.5 0.5 0 0 0 0.5 0.5a0.5 0.5 0 0 1 0.5 0.5a0.5 0.5 0 0 1 -0.5 0.5h-1a0.5 0.5 0 0 0 -0.5 0.5a0.5 0.5 0 0 0 0.5 0.5h1a0.5 0.5 0 0 0 0.5 -0.5a0.5 0.5 0 0 1 0.5 -0.5a0.5 0.5 0 0 1 0.5 0.5v3a0.5 0.5 0 0 1 -0.5 0.5a0.5 0.5 0 0 1 -0.5 -0.5v-1a0.5 0.5 0 0 0 -0.5 -0.5a0.5 0.5 0 0 0 -0.5 0.5v1a0.5 0.5 0 0 0 0.5 0.5a0.5 0.5 0 0 1 0.5 0.5a0.5 0.5 0 0 1 -0.5 0.5a0.5 0.5 0 0 0 -0.5 0.5a0.5 0.5 0 0 1 -0.5 0.5h-1a0.5 0.5 0 0 1 -0.5 -0.5a0.5 0.5 0 0 0 -0.5 -0.5a0.5 0.5 0 0 1 -0.5 -0.5v-3a0.5 0.5 0 0 1 0.5 -0.5a0.5 0.5 0 0 0 0.5 -0.5a0.5 0.5 0 0 0 -0.5 -0.5a0.5 0.5 0 0 0 -0.5 0.5a0.5 0.5 0 0 1 -0.5 0.5a0.5 0.5 0 0 0 -0.5 0.5v2a0.5 0.5 0 0 1 -0.5 0.5a0.5 0.5 0 0 1 -0.5 -0.5v-5a0.5 0.5 0 0 1 0.5 -0.5a0.5 0.5 0 0 1 0.5 0.5a0.5 0.5 0 0 0 0.5 0.5a0.5 0.5 0 0 0 0.5 -0.5v-1a0.5 0.5 0 0 1 0.5 -0.5zM15.5 1a0.5 0.5 0 0 1 0.5 0.5v1a0.5 0.5 0 0 1 -0.5 0.5a0.5 0.5 0 0 1 -0.5 -0.5v-1a0.5 0.5 0 0 1 0.5 -0.5zM17.5 1h1a0.5 0.5 0 0 1 0.5 0.5a0.5 0.5 0 0 0 0.5 0.5a0.5 0.5 0 0 1 0.5 0.5a0.5 0.5 0 0 0 0.5 0.5h1a0.5 0.5 0 0 0 0.5 -0.5v-1a0.5 0.5 0 0 1 0.5 -0.5a0.5 0.5 0 0 1 0.5 0.5v2a0.5 0.5 0 0 0 0.5 0.5h2a0.5 0.5 0 0 1 0.5 0.5a0.5 0.5 0 0 1 -0.5 0.5h-2a0.5 0.5 0 0 0 -0.5 0.5a0.5 0.5 0 0 1 -0.5 0.5h-1a0.5 0.5 0 0 1 -0.5 -0.5a0.5 0.5 0 0 0 -0.5 -0.5a0.5 0.5 0 0 0 -0.5 0.5v2a0.5 0.5 0 0 1 -0.5 0.5a0.5 0.5 0 0 1 -0.5 -0.5v-2a0.5 0.5 0 0 0 -0.5 -0.5a0.5 0.5 0 0 1 -0.5 -0.5a0.5 0.5 0 0 0 -0.5 -0.5h-1a0.5 0.5 0 0 1 -0.5 -0.5a0.5 0.5 0 0 1 0.5 -0.5h1a0.5 0.5 0 0 0 0.5 -0.5a0.5 0.5 0 0 0 -0.5 -0.5a0.5 0.5 0 0 1 -0.5 -0.5a0.5 0.5 0 0 1 0.5 -0.5zM27.5 1a0.5 0.5 0 0 1 0.5 0.5v1a0.5 0.5 0 0 0 0.5 0.5a0.5 0.5 0 0 1 0.5 0.5v1a0.5 0.5 0 0 1 -0.5 0.5a0.5 0.5 0 0 0 -0.5 0.5a0.5 0.5 0 0 1 -0.5 0.5a0.5 0.5 0 0 0 -0.5 0.5a0.5 0.5 0 0 1 -0.5 0.5a0.5 0.5 0 0 0 -0.5 0.5a0.5 0.5 0 0 1 -0.5 0.5a0.5 0.5 0 0 1 -0.5 -0.5a0.5 0.5 0 0 0 -0.5 -0.5a0.5 0.5 0 0 1 -0.5 -0.5a0.5 0.5 0 0 1 0.5 -0.5h1a0.5 0.5 0 0 0 0.5 -0.5a0.5 0.5 0 0 1 0.5 -0.5a0.5 0.5 0 0 0 0.5 -0.5v-1a0.5 0.5 0 0 0 -0.5 -0.5h-2a0.5 0.5 0 0 1 -0.5 -0.5a0.5 0.5 0 0 1 0.5 -0.5h2a0.5 0.5 0 0 0 0.5 -0.5a0.5 0.5 0 0 1 0.5 -0.5zM33.5 2a0.5 0.5 0 0 1 0.5 0.5v1a0.5 0.5 0 0 1 -0.5 0.5h-1a0.5 0.5 0 0 1 -0.5 -0.5a0.5 0.5 0 0 1 0.5 -0.5a0.5 0.5 0 0 0 0.5 -0.5a0.5 0.5 0 0 1 0.5 -0.5zM30.5 3a0.5 0.5 0 0 1 0.5 0.5a0.5 0.5 0 0 0 0.5 0.5a0.5 0.5 0 0 1 0.5 0.5a0.5 0.5 0 0 1 -0.5 0.5a0.5 0.5 0 0 0 -0.5 0.5a0.5 0.5 0 0 0 0.5 0.5a0.5 0.5 0 0 1 0.5 0.5v1a0.5 0.5 0 0 0 0.5 0.5a0.5 0.5 0 0 1 0.5 0.5v1a0.5 0.5 0 0 0 0.5 0.5a0.5 0.5 0 0 1 0.5 0.5a0.5 0.5 0 0 1 -0.5 0.5a0.5 0.5 0 0 0 -0.5 0.5a0.5 0.5 0 0 0 0.5 0.5h1a0.5 0.5 0 0 1 0.5 0.5a0.5 0.5 0 0 1 -0.5 0.5h-3a0.5 0.5 0 0 1 -0.5 -0.5a0.5 0.5 0 0 1 0.5 -0.5a0.5 0.5 0 0 0 0.5 -0.5a0.5 0.5 0 0 0 -0.5 -0.5h-1a0.5 0.5 0 0 0 -0.5 0.5v2a0.5 0.5 0 0 1 -0.5 0.5h-1a0.5 0.5 0 0 1 -0.5 -0.5a0.5 0.5 0 0 1 0.5 -0.5a0.5 0.5 0 0 0 0.5 -0.5a0.5 0.5 0 0 0 -0.5 -0.5a0.5 0.5 0 0 0 -0.5 0.5a0.5 0.5 0 0 1 -0.5 0.5a0.5 0.5 0 0 1 -0.5 -0.5a0.5 0.5 0 0 0 -0.5 -0.5a0.5 0.5 0 0 1 -0.5 -0.5a0.5 0.5 0 0 1 0.5 -0.5h1a0.5 0.5 0 0 0 0.5 -0.5v-2a0.5 0.5 0 0 1 0.5 -0.5a0.5 0.5 0 0 1 0.5 0.5a0.5 0.5 0 0 0 0.5 0.5a0.5 0.5 0 0 1 0.5 0.5a0.5 0.5 0 0 0 0.5 0.5h1a0.5 0.5 0 0 0 0.5 -0.5a0.5 0.5 0 0 0 -0.5 -0.5a0.5 0.5 0 0 1 -0.5 -0.5v-1a0.5 0.5 0 0 0 -0.5 -0.5a0.5 0.5 0 0 0 -0.5 0.5a0.5 0.5 0 0 1 -0.5 0.5a0.5 0.5 0 0 1 -0.5 -0.5v-1a0.5 0.5 0 0 1 0.5 -0.5a0.5 0.5 0 0 0 0.5 -0.5v-2a0.5 0.5 0 0 1 0.5 -0.5zM17.5 6a0.5 0.5 0 0 1 0.5 0.5v1a0.5 0.5 0 0 0 0.5 0.5a0.5 0.5 0 0 1 0.5 0.5a0.5 0.5 0 0 1 -0.5 0.5a0.5 0.5 0 0 0 -0.5 0.5v1a0.5 0.5 0 0 1 -0.5 0.5a0.5 0.5 0 0 1 -0.5 -0.5a0.5 0.5 0 0 0 -0.5 -0.5h-1a0.5 0.5 0 0 1 -0.5 -0.5a0.5 0.5 0 0 1 0.5 -0.5h1a0.5 0.5 0 0 0 0.5 -0.5v-2a0.5 0.5 0 0 1 0.5 -0.5zM12 7.5a0.5 0.5 0 0 0 0.5 0.5a0.5 0.5 0 0 0 0.5 -0.5a0.5 0.5 0 0 0 -0.5 -0.5a0.5 0.5 0 0 0 -0.5 0.5zM26.5 8a0.5 0.5 0 0 1 0.5 0.5v1a0.5 0.5 0 0 1 -0.5 0.5a0.5 0.5 0 0 1 -0.5 -0.5v-1a0.5 0.5 0 0 1 0.5 -0.5zM6.5 9h3a0.5 0.5 0 0 1 0.5 0.5a0.5 0.5 0 0 1 -0.5 0.5h-3a0.5 0.5 0 0 1 -0.5 -0.5a0.5 0.5 0 0 1 0.5 -0.5zM21.5 9a0.5 0.5 0 0 1 0.5 0.5a0.5 0.5 0 0 0 0.5 0.5a0.5 0.5 0 0 0 0.5 -0.5a0.5 0.5 0 0 1 0.5 -0.5a0.5 0.5 0 0 1 0.5 0.5v1a0.5 0.5 0 0 1 -0.5 0.5h-2a0.5 0.5 0 0 1 -0.5 -0.5v-1a0.5 0.5 0 0 1 0.5 -0.5zM36.5 9h4a0.5 0.5 0 0 1 0.5 0.5a0.5 0.5 0 0 1 -0.5 0.5a0.5 0.5 0 0 0 -0.5 0.5a0.5 0.5 0 0 0 0.5 0.5a0.5 0.5 0 0 0 0.5 -0.5a0.5 0.5 0 0 1 0.5 -0.5a0.5 0.5 0 0 1 0.5 0.5v1a0.5 0.5 0 0 1 -0.5 0.5a0.5 0.5 0 0 0 -0.5 0.5a0.5 0.5 0 0 1 -0.5 0.5a0.5 0.5 0 0 1 -0.5 -0.5a0.5 0.5 0 0 0 -0.5 -0.5a0.5 0.5 0 0 0 -0.5 0.5a0.5 0.5 0 0 1 -0.5 0.5h-2a0.5 0.5 0 0 1 -0.5 -0.5v-1a0.5 0.5 0 0 0 -0.5 -0.5a0.5 0.5 0 0 1 -0.5 -0.5a0.5 0.5 0 0 1 0.5 -0.5a0.5 0.5 0 0 0 0.5 -0.5a0.5 0.5 0 0 1 0.5 -0.5zM2.5 10a0.5 0.5 0 0 1 0.5 0.5a0.5 0.5 0 0 0 0.5 0.5a0.5 0.5 0 0 1 0.5 0.5a0.5 0.5 0 0 1 -0.5 0.5a0.5 0.5 0 0 0 -0.5 0.5a0.5 0.5 0 0 1 -0.5 0.5h-1a0.5 0.5 0 0 1 -0.5 -0.5a0.5 0.5 0 0 1 0.5 -0.5a0.5 0.5 0 0 0 0.5 -0.5v-1a0.5 0.5 0 0 1 0.5 -0.5zM4.5 10h1a0.5 0.5 0 0 1 0.5 0.5a0.5 0.5 0 0 0 0.5 0.5h2a0.5 0.5 0 0 1 0.5 0.5v1a0.5 0.5 0 0 1 -0.5 0.5a0.5 0.5 0 0 1 -0.5 -0.5a0.5 0.5 0 0 0 -0.5 -0.5a0.5 0.5 0 0 0 -0.5 0.5a0.5 0.5 0 0 1 -0.5 0.5a0.5 0.5 0 0 1 -0.5 -0.5a0.5 0.5 0 0 0 -0.5 -0.5a0.5 0.5 0 0 1 -0.5 -0.5a0.5 0.5 0 0 0 -0.5 -0.5a0.5 0.5 0 0 1 -0.5 -0.5a0.5 0.5 0 0 1 0.5 -0.5zM10.5 10a0.5 0.5 0 0 1 0.5 0.5v2a0.5 0.5 0 0 1 -0.5 0.5a0.5 0.5 0 0 1 -0.5 -0.5v-2a0.5 0.5 0 0 1 0.5 -0.5zM14.5 10a0.5 0.5 0 0 1 0.5 0.5a0.5 0.5 0 0 0 0.5 0.5a0.5 0.5 0 0 1 0.5 0.5a0.5 0.5 0 0 0 0.5 0.5a0.5 0.5 0 0 1 0.5 0.5v2a0.5 0.5 0 0 1 -0.5 0.5a0.5 0.5 0 0 1 -0.5 -0.5a0.5 0.5 0 0 0 -0.5 -0.5a0.5 0.5 0 0 0 -0.5 0.5a0.5 0.5 0 0 0 0.5 0.5a0.5 0.5 0 0 1 0.5 0.5a0.5 0.5 0 0 1 -0.5 0.5h-1a0.5 0.5 0 0 0 -0.5 0.5v1a0.5 0.5 0 0 1 -0.5 0.5a0.5 0.5 0 0 0 -0.5 0.5a0.5 0.5 0 0 1 -0.5 0.5a0.5 0.5 0 0 0 -0.5 0.5a0.5 0.5 0 0 0 0.5 0.5a0.5 0.5 0 0 0 0.5 -0.5a0.5 0.5 0 0 1 0.5 -0.5a0.5 0.5 0 0 1 0.5 0.5v1a0.5 0.5 0 0 1 -0.5 0.5a0.5 0.5 0 0 0 -0.5 0.5a0.5 0.5 0 0 0 0.5 0.5a0.5 0.5 0 0 1 0.5 0.5a0.5 0.5 0 0 1 -0.5 0.5h-2a0.5 0.5 0 0 1 -0.5 -0.5v-1a0.5 0.5 0 0 0 -0.5 -0.5a0.5 0.5 0 0 1 -0.5 -0.5a0.5 0.5 0 0 0 -0.5 -0.5a0.5 0.5 0 0 1 -0.5 -0.5a0.5 0.5 0 0 1 0.5 -0.5h1a0.5 0.5 0 0 0 0.5 -0.5a0.5 0.5 0 0 1 0.5 -0.5a0.5 0.5 0 0 0 0.5 -0.5a0.5 0.5 0 0 1 0.5 -0.5a0.5 0.5 0 0 0 0.5 -0.5v-1a0.5 0.5 0 0 1 0.5 -0.5a0.5 0.5 0 0 0 0.5 -0.5v-1a0.5 0.5 0 0 1 0.5 -0.5a0.5 0.5 0 0 0 0.5 -0.5a0.5 0.5 0 0 0 -0.5 -0.5a0.5 0.5 0 0 0 -0.5 0.5a0.5 0.5 0 0 1 -0.5 0.5a0.5 0.5 0 0 1 -0.5 -0.5a0.5 0.5 0 0 0 -0.5 -0.5a0.5 0.5 0 0 1 -0.5 -0.5a0.5 0.5 0 0 1 0.5 -0.5h1a0.5 0.5 0 0 0 0.5 -0.5a0.5 0.5 0 0 1 0.5 -0.5zM37 10.5a0.5 0.5 0 0 0 0.5 0.5h1a0.5 0.5 0 0 0 0.5 -0.5a0.5 0.5 0 0 0 -0.5 -0.5h-1a0.5 0.5 0 0 0 -0.5 0.5zM4.5 12a0.5 0.5 0 0 1 0.5 0.5a0.5 0.5 0 0 0 0.5 0.5a0.5 0.5 0 0 1 0.5 0.5a0.5 0.5 0 0 1 -0.5 0.5h-2a0.5 0.5 0 0 1 -0.5 -0.5a0.5 0.5 0 0 1 0.5 -0.5a0.5 0.5 0 0 0 0.5 -0.5a0.5 0.5 0 0 1 0.5 -0.5zM19.5 12a0.5 0.5 0 0 1 0.5 0.5v1a0.5 0.5 0 0 1 -0.5 0.5a0.5 0.5 0 0 0 -0.5 0.5a0.5 0.5 0 0 1 -0.5 0.5a0.5 0.5 0 0 1 -0.5 -0.5v-1a0.5 0.5 0 0 1 0.5 -0.5a0.5 0.5 0 0 0 0.5 -0.5a0.5 0.5 0 0 1 0.5 -0.5zM11.5 13h1a0.5 0.5 0 0 1 0.5 0.5v1a0.5 0.5 0 0 1 -0.5 0.5h-2a0.5 0.5 0 0 1 -0.5 -0.5a0.5 0.5 0 0 1 0.5 -0.5a0.5 0.5 0 0 0 0.5 -0.5a0.5 0.5 0 0 1 0.5 -0.5zM24.5 13a0.5 0.5 0 0 1 0.5 0.5v4a0.5 0.5 0 0 1 -0.5 0.5a0.5 0.5 0 0 0 -0.5 0.5a0.5 0.5 0 0 1 -0.5 0.5h-2a0.5 0.5 0 0 0 -0.5 0.5a0.5 0.5 0 0 1 -0.5 0.5a0.5 0.5 0 0 1 -0.5 -0.5v-1a0.5 0.5 0 0 0 -0.5 -0.5a0.5 0.5 0 0 1 -0.5 -0.5a0.5 0.5 0 0 1 0.5 -0.5a0.5 0.5 0 0 0 0.5 -0.5a0.5 0.5 0 0 0 -0.5 -0.5a0.5 0.5 0 0 1 -0.5 -0.5a0.5 0.5 0 0 1 0.5 -0.5a0.5 0.5 0 0 0 0.5 -0.5a0.5 0.5 0 0 1 0.5 -0.5h3a0.5 0.5 0 0 0 0.5 -0.5a0.5 0.5 0 0 1 0.5 -0.5zM35.5 13a0.5 0.5 0 0 1 0.5 0.5a0.5 0.5 0 0 0 0.5 0.5a0.5 0.5 0 0 1 0.5 0.5a0.5 0.5 0 0 1 -0.5 0.5a0.5 0.5 0 0 0 -0.5 0.5v2a0.5 0.5 0 0 0 0.5 0.5a0.5 0.5 0 0 1 0.5 0.5a0.5 0.5 0 0 0 0.5 0.5a0.5 0.5 0 0 0 0.5 -0.5a0.5 0.5 0 0 1 0.5 -0.5h3a0.5 0.5 0 0 1 0.5 0.5v5a0.5 0.5 0 0 1 -0.5 0.5a0.5 0.5 0 0 1 -0.5 -0.5v-4a0.5 0.5 0 0 0 -0.5 -0.5h-1a0.5 0.5 0 0 0 -0.5 0.5v1a0.5 0.5 0 0 1 -0.5 0.5a0.5 0.5 0 0 1 -0.5 -0.5a0.5 0.5 0 0 0 -0.5 -0.5h-2a0.5 0.5 0 0 1 -0.5 -0.5a0.5 0.5 0 0 0 -0.5 -0.5a0.5 0.5 0 0 0 -0.5 0.5v1a0.5 0.5 0 0 1 -0.5 0.5a0.5 0.5 0 0 0 -0.5 0.5a0.5 0.5 0 0 0 0.5 0.5a0.5 0.5 0 0 1 0.5 0.5a0.5 0.5 0 0 0 0.5 0.5a0.5 0.5 0 0 1 0.5 0.5v1a0.5 0.5 0 0 1 -0.5 0.5a0.5 0.5 0 0 0 -0.5 0.5a0.5 0.5 0 0 1 -0.5 0.5a0.5 0.5 0 0 0 -0.5 0.5v1a0.5 0.5 0 0 0 0.5 0.5a0.5 0.5 0 0 1 0.5 0.5a0.5 0.5 0 0 0 0.5 0.5h1a0.5 0.5 0 0 1 0.5 0.5a0.5 0.5 0 0 0 0.5 0.5a0.5 0.5 0 0 1 0.5 0.5a0.5 0.5 0 0 1 -0.5 0.5h-1a0.5 0.5 0 0 1 -0.5 -0.5a0.5 0.5 0 0 0 -0.5 -0.5a0.5 0.5 0 0 0 -0.5 0.5a0.5 0.5 0 0 1 -0.5 0.5a0.5 0.5 0 0 0 -0.5 0.5a0.5 0.5 0 0 1 -0.5 0.5a0.5 0.5 0 0 0 -0.5 0.5a0.5 0.5 0 0 1 -0.5 0.5a0.5 0.5 0 0 1 -0.5 -0.5a0.5 0.5 0 0 0 -0.5 -0.5a0.5 0.5 0 0 0 -0.5 0.5v2a0.5 0.5 0 0 1 -0.5 0.5a0.5 0.5 0 0 0 -0.5 0.5a0.5 0.5 0 0 0 0.5 0.5a0.5 0.5 0 0 1 0.5 0.5a0.5 0.5 0 0 1 -0.5 0.5h-1a0.5 0.5 0 0 0 -0.5 0.5a0.5 0.5 0 0 1 -0.5 0.5a0.5 0.5 0 0 1 -0.5 -0.5v-1a0.5 0.5 0 0 1 0.5 -0.5a0.5 0.5 0 0 0 0.5 -0.5a0.5 0.5 0 0 0 -0.5 -0.5h-1a0.5 0.5 0 0 1 -0.5 -0.5a0.5 0.5 0 0 1 0.5 -0.5h2a0.5 0.5 0 0 0 0.5 -0.5a0.5 0.5 0 0 0 -0.5 -0.5h-1a0.5 0.5 0 0 1 -0.5 -0.5a0.5 0.5 0 0 1 0.5 -0.5a0.5 0.5 0 0 0 0.5 -0.5a0.5 0.5 0 0 0 -0.5 -0.5a0.5 0.5 0 0 1 -0.5 -0.5v-1a0.5 0.5 0 0 1 0.5 -0.5a0.5 0.5 0 0 1 0.5 0.5a0.5 0.5 0 0 0 0.5 0.5h2a0.5 0.5 0 0 1 0.5 0.5a0.5 0.5 0 0 0 0.5 0.5a0.5 0.5 0 0 0 0.5 -0.5a0.5 0.5 0 0 1 0.5 -0.5a0.5 0.5 0 0 0 0.5 -0.5a0.5 0.5 0 0 0 -0.5 -0.5h-1a0.5 0.5 0 0 1 -0.5 -0.5v-2a0.5 0.5 0 0 1 0.5 -0.5a0.5 0.5 0 0 0 0.5 -0.5a0.5 0.5 0 0 0 -0.5 -0.5a0.5 0.5 0 0 1 -0.5 -0.5a0.5 0.5 0 0 1 0.5 -0.5a0.5 0.5 0 0 0 0.5 -0.5v-5a0.5 0.5 0 0 1 0.5 -0.5a0.5 0.5 0 0 0 0.5 -0.5v-1a0.5 0.5 0 0 1 0.5 -0.5a0.5 0.5 0 0 0 0.5 -0.5a0.5 0.5 0 0 1 0.5 -0.5a0.5 0.5 0 0 0 0.5 -0.5v-1a0.5 0.5 0 0 1 0.5 -0.5zM41.5 13a0.5 0.5 0 0 1 0.5 0.5v3a0.5 0.5 0 0 1 -0.5 0.5h-1a0.5 0.5 0 0 1 -0.5 -0.5a0.5 0.5 0 0 1 0.5 -0.5a0.5 0.5 0 0 0 0.5 -0.5v-2a0.5 0.5 0 0 1 0.5 -0.5zM6.5 14a0.5 0.5 0 0 1 0.5 0.5a0.5 0.5 0 0 0 0.5 0.5a0.5 0.5 0 0 0 0.5 -0.5a0.5 0.5 0 0 1 0.5 -0.5a0.5 0.5 0 0 1 0.5 0.5a0.5 0.5 0 0 0 0.5 0.5a0.5 0.5 0 0 1 0.5 0.5a0.5 0.5 0 0 1 -0.5 0.5h-2a0.5 0.5 0 0 0 -0.5 0.5a0.5 0.5 0 0 0 0.5 0.5a0.5 0.5 0 0 1 0.5 0.5a0.5 0.5 0 0 1 -0.5 0.5h-1a0.5 0.5 0 0 1 -0.5 -0.5a0.5 0.5 0 0 0 -0.5 -0.5h-1a0.5 0.5 0 0 0 -0.5 0.5v1a0.5 0.5 0 0 1 -0.5 0.5a0.5 0.5 0 0 1 -0.5 -0.5v-1a0.5 0.5 0 0 0 -0.5 -0.5a0.5 0.5 0 0 1 -0.5 -0.5v-1a0.5 0.5 0 0 1 0.5 -0.5h1a0.5 0.5 0 0 1 0.5 0.5a0.5 0.5 0 0 0 0.5 0.5h1a0.5 0.5 0 0 0 0.5 -0.5v-1a0.5 0.5 0 0 1 0.5 -0.5zM26.5 14h1a0.5 0.5 0 0 1 0.5 0.5a0.5 0.5 0 0 1 -0.5 0.5a0.5 0.5 0 0 0 -0.5 0.5a0.5 0.5 0 0 1 -0.5 0.5a0.5 0.5 0 0 1 -0.5 -0.5v-1a0.5 0.5 0 0 1 0.5 -0.5zM31.5 14h2a0.5 0.5 0 0 1 0.5 0.5a0.5 0.5 0 0 1 -0.5 0.5a0.5 0.5 0 0 0 -0.5 0.5a0.5 0.5 0 0 1 -0.5 0.5a0.5 0.5 0 0 0 -0.5 0.5a0.5 0.5 0 0 1 -0.5 0.5a0.5 0.5 0 0 1 -0.5 -0.5v-2a0.5 0.5 0 0 1 0.5 -0.5zM22 15.5a0.5 0.5 0 0 0 0.5 0.5h1a0.5 0.5 0 0 0 0.5 -0.5a0.5 0.5 0 0 0 -0.5 -0.5h-1a0.5 0.5 0 0 0 -0.5 0.5zM28.5 15h1a0.5 0.5 0 0 1 0.5 0.5v2a0.5 0.5 0 0 1 -0.5 0.5a0.5 0.5 0 0 0 -0.5 0.5a0.5 0.5 0 0 0 0.5 0.5h1a0.5 0.5 0 0 1 0.5 0.5a0.5 0.5 0 0 1 -0.5 0.5a0.5 0.5 0 0 0 -0.5 0.5a0.5 0.5 0 0 1 -0.5 0.5h-2a0.5 0.5 0 0 0 -0.5 0.5v2a0.5 0.5 0 0 1 -0.5 0.5a0.5 0.5 0 0 1 -0.5 -0.5a0.5 0.5 0 0 0 -0.5 -0.5a0.5 0.5 0 0 0 -0.5 0.5a0.5 0.5 0 0 1 -0.5 0.5h-1a0.5 0.5 0 0 1 -0.5 -0.5v-1a0.5 0.5 0 0 1 0.5 -0.5h1a0.5 0.5 0 0 0 0.5 -0.5v-2a0.5 0.5 0 0 1 0.5 -0.5a0.5 0.5 0 0 1 0.5 0.5a0.5 0.5 0 0 0 0.5 0.5h1a0.5 0.5 0 0 0 0.5 -0.5v-2a0.5 0.5 0 0 1 0.5 -0.5a0.5 0.5 0 0 0 0.5 -0.5a0.5 0.5 0 0 0 -0.5 -0.5a0.5 0.5 0 0 1 -0.5 -0.5a0.5 0.5 0 0 1 0.5 -0.5zM1.5 17a0.5 0.5 0 0 1 0.5 0.5v1a0.5 0.5 0 0 1 -0.5 0.5a0.5 0.5 0 0 1 -0.5 -0.5v-1a0.5 0.5 0 0 1 0.5 -0.5zM15.5 17h2a0.5 0.5 0 0 1 0.5 0.5a0.5 0.5 0 0 1 -0.5 0.5a0.5 0.5 0 0 0 -0.5 0.5a0.5 0.5 0 0 1 -0.5 0.5h-2a0.5 0.5 0 0 1 -0.5 -0.5a0.5 0.5 0 0 1 0.5 -0.5a0.5 0.5 0 0 0 0.5 -0.5a0.5 0.5 0 0 1 0.5 -0.5zM22 17.5a0.5 0.5 0 0 0 0.5 0.5a0.5 0.5 0 0 0 0.5 -0.5a0.5 0.5 0 0 0 -0.5 -0.5a0.5 0.5 0 0 0 -0.5 0.5zM18.5 18a0.5 0.5 0 0 1 0.5 0.5v3a0.5 0.5 0 0 1 -0.5 0.5a0.5 0.5 0 0 1 -0.5 -0.5a0.5 0.5 0 0 0 -0.5 -0.5a0.5 0.5 0 0 0 -0.5 0.5v1a0.5 0.5 0 0 1 -0.5 0.5h-1a0.5 0.5 0 0 1 -0.5 -0.5a0.5 0.5 0 0 1 0.5 -0.5a0.5 0.5 0 0 0 0.5 -0.5a0.5 0.5 0 0 0 -0.5 -0.5a0.5 0.5 0 0 1 -0.5 -0.5a0.5 0.5 0 0 1 0.5 -0.5h1a0.5 0.5 0 0 0 0.5 -0.5a0.5 0.5 0 0 1 0.5 -0.5a0.5 0.5 0 0 0 0.5 -0.5a0.5 0.5 0 0 1 0.5 -0.5zM4.5 19h3a0.5 0.5 0 0 1 0.5 0.5a0.5 0.5 0 0 1 -0.5 0.5h-1a0.5 0.5 0 0 0 -0.5 0.5v1a0.5 0.5 0 0 0 0.5 0.5a0.5 0.5 0 0 1 0.5 0.5a0.5 0.5 0 0 0 0.5 0.5a0.5 0.5 0 0 1 0.5 0.5a0.5 0.5 0 0 1 -0.5 0.5h-2a0.5 0.5 0 0 1 -0.5 -0.5a0.5 0.5 0 0 0 -0.5 -0.5h-1a0.5 0.5 0 0 1 -0.5 -0.5a0.5 0.5 0 0 1 0.5 -0.5h1a0.5 0.5 0 0 0 0.5 -0.5a0.5 0.5 0 0 0 -0.5 -0.5a0.5 0.5 0 0 1 -0.5 -0.5v-1a0.5 0.5 0 0 1 0.5 -0.5zM9.5 21a0.5 0.5 0 0 1 0.5 0.5v1a0.5 0.5 0 0 1 -0.5 0.5a0.5 0.5 0 0 1 -0.5 -0.5v-1a0.5 0.5 0 0 1 0.5 -0.5zM21.5 21h1a0.5 0.5 0 0 1 0.5 0.5a0.5 0.5 0 0 1 -0.5 0.5h-1a0.5 0.5 0 0 1 -0.5 -0.5a0.5 0.5 0 0 1 0.5 -0.5zM34.5 21h2a0.5 0.5 0 0 1 0.5 0.5v1a0.5 0.5 0 0 0 0.5 0.5a0.5 0.5 0 0 1 0.5 0.5a0.5 0.5 0 0 1 -0.5 0.5a0.5 0.5 0 0 0 -0.5 0.5v2a0.5 0.5 0 0 1 -0.5 0.5h-1a0.5 0.5 0 0 1 -0.5 -0.5v-1a0.5 0.5 0 0 1 0.5 -0.5a0.5 0.5 0 0 0 0.5 -0.5v-1a0.5 0.5 0 0 0 -0.5 -0.5a0.5 0.5 0 0 1 -0.5 -0.5a0.5 0.5 0 0 0 -0.5 -0.5a0.5 0.5 0 0 1 -0.5 -0.5a0.5 0.5 0 0 1 0.5 -0.5zM28.5 22h1a0.5 0.5 0 0 1 0.5 0.5a0.5 0.5 0 0 1 -0.5 0.5a0.5 0.5 0 0 0 -0.5 0.5v1a0.5 0.5 0 0 0 0.5 0.5a0.5 0.5 0 0 1 0.5 0.5v3a0.5 0.5 0 0 1 -0.5 0.5h-1a0.5 0.5 0 0 1 -0.5 -0.5a0.5 0.5 0 0 0 -0.5 -0.5h-1a0.5 0.5 0 0 0 -0.5 0.5a0.5 0.5 0 0 1 -0.5 0.5a0.5 0.5 0 0 1 -0.5 -0.5v-2a0.5 0.5 0 0 1 0.5 -0.5h1a0.5 0.5 0 0 1 0.5 0.5a0.5 0.5 0 0 0 0.5 0.5a0.5 0.5 0 0 0 0.5 -0.5a0.5 0.5 0 0 0 -0.5 -0.5a0.5 0.5 0 0 1 -0.5 -0.5a0.5 0.5 0 0 1 0.5 -0.5a0.5 0.5 0 0 0 0.5 -0.5v-2a0.5 0.5 0 0 1 0.5 -0.5zM38.5 22h1a0.5 0.5 0 0 1 0.5 0.5v1a0.5 0.5 0 0 1 -0.5 0.5a0.5 0.5 0 0 1 -0.5 -0.5a0.5 0.5 0 0 0 -0.5 -0.5a0.5 0.5 0 0 1 -0.5 -0.5a0.5 0.5 0 0 1 0.5 -0.5zM18.5 23h3a0.5 0.5 0 0 1 0.5 0.5v1a0.5 0.5 0 0 1 -0.5 0.5a0.5 0.5 0 0 0 -0.5 0.5v3a0.5 0.5 0 0 1 -0.5 0.5a0.5 0.5 0 0 0 -0.5 0.5v1a0.5 0.5 0 0 0 0.5 0.5h1a0.5 0.5 0 0 1 0.5 0.5a0.5 0.5 0 0 0 0.5 0.5h1a0.5 0.5 0 0 1 0.5 0.5a0.5 0.5 0 0 0 0.5 0.5a0.5 0.5 0 0 1 0.5 0.5v2a0.5 0.5 0 0 1 -0.5 0.5a0.5 0.5 0 0 0 -0.5 0.5a0.5 0.5 0 0 1 -0.5 0.5a0.5 0.5 0 0 1 -0.5 -0.5a0.5 0.5 0 0 0 -0.5 -0.5a0.5 0.5 0 0 0 -0.5 0.5v1a0.5 0.5 0 0 1 -0.5 0.5a0.5 0.5 0 0 0 -0.5 0.5a0.5 0.5 0 0 1 -0.5 0.5h-1a0.5 0.5 0 0 0 -0.5 0.5v1a0.5 0.5 0 0 1 -0.5 0.5a0.5 0.5 0 0 1 -0.5 -0.5v-1a0.5 0.5 0 0 0 -0.5 -0.5a0.5 0.5 0 0 1 -0.5 -0.5a0.5 0.5 0 0 1 0.5 -0.5a0.5 0.5 0 0 0 0.5 -0.5a0.5 0.5 0 0 0 -0.5 -0.5a0.5 0.5 0 0 0 -0.5 0.5a0.5 0.5 0 0 1 -0.5 0.5a0.5 0.5 0 0 1 -0.5 -0.5v-1a0.5 0.5 0 0 1 0.5 -0.5h2a0.5 0.5 0 0 1 0.5 0.5a0.5 0.5 0 0 0 0.5 0.5a0.5 0.5 0 0 0 0.5 -0.5a0.5 0.5 0 0 1 0.5 -0.5a0.5 0.5 0 0 0 0.5 -0.5v-1a0.5 0.5 0 0 1 0.5 -0.5a0.5 0.5 0 0 1 0.5 0.5a0.5 0.5 0 0 0 0.5 0.5h1a0.5 0.5 0 0 0 0.5 -0.5a0.5 0.5 0 0 0 -0.5 -0.5h-1a0.5 0.5 0 0 1 -0.5 -0.5a0.5 0.5 0 0 0 -0.5 -0.5a0.5 0.5 0 0 1 -0.5 -0.5a0.5 0.5 0 0 0 -0.5 -0.5h-1a0.5 0.5 0 0 1 -0.5 -0.5v-1a0.5 0.5 0 0 0 -0.5 -0.5a0.5 0.5 0 0 0 -0.5 0.5v1a0.5 0.5 0 0 0 0.5 0.5a0.5 0.5 0 0 1 0.5 0.5a0.5 0.5 0 0 1 -0.5 0.5h-1a0.5 0.5 0 0 1 -0.5 -0.5a0.5 0.5 0 0 0 -0.5 -0.5a0.5 0.5 0 0 0 -0.5 0.5a0.5 0.5 0 0 1 -0.5 0.5a0.5 0.5 0 0 1 -0.5 -0.5a0.5 0.5 0 0 0 -0.5 -0.5a0.5 0.5 0 0 1 -0.5 -0.5a0.5 0.5 0 0 1 0.5 -0.5h2a0.5 0.5 0 0 0 0.5 -0.5v-1a0.5 0.5 0 0 0 -0.5 -0.5a0.5 0.5 0 0 1 -0.5 -0.5a0.5 0.5 0 0 1 0.5 -0.5h2a0.5 0.5 0 0 0 0.5 -0.5a0.5 0.5 0 0 1 0.5 -0.5a0.5 0.5 0 0 0 0.5 -0.5a0.5 0.5 0 0 0 -0.5 -0.5h-1a0.5 0.5 0 0 1 -0.5 -0.5a0.5 0.5 0 0 1 0.5 -0.5a0.5 0.5 0 0 0 0.5 -0.5a0.5 0.5 0 0 0 -0.5 -0.5a0.5 0.5 0 0 1 -0.5 -0.5a0.5 0.5 0 0 1 0.5 -0.5zM1.5 24a0.5 0.5 0 0 1 0.5 0.5v1a0.5 0.5 0 0 0 0.5 0.5a0.5 0.5 0 0 1 0.5 0.5a0.5 0.5 0 0 0 0.5 0.5a0.5 0.5 0 0 1 0.5 0.5a0.5 0.5 0 0 1 -0.5 0.5h-1a0.5 0.5 0 0 1 -0.5 -0.5a0.5 0.5 0 0 0 -0.5 -0.5a0.5 0.5 0 0 1 -0.5 -0.5v-2a0.5 0.5 0 0 1 0.5 -0.5zM8.5 24a0.5 0.5 0 0 1 0.5 0.5v3a0.5 0.5 0 0 0 0.5 0.5a0.5 0.5 0 0 1 0.5 0.5a0.5 0.5 0 0 0 0.5 0.5a0.5 0.5 0 0 1 0.5 0.5v2a0.5 0.5 0 0 1 -0.5 0.5a0.5 0.5 0 0 1 -0.5 -0.5a0.5 0.5 0 0 0 -0.5 -0.5a0.5 0.5 0 0 0 -0.5 0.5a0.5 0.5 0 0 1 -0.5 0.5h-1a0.5 0.5 0 0 0 -0.5 0.5a0.5 0.5 0 0 0 0.5 0.5h1a0.5 0.5 0 0 1 0.5 0.5a0.5 0.5 0 0 1 -0.5 0.5h-2a0.5 0.5 0 0 1 -0.5 -0.5a0.5 0.5 0 0 0 -0.5 -0.5h-1a0.5 0.5 0 0 0 -0.5 0.5a0.5 0.5 0 0 1 -0.5 0.5h-2a0.5 0.5 0 0 1 -0.5 -0.5a0.5 0.5 0 0 1 0.5 -0.5h1a0.5 0.5 0 0 0 0.5 -0.5a0.5 0.5 0 0 0 -0.5 -0.5h-1a0.5 0.5 0 0 1 -0.5 -0.5a0.5 0.5 0 0 1 0.5 -0.5h2a0.5 0.5 0 0 0 0.5 -0.5v-1a0.5 0.5 0 0 1 0.5 -0.5h3a0.5 0.5 0 0 1 0.5 0.5a0.5 0.5 0 0 1 -0.5 0.5a0.5 0.5 0 0 0 -0.5 0.5a0.5 0.5 0 0 0 0.5 0.5a0.5 0.5 0 0 0 0.5 -0.5a0.5 0.5 0 0 1 0.5 -0.5a0.5 0.5 0 0 0 0.5 -0.5a0.5 0.5 0 0 0 -0.5 -0.5a0.5 0.5 0 0 1 -0.5 -0.5a0.5 0.5 0 0 0 -0.5 -0.5h-1a0.5 0.5 0 0 1 -0.5 -0.5a0.5 0.5 0 0 0 -0.5 -0.5h-1a0.5 0.5 0 0 1 -0.5 -0.5v-1a0.5 0.5 0 0 1 0.5 -0.5h1a0.5 0.5 0 0 1 0.5 0.5a0.5 0.5 0 0 0 0.5 0.5a0.5 0.5 0 0 1 0.5 0.5a0.5 0.5 0 0 0 0.5 0.5a0.5 0.5 0 0 0 0.5 -0.5a0.5 0.5 0 0 0 -0.5 -0.5a0.5 0.5 0 0 1 -0.5 -0.5a0.5 0.5 0 0 1 0.5 -0.5a0.5 0.5 0 0 0 0.5 -0.5a0.5 0.5 0 0 1 0.5 -0.5zM12.5 24a0.5 0.5 0 0 1 0.5 0.5v1a0.5 0.5 0 0 0 0.5 0.5h2a0.5 0.5 0 0 1 0.5 0.5a0.5 0.5 0 0 1 -0.5 0.5a0.5 0.5 0 0 0 -0.5 0.5a0.5 0.5 0 0 1 -0.5 0.5h-1a0.5 0.5 0 0 0 -0.5 0.5a0.5 0.5 0 0 1 -0.5 0.5h-1a0.5 0.5 0 0 1 -0.5 -0.5a0.5 0.5 0 0 0 -0.5 -0.5a0.5 0.5 0 0 1 -0.5 -0.5a0.5 0.5 0 0 1 0.5 -0.5h1a0.5 0.5 0 0 0 0.5 -0.5a0.5 0.5 0 0 0 -0.5 -0.5a0.5 0.5 0 0 1 -0.5 -0.5a0.5 0.5 0 0 1 0.5 -0.5a0.5 0.5 0 0 0 0.5 -0.5a0.5 0.5 0 0 1 0.5 -0.5zM14.5 24h3a0.5 0.5 0 0 1 0.5 0.5a0.5 0.5 0 0 1 -0.5 0.5h-3a0.5 0.5 0 0 1 -0.5 -0.5a0.5 0.5 0 0 1 0.5 -0.5zM38.5 24a0.5 0.5 0 0 1 0.5 0.5v2a0.5 0.5 0 0 0 0.5 0.5a0.5 0.5 0 0 1 0.5 0.5a0.5 0.5 0 0 1 -0.5 0.5a0.5 0.5 0 0 0 -0.5 0.5a0.5 0.5 0 0 1 -0.5 0.5h-2a0.5 0.5 0 0 1 -0.5 -0.5a0.5 0.5 0 0 1 0.5 -0.5h1a0.5 0.5 0 0 0 0.5 -0.5v-3a0.5 0.5 0 0 1 0.5 -0.5zM40.5 24a0.5 0.5 0 0 1 0.5 0.5v1a0.5 0.5 0 0 0 0.5 0.5a0.5 0.5 0 0 1 0.5 0.5v1a0.5 0.5 0 0 1 -0.5 0.5a0.5 0.5 0 0 1 -0.5 -0.5a0.5 0.5 0 0 0 -0.5 -0.5a0.5 0.5 0 0 1 -0.5 -0.5v-2a0.5 0.5 0 0 1 0.5 -0.5zM22.5 26h1a0.5 0.5 0 0 1 0.5 0.5a0.5 0.5 0 0 1 -0.5 0.5h-1a0.5 0.5 0 0 1 -0.5 -0.5a0.5 0.5 0 0 1 0.5 -0.5zM1.5 29h1a0.5 0.5 0 0 1 0.5 0.5a0.5 0.5 0 0 1 -0.5 0.5h-1a0.5 0.5 0 0 1 -0.5 -0.5a0.5 0.5 0 0 1 0.5 -0.5zM21.5 29h1a0.5 0.5 0 0 1 0.5 0.5v1a0.5 0.5 0 0 1 -0.5 0.5a0.5 0.5 0 0 1 -0.5 -0.5a0.5 0.5 0 0 0 -0.5 -0.5a0.5 0.5 0 0 1 -0.5 -0.5a0.5 0.5 0 0 1 0.5 -0.5zM41.5 29a0.5 0.5 0 0 1 0.5 0.5v2a0.5 0.5 0 0 1 -0.5 0.5a0.5 0.5 0 0 1 -0.5 -0.5v-2a0.5 0.5 0 0 1 0.5 -0.5zM24.5 30a0.5 0.5 0 0 1 0.5 0.5v1a0.5 0.5 0 0 1 -0.5 0.5a0.5 0.5 0 0 1 -0.5 -0.5v-1a0.5 0.5 0 0 1 0.5 -0.5zM5 31.5a0.5 0.5 0 0 0 0.5 0.5a0.5 0.5 0 0 0 0.5 -0.5a0.5 0.5 0 0 0 -0.5 -0.5a0.5 0.5 0 0 0 -0.5 0.5zM12.5 31a0.5 0.5 0 0 1 0.5 0.5a0.5 0.5 0 0 0 0.5 0.5a0.5 0.5 0 0 1 0.5 0.5a0.5 0.5 0 0 0 0.5 0.5a0.5 0.5 0 0 1 0.5 0.5a0.5 0.5 0 0 1 -0.5 0.5h-1a0.5 0.5 0 0 0 -0.5 0.5a0.5 0.5 0 0 0 0.5 0.5a0.5 0.5 0 0 1 0.5 0.5a0.5 0.5 0 0 1 -0.5 0.5h-1a0.5 0.5 0 0 0 -0.5 0.5v2a0.5 0.5 0 0 1 -0.5 0.5a0.5 0.5 0 0 0 -0.5 0.5v1a0.5 0.5 0 0 1 -0.5 0.5a0.5 0.5 0 0 1 -0.5 -0.5a0.5 0.5 0 0 0 -0.5 -0.5a0.5 0.5 0 0 1 -0.5 -0.5a0.5 0.5 0 0 1 0.5 -0.5a0.5 0.5 0 0 0 0.5 -0.5v-1a0.5 0.5 0 0 1 0.5 -0.5a0.5 0.5 0 0 0 0.5 -0.5v-1a0.5 0.5 0 0 1 0.5 -0.5a0.5 0.5 0 0 0 0.5 -0.5a0.5 0.5 0 0 0 -0.5 -0.5a0.5 0.5 0 0 1 -0.5 -0.5a0.5 0.5 0 0 1 0.5 -0.5a0.5 0.5 0 0 0 0.5 -0.5v-1a0.5 0.5 0 0 1 0.5 -0.5zM33.5 32a0.5 0.5 0 0 1 0.5 0.5a0.5 0.5 0 0 0 0.5 0.5a0.5 0.5 0 0 0 0.5 -0.5a0.5 0.5 0 0 1 0.5 -0.5h1a0.5 0.5 0 0 1 0.5 0.5a0.5 0.5 0 0 0 0.5 0.5a0.5 0.5 0 0 0 0.5 -0.5a0.5 0.5 0 0 1 0.5 -0.5a0.5 0.5 0 0 1 0.5 0.5v1a0.5 0.5 0 0 1 -0.5 0.5a0.5 0.5 0 0 0 -0.5 0.5v2a0.5 0.5 0 0 0 0.5 0.5a0.5 0.5 0 0 1 0.5 0.5a0.5 0.5 0 0 1 -0.5 0.5a0.5 0.5 0 0 0 -0.5 0.5a0.5 0.5 0 0 0 0.5 0.5a0.5 0.5 0 0 0 0.5 -0.5a0.5 0.5 0 0 1 0.5 -0.5h1a0.5 0.5 0 0 0 0.5 -0.5a0.5 0.5 0 0 1 0.5 -0.5a0.5 0.5 0 0 1 0.5 0.5v2a0.5 0.5 0 0 1 -0.5 0.5h-2a0.5 0.5 0 0 0 -0.5 0.5a0.5 0.5 0 0 1 -0.5 0.5a0.5 0.5 0 0 1 -0.5 -0.5a0.5 0.5 0 0 0 -0.5 -0.5a0.5 0.5 0 0 1 -0.5 -0.5a0.5 0.5 0 0 0 -0.5 -0.5a0.5 0.5 0 0 1 -0.5 -0.5a0.5 0.5 0 0 0 -0.5 -0.5h-1a0.5 0.5 0 0 0 -0.5 0.5a0.5 0.5 0 0 1 -0.5 0.5a0.5 0.5 0 0 1 -0.5 -0.5a0.5 0.5 0 0 0 -0.5 -0.5a0.5 0.5 0 0 1 -0.5 -0.5a0.5 0.5 0 0 0 -0.5 -0.5a0.5 0.5 0 0 1 -0.5 -0.5a0.5 0.5 0 0 0 -0.5 -0.5a0.5 0.5 0 0 1 -0.5 -0.5a0.5 0.5 0 0 1 0.5 -0.5h1a0.5 0.5 0 0 1 0.5 0.5a0.5 0.5 0 0 0 0.5 0.5a0.5 0.5 0 0 0 0.5 -0.5a0.5 0.5 0 0 0 -0.5 -0.5a0.5 0.5 0 0 1 -0.5 -0.5a0.5 0.5 0 0 1 0.5 -0.5a0.5 0.5 0 0 0 0.5 -0.5v-1a0.5 0.5 0 0 1 0.5 -0.5zM40.5 32a0.5 0.5 0 0 1 0.5 0.5v1a0.5 0.5 0 0 0 0.5 0.5a0.5 0.5 0 0 1 0.5 0.5v1a0.5 0.5 0 0 1 -0.5 0.5a0.5 0.5 0 0 1 -0.5 -0.5a0.5 0.5 0 0 0 -0.5 -0.5a0.5 0.5 0 0 1 -0.5 -0.5v-2a0.5 0.5 0 0 1 0.5 -0.5zM19.5 33h1a0.5 0.5 0 0 1 0.5 0.5a0.5 0.5 0 0 1 -0.5 0.5h-1a0.5 0.5 0 0 1 -0.5 -0.5a0.5 0.5 0 0 1 0.5 -0.5zM9.5 34h1a0.5 0.5 0 0 1 0.5 0.5a0.5 0.5 0 0 1 -0.5 0.5a0.5 0.5 0 0 0 -0.5 0.5v1a0.5 0.5 0 0 1 -0.5 0.5a0.5 0.5 0 0 1 -0.5 -0.5v-2a0.5 0.5 0 0 1 0.5 -0.5zM15.5 34a0.5 0.5 0 0 1 0.5 0.5v1a0.5 0.5 0 0 1 -0.5 0.5a0.5 0.5 0 0 1 -0.5 -0.5v-1a0.5 0.5 0 0 1 0.5 -0.5zM34 34.5v2a0.5 0.5 0 0 0 0.5 0.5h2a0.5 0.5 0 0 0 0.5 -0.5v-2a0.5 0.5 0 0 0 -0.5 -0.5h-2a0.5 0.5 0 0 0 -0.5 0.5zM24.5 37a0.5 0.5 0 0 1 0.5 0.5v2a0.5 0.5 0 0 0 0.5 0.5h1a0.5 0.5 0 0 0 0.5 -0.5a0.5 0.5 0 0 1 0.5 -0.5a0.5 0.5 0 0 0 0.5 -0.5a0.5 0.5 0 0 1 0.5 -0.5h1a0.5 0.5 0 0 1 0.5 0.5a0.5 0.5 0 0 1 -0.5 0.5a0.5 0.5 0 0 0 -0.5 0.5a0.5 0.5 0 0 1 -0.5 0.5a0.5 0.5 0 0 0 -0.5 0.5a0.5 0.5 0 0 0 0.5 0.5a0.5 0.5 0 0 0 0.5 -0.5a0.5 0.5 0 0 1 0.5 -0.5a0.5 0.5 0 0 1 0.5 0.5v1a0.5 0.5 0 0 1 -0.5 0.5h-2a0.5 0.5 0 0 1 -0.5 -0.5a0.5 0.5 0 0 0 -0.5 -0.5h-4a0.5 0.5 0 0 0 -0.5 0.5a0.5 0.5 0 0 1 -0.5 0.5h-1a0.5 0.5 0 0 1 -0.5 -0.5v-1a0.5 0.5 0 0 1 0.5 -0.5a0.5 0.5 0 0 0 0.5 -0.5a0.5 0.5 0 0 1 0.5 -0.5a0.5 0.5 0 0 1 0.5 0.5a0.5 0.5 0 0 0 0.5 0.5a0.5 0.5 0 0 0 0.5 -0.5a0.5 0.5 0 0 1 0.5 -0.5a0.5 0.5 0 0 0 0.5 -0.5v-1a0.5 0.5 0 0 1 0.5 -0.5zM34.5 39a0.5 0.5 0 0 1 0.5 0.5a0.5 0.5 0 0 0 0.5 0.5a0.5 0.5 0 0 1 0.5 0.5a0.5 0.5 0 0 1 -0.5 0.5a0.5 0.5 0 0 0 -0.5 0.5a0.5 0.5 0 0 1 -0.5 0.5h-1a0.5 0.5 0 0 1 -0.5 -0.5v-1a0.5 0.5 0 0 1 0.5 -0.5a0.5 0.5 0 0 0 0.5 -0.5a0.5 0.5 0 0 1 0.5 -0.5zM12.5 40h2a0.5 0.5 0 0 1 0.5 0.5a0.5 0.5 0 0 1 -0.5 0.5a0.5 0.5 0 0 0 -0.5 0.5a0.5 0.5 0 0 1 -0.5 0.5h-1a0.5 0.5 0 0 1 -0.5 -0.5v-1a0.5 0.5 0 0 1 0.5 -0.5zM31.5 40a0.5 0.5 0 0 1 0.5 0.5v1a0.5 0.5 0 0 1 -0.5 0.5a0.5 0.5 0 0 1 -0.5 -0.5v-1a0.5 0.5 0 0 1 0.5 -0.5zM15.5 41h1a0.5 0.5 0 0 1 0.5 0.5a0.5 0.5 0 0 1 -0.5 0.5h-1a0.5 0.5 0 0 1 -0.5 -0.5a0.5 0.5 0 0 1 0.5 -0.5z" fill="#0f0"/></svg>