<svg xmlns="http://www.w3.org/2000/svg" viewBox="0 0 288 36" fill="#efeee3"><g><path d="M10 17h4.9c1.8 0 1.5-3 .3-4H10v4z"/><path d="M18 .2C8.9.2 1 7.3.1 16.5a18.1 18.1 0 0 0 14.6 19.3c9 1.7 18.1-4 20.6-12.8A18.1 18.1 0 0 0 24.4 1.3C22.4.6 20.2.2 18 .2zM22 11h7v2h-7v-2zm-2.4 10.1c0 4.3-4.4 3.9-4.4 3.9H7V10h8.2c2.4 0 3.9 2.2 3.9 4.4 0 1.3-.8 2.6-2.1 2.9 2.8 0 2.6 3.8 2.6 3.8 0 4.2 0 0 0 0zm10.7-.1h-7.2c0 2 2.5 2.5 2.5 2.5 2 .2 2.2-1.5 2.2-1.5h2.5c0 4-4.8 3.7-4.8 3.7-5.7 0-5.4-5.3-5.4-5.3.1-3.4 2.7-5.6 6.1-5.3 1.9.2 3.3 1.3 3.8 3.2.1.1.6 2.7.3 2.7z"/><path d="M14.8 22.3c1.1-.1 2-.5 1.9-1.8-.2-.8-.7-1.5-1.5-1.5H10v3.1l4.8.2zm10.7-5.4C23.3 16.9 23 19 23 19h4.6c.1 0 .1-2.1-2.1-2.1z"/></g><g><path d="M53.3 14.1A57.3 57.3 0 0 0 48.7 7c-3.5 1.6-6 4.8-6.8 8.6.3 0 5.5 0 11.4-1.5-2.1-3.8-5.9 1.5 0 0zm5.2 5.5c1.6 4.5 2.3 8.1 2.4 8.8 2.8-1.9 4.8-4.9 5.3-8.3-.2-.1-3.7-1.2-7.7-.5 1.7 4.4 4-.7 0 0zm-2.4.6c-7.3 2.5-9.7 7.7-9.7 7.7 3.5 2.7 8.3 3.4 12.4 1.6-.1-1.1-.8-4.8-2.7-9.3.1-.1.1-.1 0 0-7.3 2.5.1-.1 0 0z"/><path d="m54.9 18.2.5-.1a20 20 0 0 0-1-2.1c-6.4 1.9-12.5 1.8-12.7 1.8-.1 3.2 1 6.3 3.2 8.7s3.3-6.1 10-8.3c.1 0-6.7 2.2 0 0zm1.8-3 1.1 2.4c4.3-.5 8.4.4 8.6.4 0-2.9-1.1-5.6-2.8-7.7 0 0-2 2.9-6.9 4.9.3.6 4.9-2 0 0zm5.5-6.4c-3-2.6-7.2-3.7-11.1-2.7.2.2 2.5 3.3 4.6 7.2 4.7-1.7 6.5-4.4 6.5-4.5-2.2-1.9 0 .1 0 0z"/><path d="M54 0c-9.2 0-17.1 7.2-17.9 16.3a18.3 18.3 0 0 0 14.6 19.4c9 1.7 18.1-4 20.6-12.8A18 18 0 0 0 54 0zm14.2 15.2a14.5 14.5 0 1 1-27.8-2.1C42.5 7.5 48 3.6 54 3.6c6.8 0 12.9 5 14.2 11.6.2 1-.2-.9 0 0z"/></g><path d="M90 .1a18 18 0 0 0-17.8 16.5 18 18 0 0 0 15.1 19.1 18.1 18.1 0 0 0 20.2-13.6c2.1-9-3.2-18.4-12-21.2C93.7.4 91.9.1 90 .1zm9.4 17.2-.3 1c-1 2.1-2.9 2.8-6.1 3.2 2 1.2 1.3 4.4 1.3 6.4 0 .5.3.9.7 1.2.5.3.7.6-.1.7-.9 0-2.1-.5-2-1.6l.3-2.9-.2-1.8v4.7c0 .3.6 1.9.2 2-.8.2-1.9-.7-2.1-1.4-.6-1.6-.2-3.8-.3-5.5h-.4c.1 1.6.8 7.1-2 6.9-.7 0 .3-1 .3-1.3l.1-1.8v-3.7c-.8.6-.5 2-.5 2.9 0 1.3.3 2.6-1.1 3.1-.2.1-1.5.4-1.5 0s.9-.7 1.1-1.1c.4-.8.1-2.2.1-3.1-1.3.2-2.9.2-3.8-.8a5 5 0 0 1-.8-1.2c-.4-1-1.1-1.3-1.8-2-.5-.6 1.1-.3 1.4-.2.5.3.9.8 1.2 1.3.9 1.1 2.5 1.7 3.9.9.1-.8.6-1.4 1.1-1.7-3.2-.3-5.1-1.4-6.1-3.2l-.4-1a6.9 6.9 0 0 1 1.1-7c-.7-2.3.2-3.9.2-3.9s1.4-.3 4 1.6c1.4-.6 5.2-.7 7.1-.1 1.1-.7 3.1-1.7 4-1.5 0 .3.4 1.3 0 3.6.4.8 1.1 1.3 1.4 2.2a8 8 0 0 1 0 5.1c.1 0 .2-.8 0 0z"/><g><path d="M139 13v5h-2v-5h-5v-2h5V7h2v4h3.5c-3.5-9-13.8-13-22.6-9.8a18.1 18.1 0 0 0-7.7 28.4c2.2-3.4 6.7-3.9 10.4-4.1-1.1-1.4-1.6-2.8-.8-4.5-2.2.2-4.4-.1-6.2-1.6a6.4 6.4 0 0 1-2.2-4.9c0-2.4 1.5-4.7 3.5-6a12 12 0 0 1 6.7-1.4h8.7l-2.7 1H127c1.5 2 2.9 3 3 5.3.1 2.8-1.4 4.6-3.5 6.3-1.3 1.3-1.6 2.6-.1 3.9l1.5 1.2c1.5 1.3 3 2.6 3.4 4.7a7 7 0 0 1-2.4 6.5c4.9-.8 9.4-3.7 12.1-7.8a18 18 0 0 0 2.7-7.1 15 15 0 0 0-.5-7.9H139z"/><path d="M128.6 32.2c0-2.2-1.4-3.3-4.6-5.6-3.5-.3-9.7.9-8.9 5.7a18 18 0 0 0 11 3.7 4 4 0 0 0 2.5-3.8zM121 7.8c-6.4 0-4.2 12 1.4 12 6.5 0 4-12-1.4-12z"/></g><path d="M162 .2c-9.1 0-17 7.2-17.9 16.3a18.2 18.2 0 0 0 14.6 19.3c9 1.7 18.1-4 20.6-12.8A18 18 0 0 0 162 .2zM158 27h-6V13.7h6V27zm-3.1-15.3c-1.4 0-2.8-1-2.8-2.4 0-1.5 1.4-2.4 2.8-2.4s2.8 1 2.8 2.4c-.1 1.4-1.5 2.4-2.8 2.4zM175 27h-4v-7.9c0-2.8-6-3.2-6-.1v8h-4.7l.1-13h4.3v1.6c1-1.7 3.1-2.4 5-2.3 3 .1 5.3 2.5 5.3 5.5V27z"/><g><path d="m207.5 14.1-.6-.7-6.9 5.8v-.1.1l-2 1.8-8.8-7.5-.6.5 6.2 5.4-6.2 5.3.6.6 6.3-5.4 2.5 2.2 2.7-2.2 6.2 5.4.6-.6-6.2-5.3z"/><path d="M198 .2c-9.2 0-17.1 7.3-17.9 16.5-.7 9.2 6 17.7 15.1 19.1a18.1 18.1 0 0 0 20.2-13.6c2.1-9-3.2-18.4-12-21.2a19 19 0 0 0-5.4-.8zm-9.7 11h20.8v14c0 1.6-3 1-4 1h-17.2c-.5 0-.4-.6-.4-1V13.5c.1-.9-.3-2.3.8-2.3z"/></g><path d="M234.1.1c-9.2 0-17.1 7.2-17.9 16.3a18.1 18.1 0 0 0 14.6 19.3c9 1.7 18.1-4 20.6-12.8a18.1 18.1 0 0 0-10.9-21.7c-2.1-.7-4.3-1.1-6.4-1.1zM227 27.8c-3 0-3-5.6 0-5.6 4 0 4 5.6 0 5.6zm7.5.2c0-6-4.5-10-10.5-10v-4c8 0 14.5 6.1 14.5 14.1h-4zm7.1 0A17 17 0 0 0 224 10.8v-4c12 0 21.6 9.2 21.6 21.2h-4z"/><path d="M270.1.2c-9.1 0-17 7.2-17.9 16.3a18.1 18.1 0 0 0 14.6 19.3c9 1.7 18.1-4 20.6-12.8a18.2 18.2 0 0 0-10.9-21.7c-2.1-.7-4.3-1.1-6.4-1.1zm-.2 5.1c2 0 4.2.2 6.6.4 2.6.4 4.4 1.9 5.3 4.3.3.7.4 3.6.2 8.5-.2 3.3-2 5.3-5.3 6-4 .6-7.6.5-11-.2 0 3.3 3 4.3 9.1 2.9v2c-2.7 1.5-6 1.8-10.2.6-2.8-1.1-4.5-2.8-5.1-5A32.4 32.4 0 0 1 259 10c.8-2.4 2.7-3.8 5.4-4.3a35 35 0 0 1 5.4-.4zm-3 4.2a5 5 0 0 0-1 0c-2 .5-3.1 2-3.2 4.5v6.7h2.7v-6.5c0-1.5.7-2.2 2.2-2 1 0 1.5.9 1.5 2.4v3.5h2.6v-3.5c0-1.5.5-2.3 1.5-2.5 1.4-.1 2 .4 2.1 1.7v6.9h2.7V14c0-2.5-1-4-3.2-4.5-1.7-.2-3 .3-3.8 1.6l-.6 1-.7-1c-.7-1-1.7-1.6-2.9-1.6z"/></svg>