<svg xmlns="http://www.w3.org/2000/svg" fill="#efeee3" viewBox="0 0 180 36.1"><path d="M17.3 14.1A57.3 57.3 0 0 0 12.7 7c-3.5 1.6-6 4.8-6.8 8.6.3 0 5.5 0 11.4-1.5-2.1-3.8-6 1.5 0 0zm5.2 5.5c1.6 4.5 2.3 8.1 2.4 8.8 2.8-1.9 4.8-4.9 5.3-8.3-.2-.1-3.7-1.2-7.7-.5 1.7 4.4 4-.7 0 0zm-2.4.6c-7.3 2.5-9.7 7.7-9.7 7.7 3.5 2.7 8.3 3.4 12.4 1.6-.1-1.1-.8-4.8-2.7-9.3 0-.1 0-.1 0 0-7.3 2.5 0-.1 0 0z"/><path d="m18.9 18.2.5-.1a20 20 0 0 0-1-2.1C12 17.9 5.9 17.8 5.7 17.8c-.1 3.2 1 6.3 3.2 8.7 2.2 2.4 3.3-6.1 10-8.3 0 0-6.7 2.2 0 0zm1.8-3 1 2.4c4.4-.5 8.5.4 8.7.4 0-2.9-1.1-5.6-2.8-7.7 0 0-2 2.9-7 4.9.4.6 5-2 0 0zm5.5-6.4C23.2 6.2 19 5.1 15 6.1c.2.2 2.5 3.3 4.6 7.2 4.7-1.7 6.5-4.4 6.5-4.5-2.2-1.9 0 .1 0 0z"/><path d="M18 0C8.8 0 .9 7.2 0 16.3a18.3 18.3 0 0 0 14.7 19.4c9 1.7 18-4 20.6-12.8A18 18 0 0 0 18 0Zm14.2 15.2a14.5 14.5 0 1 1-27.8-2.1C6.4 7.5 12 3.6 18 3.6c6.8 0 12.9 5 14.2 11.6.2 1-.2-.9 0 0z"/><path d="M54 .1a18 18 0 0 0-17.8 16.5 18 18 0 0 0 15 19.1 18.1 18.1 0 0 0 20.3-13.6c2-9-3.2-18.4-12-21.2C57.7.4 55.9.1 54 .1zm9.4 17.2-.3 1c-1 2.1-3 2.8-6.1 3.2 2 1.2 1.3 4.4 1.3 6.4 0 .5.3.9.7 1.2.5.3.7.6-.1.7-1 0-2.1-.5-2-1.6l.3-2.9-.2-1.8v4.7c0 .3.6 1.9.2 2-.8.2-2-.7-2.1-1.4-.6-1.6-.2-3.8-.3-5.5h-.4c0 1.6.8 7.1-2 6.9-.7 0 .3-1 .3-1.3v-5.5c-.7.6-.4 2-.4 2.9 0 1.3.3 2.6-1.1 3.1-.2.1-1.5.4-1.5 0s.9-.7 1-1.1c.5-.8.2-2.2.2-3.1-1.3.2-3 .2-3.8-.8a5 5 0 0 1-.8-1.2c-.4-1-1.1-1.3-1.8-2-.5-.6 1-.3 1.4-.2.5.3.9.8 1.2 1.3.9 1.1 2.5 1.7 3.9.9 0-.8.6-1.4 1-1.7-3.1-.3-5-1.4-6-3.2l-.4-1a6.9 6.9 0 0 1 1-7C46 8 47 6.4 47 6.4s1.4-.3 4 1.6c1.4-.6 5.2-.7 7-.1 1.2-.7 3.2-1.7 4-1.5 0 .3.5 1.3 0 3.6.5.8 1.2 1.3 1.5 2.2a8 8 0 0 1 0 5.1s.2-.8 0 0z"/><path d="M90 .2c-9.1 0-17 7.2-18 16.3a18.2 18.2 0 0 0 14.7 19.3c9 1.7 18-4 20.6-12.8A18 18 0 0 0 90 .2ZM86 27h-6V13.7h6zm-3.1-15.3c-1.4 0-2.8-1-2.8-2.4 0-1.5 1.4-2.4 2.8-2.4s2.8 1 2.8 2.4c-.1 1.4-1.5 2.4-2.8 2.4zm20 15.3h-4v-7.9c0-2.8-6-3.2-6-.1v8h-4.6V14h4.4v1.6c1-1.7 3-2.4 5-2.3 3 .1 5.3 2.5 5.3 5.5z"/><path d="M126 .1a18 18 0 0 0-17.8 16.3 18.1 18.1 0 0 0 14.6 19.3c9 1.7 18-4 20.6-12.8a18.1 18.1 0 0 0-11-21.7c-2-.7-4.2-1.1-6.3-1.1zm-7 27.7c-3 0-3-5.6 0-5.6 4 0 4 5.6 0 5.6zm7.5.2c0-6-4.5-10-10.5-10v-4c8 0 14.5 6.1 14.5 14.1h-4zm7 0A17 17 0 0 0 116 10.8v-4c12 0 21.6 9.2 21.6 21.2z"/><path d="M162 .2c-9 0-17 7.2-17.8 16.3a18.1 18.1 0 0 0 14.6 19.3c9 1.7 18-4 20.6-12.8a18.2 18.2 0 0 0-11-21.7c-2-.7-4.2-1.1-6.3-1.1zm-.1 5.1c2 0 4.2.2 6.6.4 2.6.4 4.4 1.9 5.3 4.3.3.7.4 3.6.2 8.5-.2 3.3-2 5.3-5.3 6-4 .6-7.6.5-11-.2 0 3.3 3 4.3 9 2.9v2c-2.6 1.5-6 1.8-10.1.6-2.8-1.1-4.5-2.8-5.1-5A32.4 32.4 0 0 1 151 10c.8-2.4 2.7-3.8 5.4-4.3a35 35 0 0 1 5.4-.4zm-3 4.2a5 5 0 0 0-1 0c-2 .5-3.1 2-3.2 4.5v6.7h2.7v-6.5c0-1.5.7-2.2 2.2-2 1 0 1.5.9 1.5 2.4v3.5h2.6v-3.5c0-1.5.5-2.3 1.5-2.5 1.4-.1 2 .4 2 1.7v6.9h2.8V14c0-2.5-1-4-3.2-4.5-1.7-.2-3 .3-3.8 1.6l-.6 1-.7-1c-.7-1-1.7-1.6-3-1.6z"/></svg>