<svg xmlns="http://www.w3.org/2000/svg" viewBox="0 45.7 58 36"><g fill="#8B1810"><path d="M18.8 47.6c-8.8 0-16 7.2-16 16s7.2 16 16 16a16 16 0 1 0 0-32zm6.2 8.5c1.4 0 2.6 1.1 2.6 2.6 0 1.4-1.1 2.6-2.6 2.6a2.6 2.6 0 0 1-2.6-2.6c0-1.5 1.2-2.6 2.6-2.6zm-12.4 0c1.4 0 2.6 1.1 2.6 2.6 0 1.4-1.1 2.6-2.6 2.6S10 60.2 10 58.7c.1-1.5 1.2-2.6 2.6-2.6zm6.2 20.8c-7.1 0-12.9-6.2-12.9-12.9h25.8c0 6.8-5.8 12.9-12.9 12.9zm27-18.7-.7.2-.6.5-.4.7-.1.8c0 .4.1.7.3 1 .2.2.5.4.8.4l.7-.2.6-.5.4-.7.1-.8c0-.4-.1-.7-.3-.9-.3-.4-.5-.5-.8-.5z"/><path d="M51.1 50.2H38.4c-2.4 0-4.4 2-4.4 4.4v.5a17.2 17.2 0 0 1 1.6 12.7c.6.4 1.2.8 1.9.9v3.1c0 .2 0 .4.2.6l.2.1c.4.2.9.2 1.2-.2l4.1-3.5h8.5a4.3 4.3 0 0 0 3.7-4.4v-9.8a4.3 4.3 0 0 0-4.3-4.4zm-.6 10.5c-.3.5-.6 1-1 1.3l-1.2.8c-.4.2-.7.2-.9.2l-.8-.2-.3-.6-.7.7c-.3.2-.6.2-.9.2l-.9-.2c-.3-.1-.5-.3-.7-.6l-.5-.8a3 3 0 0 1-.2-1l.2-1.4c.2-.5.4-.9.7-1.2l1-.9c.4-.2.8-.3 1.3-.3l1 .2c.3.2.6.4.8.8l.2-.8h1.2l-.9 3.8-.1.3v.3l.1.2.2.1.6-.2.6-.6.4-.9.2-1.1c0-.6-.1-1.1-.3-1.6-.2-.5-.5-.8-.9-1.1l-1.3-.7c-.5-.2-1-.2-1.6-.2-.6 0-1.2.1-1.7.3a3 3 0 0 0-1.3.9c-.4.4-.6.9-.8 1.4a5.2 5.2 0 0 0 0 3.5c.2.5.5 1 .9 1.4.4.4.8.7 1.4.9a5.7 5.7 0 0 0 3.6 0c.6-.2 1-.5 1.4-.9h1.2c-.5.8-1.2 1.4-1.9 1.8-.8.4-1.7.6-2.6.6a5.4 5.4 0 0 1-4-1.6 5.4 5.4 0 0 1-1.6-4 5.4 5.4 0 0 1 1.6-4 5.4 5.4 0 0 1 4-1.6 5.8 5.8 0 0 1 3.6 1.2 4 4 0 0 1 1.5 3.3c-.2 1.1-.3 1.8-.6 2.3z"/></g></svg>