<svg xmlns="http://www.w3.org/2000/svg" style="position:absolute">
	<symbol viewBox="0 0 24 24" id="moon"><path d="M3 11.98A9.81 9.81 0 0 0 12.57 22a9.53 9.53 0 0 0 8.3-5.06 1 1 0 0 0-.94-1.48l-.1.01a5 5 0 0 1-.4.02 7.81 7.81 0 0 1-7.58-8.01 8.4 8.4 0 0 1 1.02-4A1 1 0 0 0 11.92 2 9.86 9.86 0 0 0 3 11.98m7.34-7.65a10.4 10.4 0 0 0-.48 3.15 9.89 9.89 0 0 0 8.28 9.92 7.4 7.4 0 0 1-5.57 2.6A7.81 7.81 0 0 1 5 11.98a8 8 0 0 1 5.34-7.65"/></symbol>
	<symbol viewBox="0 0 24 24" id="sun"><path d="M12 18a6 6 0 1 0-6-6 6 6 0 0 0 6 6m0-10a4 4 0 1 1-4 4 4 4 0 0 1 4-4m0-4a1 1 0 0 0 1-1V2a1 1 0 0 0-2 0v1a1 1 0 0 0 1 1m-1 17v1a1 1 0 0 0 2 0v-1a1 1 0 0 0-2 0m7.36-14.36a1 1 0 0 0 .71-.3l.7-.7a1 1 0 0 0-1.4-1.42l-.71.7a1 1 0 0 0 .7 1.72M4.93 17.66l-.7.7a1 1 0 1 0 1.4 1.42l.71-.7a1 1 0 0 0-1.41-1.42M22 11h-1a1 1 0 0 0 0 2h1a1 1 0 0 0 0-2M2 13h1a1 1 0 0 0 0-2H2a1 1 0 0 0 0 2m15.66 4.66a1 1 0 0 0 0 1.41l.7.7a1 1 0 0 0 1.42-1.4l-.7-.71a1 1 0 0 0-1.42 0M4.93 6.34a1 1 0 0 0 1.41-1.41l-.7-.7a1 1 0 0 0-1.42 1.4z"/></symbol>
	<symbol viewBox="17 -18 100 100" id="unset"><path d="M104.5 36.2h8.3c4.2 0 4.2 0 4.2-4.2s0-4.2-4.2-4.2h-8.3c-4.2 0-4.2 0-4.2 4.2s0 4.2 4.2 4.2M67-1.3c4.2 0 4.2 0 4.2-4.2v-8.3c0-4.2 0-4.2-4.2-4.2s-4.2 0-4.2 4.2v8.3c0 4.2 0 4.2 4.2 4.2m29.5 68.6c2.9 2.9 2.9 2.9 5.8 0 3-2.9 3-2.9 0-5.9l-5.8-5.8c-3-3-3-3-5.9 0-2.9 2.9-2.9 2.9 0 5.8zM37.6 8.4c2.9 2.9 2.9 2.9 5.8 0 3-2.9 3-2.9 0-5.9l-5.8-5.8c-3-3-3-3-5.9 0-2.9 2.9-2.9 2.9 0 5.8zM67 57a25 25 0 0 0 24.1-31.6l-7.4 7.5a16.8 16.8 0 0 1-15.8 15.8l-7.5 7.5c2.1.5 4.4.8 6.6.8m-14.6-4.7 6.1-6A16.6 16.6 0 0 1 50.3 32c0-9.2 7.5-16.7 16.7-16.7 6.1 0 11.4 3.3 14.3 8.2l6-6a25 25 0 1 0-34.9 34.8M67 82c4.2 0 4.2 0 4.2-4.2v-8.3c0-4.2 0-4.2-4.2-4.2s-4.2 0-4.2 4.2v8.3c0 4.2 0 4.2 4.2 4.2M21.2 36.2h8.3c4.2 0 4.2 0 4.2-4.2s0-4.2-4.2-4.2h-8.3c-4.2 0-4.2 0-4.2 4.2s0 4.2 4.2 4.2m10.5 31.1c2.9 2.9 2.9 2.9 5.9 0l64.8-64.8c3-3 3-2.9 0-5.8-2.9-3-2.8-2.9-5.8 0L31.7 61.4c-3 3-2.9 3 0 5.9"/></symbol>
</svg>