<svg xmlns="http://www.w3.org/2000/svg" width="32" height="32" fill="#032c36" viewBox="0 0 512 512"><path d="M255.814 2.535A253.257 253.257 0 0 0 2.56 255.793a253.257 253.257 0 0 0 253.255 253.256 253.257 253.257 0 0 0 253.258-253.256A253.257 253.257 0 0 0 255.814 2.535zM256 64.5a16.502 16.502 0 0 1 9.17 2.783l175 117A16.502 16.502 0 0 1 447.336 198h.164v116h-.164a16.502 16.502 0 0 1-7.166 13.717l-175 117a16.502 16.502 0 0 1-18.139-.301l-.2.3-175-117A16.502 16.502 0 0 1 65.378 314H64.5V198h.88a16.502 16.502 0 0 1 6.45-13.717l175-117A16.502 16.502 0 0 1 256 64.5zm-16.5 47.379-128.725 86.06 57.725 38.264 71-47.062v-77.262zm33 0v77.262l71 47.062 57.725-38.264L272.5 111.88zM256 217.795 198.365 256 256 294.203 313.635 256 256 217.795zm-158.5 10.94v54.53L138.633 256 97.5 228.734zm317 0L373.367 256l41.133 27.266v-54.532zm-246 47.062-57.725 38.264L239.5 400.12V322.86l-71-47.062zm175 0-71 47.062v77.26l128.725-86.058-57.725-38.264z"/></svg>